<svg xmlns="http://www.w3.org/2000/svg" xmlns:xlink="http://www.w3.org/1999/xlink" width="2000" zoomAndPan="magnify" viewBox="0 0 1500 1499.999933" height="2000" preserveAspectRatio="xMidYMid meet" version="1.0"><defs><g/><clipPath id="cc210003f4"><path d="M 200 180 L 1300 180 L 1300 1199.980469 L 200 1199.980469 Z M 200 180 " clip-rule="nonzero"/></clipPath><clipPath id="e578888f0b"><path d="M 914 589.632812 L 929 589.632812 L 929 604 L 914 604 Z M 914 589.632812 " clip-rule="nonzero"/></clipPath><clipPath id="60ef25581d"><path d="M 625 869 L 1034.347656 869 L 1034.347656 1042 L 625 1042 Z M 625 869 " clip-rule="nonzero"/></clipPath><clipPath id="64b1d8f616"><path d="M 776 756 L 1034.347656 756 L 1034.347656 1023 L 776 1023 Z M 776 756 " clip-rule="nonzero"/></clipPath><clipPath id="c3e8f4ece7"><path d="M 667 919 L 1034.347656 919 L 1034.347656 1065 L 667 1065 Z M 667 919 " clip-rule="nonzero"/></clipPath><clipPath id="0ee5bfc7ed"><path d="M 472 984 L 887 984 L 887 1082.382812 L 472 1082.382812 Z M 472 984 " clip-rule="nonzero"/></clipPath><clipPath id="644b660bf9"><path d="M 529 1020 L 852 1020 L 852 1082.382812 L 529 1082.382812 Z M 529 1020 " clip-rule="nonzero"/></clipPath><clipPath id="61c941e5d8"><path d="M 935 700 L 1034.347656 700 L 1034.347656 1002 L 935 1002 Z M 935 700 " clip-rule="nonzero"/></clipPath><clipPath id="408aac066c"><path d="M 465.847656 1001 L 480 1001 L 480 1016 L 465.847656 1016 Z M 465.847656 1001 " clip-rule="nonzero"/></clipPath><clipPath id="5229e470a1"><path d="M 406.460938 552 L 712 552 L 712 759 L 406.460938 759 Z M 406.460938 552 " clip-rule="nonzero"/></clipPath></defs><g clip-path="url(#cc210003f4)"><path fill="#00f2fe" d="M 1178.15625 689.300781 C 1178.15625 709.421875 1178.15625 729.765625 1178.15625 749.886719 C 1178.15625 889.816406 1178.15625 1029.972656 1178.15625 1169.902344 C 1178.15625 1186.179688 1164.367188 1199.96875 1148.089844 1199.96875 C 1115.535156 1199.96875 1082.984375 1199.96875 1050.433594 1199.96875 C 818.949219 1199.96875 587.238281 1199.96875 355.753906 1199.96875 C 339.476562 1199.96875 325.6875 1186.179688 325.6875 1169.902344 C 325.6875 1149.785156 325.6875 1129.4375 325.6875 1109.320312 C 325.6875 969.386719 325.6875 829.230469 325.6875 689.300781 C 325.6875 650.417969 385.820312 650.644531 385.820312 689.300781 C 385.820312 709.421875 385.820312 729.765625 385.820312 749.886719 C 385.820312 879.867188 385.820312 1009.851562 385.820312 1139.835938 C 408.425781 1139.835938 430.804688 1139.835938 453.410156 1139.835938 C 674.949219 1139.835938 896.484375 1139.835938 1118.023438 1139.835938 C 1118.023438 1129.664062 1118.023438 1119.492188 1118.023438 1109.320312 C 1118.023438 969.386719 1118.023438 829.230469 1118.023438 689.300781 C 1118.023438 650.644531 1178.15625 650.644531 1178.15625 689.300781 Z M 1289.828125 656.976562 C 1138.59375 520.210938 987.585938 383.667969 836.582031 247.128906 C 815.105469 227.6875 793.855469 208.472656 772.378906 189.03125 C 759.945312 177.730469 742.3125 177.730469 729.878906 189.03125 C 578.195312 325.796875 426.507812 462.339844 274.824219 598.878906 C 253.347656 618.320312 231.871094 637.535156 210.398438 656.976562 C 181.460938 682.972656 224.1875 725.472656 252.894531 699.472656 C 404.582031 562.933594 556.042969 426.394531 707.726562 289.855469 C 722.195312 276.96875 736.4375 264.085938 750.902344 250.972656 C 894.902344 381.183594 1038.902344 511.394531 1182.902344 641.375 C 1204.378906 660.816406 1225.628906 680.03125 1247.101562 699.472656 C 1275.8125 725.246094 1318.539062 682.972656 1289.828125 656.976562 Z M 1058.796875 351.570312 C 1058.796875 339.589844 1058.796875 327.832031 1058.796875 315.851562 C 1083.210938 315.851562 1107.625 315.851562 1132.039062 315.851562 C 1132.039062 369.652344 1132.039062 423.457031 1132.039062 477.257812 C 1132.039062 515.914062 1192.171875 516.140625 1192.171875 477.257812 C 1192.171875 413.507812 1192.171875 349.761719 1192.171875 285.785156 C 1192.171875 269.511719 1178.382812 255.71875 1162.105469 255.71875 C 1117.570312 255.71875 1073.265625 255.71875 1028.730469 255.71875 C 1012.453125 255.71875 998.664062 269.511719 998.664062 285.785156 C 998.664062 307.714844 998.664062 329.640625 998.664062 351.570312 C 998.4375 390.453125 1058.796875 390.453125 1058.796875 351.570312 Z M 1058.796875 351.570312 " fill-opacity="1" fill-rule="nonzero"/></g><g clip-path="url(#e578888f0b)"><path fill="#00f2fe" d="M 914.910156 596.851562 C 914.910156 596.394531 914.953125 595.945312 915.042969 595.5 C 915.128906 595.054688 915.261719 594.621094 915.433594 594.199219 C 915.609375 593.78125 915.824219 593.382812 916.074219 593.003906 C 916.328125 592.625 916.613281 592.277344 916.9375 591.957031 C 917.257812 591.632812 917.605469 591.347656 917.984375 591.09375 C 918.363281 590.84375 918.761719 590.628906 919.179688 590.453125 C 919.601562 590.28125 920.035156 590.148438 920.480469 590.0625 C 920.925781 589.972656 921.375 589.925781 921.832031 589.925781 C 922.285156 589.925781 922.734375 589.972656 923.179688 590.0625 C 923.625 590.148438 924.058594 590.28125 924.480469 590.453125 C 924.898438 590.628906 925.296875 590.84375 925.675781 591.09375 C 926.054688 591.347656 926.402344 591.632812 926.726562 591.957031 C 927.046875 592.277344 927.332031 592.625 927.585938 593.003906 C 927.839844 593.382812 928.050781 593.78125 928.226562 594.199219 C 928.398438 594.621094 928.53125 595.054688 928.621094 595.5 C 928.707031 595.945312 928.753906 596.394531 928.753906 596.851562 C 928.753906 597.304688 928.707031 597.753906 928.621094 598.199219 C 928.53125 598.644531 928.398438 599.078125 928.226562 599.5 C 928.050781 599.917969 927.839844 600.316406 927.585938 600.695312 C 927.332031 601.074219 927.046875 601.421875 926.726562 601.746094 C 926.402344 602.066406 926.054688 602.351562 925.675781 602.605469 C 925.296875 602.859375 924.898438 603.070312 924.480469 603.246094 C 924.058594 603.417969 923.625 603.550781 923.179688 603.640625 C 922.734375 603.726562 922.285156 603.773438 921.832031 603.773438 C 921.375 603.773438 920.925781 603.726562 920.480469 603.640625 C 920.035156 603.550781 919.601562 603.417969 919.179688 603.246094 C 918.761719 603.070312 918.363281 602.859375 917.984375 602.605469 C 917.605469 602.351562 917.257812 602.066406 916.9375 601.746094 C 916.613281 601.421875 916.328125 601.074219 916.074219 600.695312 C 915.824219 600.316406 915.609375 599.917969 915.433594 599.5 C 915.261719 599.078125 915.128906 598.644531 915.042969 598.199219 C 914.953125 597.753906 914.910156 597.304688 914.910156 596.851562 Z M 914.910156 596.851562 " fill-opacity="1" fill-rule="nonzero"/></g><g clip-path="url(#60ef25581d)"><path fill="#00f2fe" d="M 625.785156 869.964844 L 699.332031 869.964844 L 719.234375 890.734375 L 819.636719 890.734375 L 896.921875 969.78125 L 896.921875 1016.445312 L 920.839844 1037.890625 L 1034.347656 1037.890625 L 1034.347656 1041.753906 L 919.359375 1041.753906 L 893.058594 1018.175781 L 893.058594 971.359375 L 817.996094 894.59375 L 717.566406 894.59375 L 697.664062 873.828125 L 625.785156 873.828125 Z M 625.785156 869.964844 " fill-opacity="1" fill-rule="nonzero"/></g><g clip-path="url(#64b1d8f616)"><path fill="#00f2fe" d="M 777.855469 756.183594 L 827.421875 804.296875 L 827.421875 867.214844 L 922.632812 961.5625 L 922.632812 1005.691406 L 939.445312 1020.800781 L 1034.347656 1020.800781 L 1034.347656 1022.46875 L 938.828125 1022.46875 L 920.996094 1006.433594 L 920.996094 962.273438 L 825.785156 867.894531 L 825.785156 804.976562 L 776.679688 757.359375 Z M 777.855469 756.183594 " fill-opacity="1" fill-rule="nonzero"/></g><g clip-path="url(#c3e8f4ece7)"><path fill="#00f2fe" d="M 667.347656 919.535156 L 810.488281 919.535156 L 868.121094 977.136719 L 868.121094 1029.949219 L 898.808594 1062.367188 L 1034.347656 1062.367188 L 1034.347656 1064.003906 L 898.097656 1064.003906 L 866.453125 1030.628906 L 866.453125 977.847656 L 809.808594 921.203125 L 667.347656 921.203125 Z M 667.347656 919.535156 " fill-opacity="1" fill-rule="nonzero"/></g><g clip-path="url(#0ee5bfc7ed)"><path fill="#00f2fe" d="M 712.867188 984.460938 L 807.027344 984.460938 L 845.625 1021.296875 L 845.625 1039.464844 L 886.046875 1081.03125 L 884.871094 1082.203125 L 843.957031 1040.148438 L 843.957031 1022.007812 L 806.347656 986.097656 L 713.546875 986.097656 L 690.183594 1008.625 L 472.570312 1009.492188 L 472.570312 1007.824219 L 689.503906 1006.957031 Z M 712.867188 984.460938 " fill-opacity="1" fill-rule="nonzero"/></g><g clip-path="url(#644b660bf9)"><path fill="#00f2fe" d="M 737.09375 1020.800781 L 794.078125 1020.800781 L 851.433594 1081.0625 L 850.230469 1082.203125 L 793.367188 1022.46875 L 737.773438 1022.46875 L 707.492188 1052.445312 L 529.707031 1052.445312 L 529.707031 1050.808594 L 706.8125 1050.808594 Z M 737.09375 1020.800781 " fill-opacity="1" fill-rule="nonzero"/></g><g clip-path="url(#61c941e5d8)"><path fill="#00f2fe" d="M 935.707031 700.496094 L 937.375 700.496094 L 937.375 756.429688 L 984.964844 808.378906 L 984.964844 920.707031 L 947.757812 956.214844 L 947.757812 991.414062 L 956.78125 1000.035156 L 1034.347656 1000.035156 L 1034.347656 1001.703125 L 956.101562 1001.703125 L 946.089844 992.125 L 946.089844 955.503906 L 983.328125 919.996094 L 983.328125 809.027344 L 935.707031 757.078125 Z M 935.707031 700.496094 " fill-opacity="1" fill-rule="nonzero"/></g><path fill="#00f2fe" d="M 917.535156 673.671875 L 919.171875 673.671875 L 919.171875 768.542969 L 965.929688 817.894531 L 965.929688 909.492188 L 937.097656 935.695312 L 935.984375 934.460938 L 964.257812 908.75 L 964.257812 818.542969 L 917.535156 769.222656 Z M 917.535156 673.671875 " fill-opacity="1" fill-rule="nonzero"/><path fill="#00f2fe" d="M 840.15625 612.488281 L 902.734375 673.332031 L 902.734375 777.195312 L 948.621094 822.191406 L 948.621094 895.277344 L 946.953125 895.277344 L 946.953125 822.902344 L 901.09375 777.875 L 901.09375 674.011719 L 839.011719 613.660156 Z M 840.15625 612.488281 " fill-opacity="1" fill-rule="nonzero"/><path fill="#00f2fe" d="M 961.355469 609.242188 L 1015.496094 662.054688 L 1015.496094 778.308594 L 1001.835938 791.9375 L 1001.835938 913.011719 L 1000.199219 913.011719 L 1000.199219 791.257812 L 1013.828125 777.628906 L 1013.828125 662.765625 L 960.179688 610.417969 Z M 961.355469 609.242188 " fill-opacity="1" fill-rule="nonzero"/><path fill="#00f2fe" d="M 922.417969 596.261719 L 1001.21875 676.363281 L 997.941406 761.4375 L 996.304688 761.375 L 999.519531 677.011719 L 921.210938 597.4375 Z M 922.417969 596.261719 " fill-opacity="1" fill-rule="nonzero"/><path fill="#00f2fe" d="M 953.84375 609.828125 C 953.84375 609.375 953.890625 608.925781 953.976562 608.480469 C 954.066406 608.03125 954.199219 607.601562 954.371094 607.179688 C 954.546875 606.761719 954.757812 606.359375 955.011719 605.984375 C 955.265625 605.605469 955.550781 605.253906 955.871094 604.933594 C 956.195312 604.613281 956.542969 604.324219 956.921875 604.074219 C 957.300781 603.820312 957.699219 603.609375 958.117188 603.433594 C 958.539062 603.257812 958.972656 603.128906 959.417969 603.039062 C 959.863281 602.949219 960.3125 602.90625 960.769531 602.90625 C 961.222656 602.90625 961.671875 602.949219 962.117188 603.039062 C 962.5625 603.128906 962.996094 603.261719 963.417969 603.433594 C 963.835938 603.609375 964.234375 603.820312 964.613281 604.074219 C 964.992188 604.324219 965.339844 604.613281 965.664062 604.933594 C 965.984375 605.253906 966.269531 605.605469 966.523438 605.984375 C 966.777344 606.359375 966.988281 606.761719 967.164062 607.179688 C 967.335938 607.601562 967.46875 608.03125 967.558594 608.480469 C 967.644531 608.925781 967.691406 609.375 967.691406 609.828125 C 967.691406 610.285156 967.644531 610.734375 967.558594 611.179688 C 967.46875 611.625 967.335938 612.058594 967.164062 612.476562 C 966.988281 612.898438 966.777344 613.296875 966.523438 613.675781 C 966.269531 614.050781 965.984375 614.402344 965.664062 614.722656 C 965.339844 615.046875 964.992188 615.332031 964.613281 615.585938 C 964.234375 615.835938 963.835938 616.050781 963.417969 616.222656 C 962.996094 616.398438 962.5625 616.53125 962.117188 616.617188 C 961.671875 616.707031 961.222656 616.75 960.769531 616.75 C 960.3125 616.75 959.863281 616.707031 959.417969 616.617188 C 958.972656 616.53125 958.539062 616.398438 958.117188 616.222656 C 957.699219 616.050781 957.300781 615.835938 956.921875 615.585938 C 956.542969 615.332031 956.195312 615.046875 955.871094 614.722656 C 955.550781 614.402344 955.265625 614.050781 955.011719 613.675781 C 954.757812 613.296875 954.546875 612.898438 954.371094 612.476562 C 954.199219 612.058594 954.066406 611.625 953.976562 611.179688 C 953.890625 610.734375 953.84375 610.285156 953.84375 609.828125 Z M 953.84375 609.828125 " fill-opacity="1" fill-rule="nonzero"/><path fill="#00f2fe" d="M 830.945312 613.074219 C 830.945312 612.621094 830.992188 612.167969 831.078125 611.722656 C 831.167969 611.277344 831.300781 610.84375 831.472656 610.425781 C 831.648438 610.003906 831.859375 609.605469 832.113281 609.226562 C 832.367188 608.851562 832.652344 608.5 832.972656 608.179688 C 833.296875 607.859375 833.644531 607.570312 834.023438 607.316406 C 834.402344 607.066406 834.800781 606.851562 835.21875 606.679688 C 835.640625 606.503906 836.070312 606.375 836.519531 606.285156 C 836.964844 606.195312 837.414062 606.152344 837.867188 606.152344 C 838.324219 606.152344 838.773438 606.195312 839.21875 606.285156 C 839.664062 606.375 840.097656 606.503906 840.515625 606.679688 C 840.9375 606.851562 841.335938 607.066406 841.714844 607.316406 C 842.09375 607.570312 842.441406 607.859375 842.761719 608.179688 C 843.085938 608.5 843.371094 608.851562 843.625 609.226562 C 843.875 609.605469 844.089844 610.003906 844.261719 610.425781 C 844.4375 610.84375 844.570312 611.277344 844.65625 611.722656 C 844.746094 612.167969 844.789062 612.621094 844.789062 613.074219 C 844.789062 613.527344 844.746094 613.976562 844.65625 614.425781 C 844.570312 614.871094 844.4375 615.304688 844.261719 615.722656 C 844.089844 616.144531 843.875 616.542969 843.625 616.917969 C 843.371094 617.296875 843.085938 617.648438 842.761719 617.96875 C 842.441406 618.289062 842.09375 618.578125 841.714844 618.828125 C 841.335938 619.082031 840.9375 619.296875 840.515625 619.46875 C 840.097656 619.644531 839.664062 619.773438 839.21875 619.863281 C 838.773438 619.953125 838.324219 619.996094 837.867188 619.996094 C 837.414062 619.996094 836.964844 619.953125 836.519531 619.863281 C 836.070312 619.773438 835.640625 619.644531 835.21875 619.46875 C 834.800781 619.296875 834.402344 619.082031 834.023438 618.828125 C 833.644531 618.578125 833.296875 618.289062 832.972656 617.96875 C 832.652344 617.648438 832.363281 617.296875 832.113281 616.917969 C 831.859375 616.542969 831.648438 616.144531 831.472656 615.722656 C 831.300781 615.304688 831.167969 614.871094 831.078125 614.425781 C 830.992188 613.976562 830.945312 613.527344 830.945312 613.074219 Z M 830.945312 613.074219 " fill-opacity="1" fill-rule="nonzero"/><path fill="#00f2fe" d="M 801.0625 644.253906 C 801.0625 643.800781 801.109375 643.351562 801.195312 642.902344 C 801.285156 642.457031 801.417969 642.023438 801.589844 641.605469 C 801.765625 641.183594 801.976562 640.785156 802.230469 640.410156 C 802.484375 640.03125 802.769531 639.679688 803.089844 639.359375 C 803.414062 639.039062 803.761719 638.75 804.140625 638.5 C 804.519531 638.246094 804.917969 638.03125 805.335938 637.859375 C 805.757812 637.683594 806.1875 637.554688 806.636719 637.464844 C 807.082031 637.375 807.53125 637.332031 807.984375 637.332031 C 808.441406 637.332031 808.890625 637.375 809.335938 637.464844 C 809.78125 637.554688 810.214844 637.683594 810.632812 637.859375 C 811.054688 638.03125 811.453125 638.246094 811.832031 638.5 C 812.210938 638.75 812.558594 639.039062 812.878906 639.359375 C 813.203125 639.679688 813.488281 640.03125 813.742188 640.410156 C 813.992188 640.785156 814.207031 641.183594 814.378906 641.605469 C 814.554688 642.023438 814.6875 642.457031 814.773438 642.902344 C 814.863281 643.351562 814.90625 643.800781 814.90625 644.253906 C 814.90625 644.707031 814.863281 645.160156 814.773438 645.605469 C 814.6875 646.050781 814.554688 646.484375 814.378906 646.902344 C 814.207031 647.324219 813.992188 647.722656 813.742188 648.101562 C 813.488281 648.476562 813.203125 648.828125 812.878906 649.148438 C 812.558594 649.46875 812.210938 649.757812 811.832031 650.011719 C 811.453125 650.261719 811.054688 650.476562 810.632812 650.648438 C 810.214844 650.824219 809.78125 650.953125 809.335938 651.042969 C 808.890625 651.132812 808.441406 651.175781 807.984375 651.175781 C 807.53125 651.175781 807.082031 651.132812 806.636719 651.042969 C 806.1875 650.953125 805.757812 650.824219 805.335938 650.648438 C 804.917969 650.476562 804.519531 650.261719 804.140625 650.011719 C 803.761719 649.757812 803.414062 649.46875 803.089844 649.148438 C 802.769531 648.828125 802.484375 648.476562 802.230469 648.101562 C 801.976562 647.722656 801.765625 647.324219 801.589844 646.902344 C 801.417969 646.484375 801.285156 646.050781 801.195312 645.605469 C 801.109375 645.160156 801.0625 644.707031 801.0625 644.253906 Z M 801.0625 644.253906 " fill-opacity="1" fill-rule="nonzero"/><path fill="#00f2fe" d="M 911.445312 673.671875 C 911.445312 673.21875 911.492188 672.769531 911.582031 672.324219 C 911.667969 671.878906 911.800781 671.445312 911.972656 671.023438 C 912.148438 670.605469 912.359375 670.207031 912.613281 669.828125 C 912.867188 669.449219 913.152344 669.101562 913.476562 668.777344 C 913.796875 668.457031 914.144531 668.171875 914.523438 667.917969 C 914.902344 667.664062 915.300781 667.453125 915.71875 667.277344 C 916.140625 667.105469 916.574219 666.972656 917.019531 666.882812 C 917.464844 666.796875 917.914062 666.75 918.371094 666.75 C 918.824219 666.75 919.273438 666.796875 919.71875 666.882812 C 920.164062 666.972656 920.597656 667.105469 921.019531 667.277344 C 921.4375 667.453125 921.835938 667.664062 922.214844 667.917969 C 922.59375 668.171875 922.941406 668.457031 923.265625 668.777344 C 923.585938 669.101562 923.871094 669.449219 924.125 669.828125 C 924.378906 670.207031 924.589844 670.605469 924.765625 671.023438 C 924.9375 671.445312 925.070312 671.878906 925.160156 672.324219 C 925.246094 672.769531 925.292969 673.21875 925.292969 673.671875 C 925.292969 674.128906 925.246094 674.578125 925.160156 675.023438 C 925.070312 675.46875 924.9375 675.902344 924.765625 676.324219 C 924.589844 676.742188 924.378906 677.140625 924.125 677.519531 C 923.871094 677.898438 923.585938 678.246094 923.265625 678.566406 C 922.941406 678.890625 922.59375 679.175781 922.214844 679.429688 C 921.835938 679.683594 921.4375 679.894531 921.019531 680.070312 C 920.597656 680.242188 920.164062 680.375 919.71875 680.460938 C 919.273438 680.550781 918.824219 680.59375 918.371094 680.59375 C 917.914062 680.59375 917.464844 680.550781 917.019531 680.460938 C 916.574219 680.375 916.140625 680.242188 915.71875 680.070312 C 915.300781 679.894531 914.902344 679.683594 914.523438 679.429688 C 914.144531 679.175781 913.796875 678.890625 913.476562 678.566406 C 913.152344 678.246094 912.867188 677.898438 912.613281 677.519531 C 912.359375 677.140625 912.148438 676.742188 911.972656 676.324219 C 911.800781 675.902344 911.667969 675.46875 911.582031 675.023438 C 911.492188 674.578125 911.445312 674.128906 911.445312 673.671875 Z M 911.445312 673.671875 " fill-opacity="1" fill-rule="nonzero"/><path fill="#00f2fe" d="M 929.617188 700.496094 C 929.617188 700.042969 929.664062 699.59375 929.75 699.148438 C 929.839844 698.699219 929.972656 698.269531 930.144531 697.847656 C 930.320312 697.429688 930.53125 697.027344 930.785156 696.652344 C 931.035156 696.273438 931.324219 695.921875 931.644531 695.601562 C 931.964844 695.28125 932.316406 694.992188 932.695312 694.742188 C 933.070312 694.488281 933.472656 694.277344 933.890625 694.101562 C 934.3125 693.929688 934.742188 693.796875 935.191406 693.707031 C 935.636719 693.617188 936.085938 693.574219 936.539062 693.574219 C 936.996094 693.574219 937.445312 693.617188 937.890625 693.707031 C 938.335938 693.796875 938.769531 693.929688 939.1875 694.101562 C 939.609375 694.277344 940.007812 694.488281 940.386719 694.742188 C 940.765625 694.992188 941.113281 695.28125 941.433594 695.601562 C 941.757812 695.921875 942.042969 696.273438 942.296875 696.652344 C 942.546875 697.027344 942.761719 697.429688 942.933594 697.847656 C 943.109375 698.269531 943.242188 698.699219 943.328125 699.148438 C 943.417969 699.59375 943.460938 700.042969 943.460938 700.496094 C 943.460938 700.953125 943.417969 701.402344 943.328125 701.847656 C 943.242188 702.292969 943.109375 702.726562 942.933594 703.144531 C 942.761719 703.566406 942.546875 703.964844 942.296875 704.34375 C 942.042969 704.71875 941.757812 705.070312 941.433594 705.390625 C 941.113281 705.714844 940.765625 706 940.386719 706.253906 C 940.007812 706.503906 939.609375 706.71875 939.1875 706.890625 C 938.769531 707.066406 938.335938 707.199219 937.890625 707.285156 C 937.445312 707.375 936.996094 707.417969 936.539062 707.417969 C 936.085938 707.417969 935.636719 707.375 935.191406 707.285156 C 934.742188 707.199219 934.3125 707.066406 933.890625 706.890625 C 933.472656 706.71875 933.070312 706.503906 932.695312 706.253906 C 932.316406 706 931.964844 705.714844 931.644531 705.390625 C 931.324219 705.070312 931.035156 704.71875 930.785156 704.34375 C 930.53125 703.964844 930.320312 703.566406 930.144531 703.144531 C 929.972656 702.726562 929.839844 702.292969 929.75 701.847656 C 929.664062 701.402344 929.617188 700.953125 929.617188 700.496094 Z M 929.617188 700.496094 " fill-opacity="1" fill-rule="nonzero"/><path fill="#00f2fe" d="M 940.867188 895.277344 C 940.867188 894.820312 940.910156 894.371094 941 893.925781 C 941.089844 893.480469 941.21875 893.046875 941.394531 892.625 C 941.566406 892.207031 941.78125 891.808594 942.03125 891.429688 C 942.285156 891.050781 942.574219 890.703125 942.894531 890.378906 C 943.214844 890.058594 943.566406 889.773438 943.941406 889.519531 C 944.320312 889.265625 944.71875 889.054688 945.140625 888.878906 C 945.558594 888.707031 945.992188 888.574219 946.4375 888.488281 C 946.882812 888.398438 947.335938 888.351562 947.789062 888.351562 C 948.242188 888.351562 948.691406 888.398438 949.140625 888.488281 C 949.585938 888.574219 950.019531 888.707031 950.4375 888.878906 C 950.859375 889.054688 951.257812 889.265625 951.632812 889.519531 C 952.011719 889.773438 952.363281 890.058594 952.683594 890.378906 C 953.003906 890.703125 953.292969 891.050781 953.542969 891.429688 C 953.796875 891.808594 954.011719 892.207031 954.183594 892.625 C 954.359375 893.046875 954.488281 893.480469 954.578125 893.925781 C 954.667969 894.371094 954.710938 894.820312 954.710938 895.277344 C 954.710938 895.730469 954.667969 896.179688 954.578125 896.625 C 954.488281 897.070312 954.359375 897.503906 954.183594 897.925781 C 954.011719 898.34375 953.796875 898.742188 953.542969 899.121094 C 953.292969 899.5 953.003906 899.847656 952.683594 900.171875 C 952.363281 900.492188 952.011719 900.777344 951.632812 901.03125 C 951.257812 901.285156 950.859375 901.496094 950.4375 901.671875 C 950.019531 901.84375 949.585938 901.976562 949.140625 902.066406 C 948.691406 902.152344 948.242188 902.199219 947.789062 902.199219 C 947.335938 902.199219 946.882812 902.152344 946.4375 902.066406 C 945.992188 901.976562 945.558594 901.84375 945.140625 901.671875 C 944.71875 901.496094 944.320312 901.285156 943.941406 901.03125 C 943.566406 900.777344 943.214844 900.492188 942.894531 900.171875 C 942.574219 899.847656 942.285156 899.5 942.03125 899.121094 C 941.78125 898.742188 941.566406 898.34375 941.394531 897.925781 C 941.21875 897.503906 941.089844 897.070312 941 896.625 C 940.910156 896.179688 940.867188 895.730469 940.867188 895.277344 Z M 940.867188 895.277344 " fill-opacity="1" fill-rule="nonzero"/><path fill="#00f2fe" d="M 886.757812 883.128906 C 886.757812 882.675781 886.800781 882.226562 886.890625 881.78125 C 886.976562 881.335938 887.109375 880.902344 887.28125 880.480469 C 887.457031 880.0625 887.671875 879.664062 887.921875 879.285156 C 888.175781 878.90625 888.460938 878.558594 888.785156 878.234375 C 889.105469 877.914062 889.453125 877.628906 889.832031 877.375 C 890.210938 877.121094 890.609375 876.910156 891.027344 876.734375 C 891.449219 876.5625 891.882812 876.429688 892.328125 876.339844 C 892.773438 876.253906 893.222656 876.207031 893.679688 876.207031 C 894.132812 876.207031 894.582031 876.253906 895.027344 876.339844 C 895.472656 876.429688 895.90625 876.5625 896.328125 876.734375 C 896.746094 876.910156 897.144531 877.121094 897.523438 877.375 C 897.902344 877.628906 898.25 877.914062 898.574219 878.234375 C 898.894531 878.558594 899.179688 878.90625 899.433594 879.285156 C 899.6875 879.664062 899.898438 880.0625 900.074219 880.480469 C 900.246094 880.902344 900.378906 881.335938 900.46875 881.78125 C 900.554688 882.226562 900.601562 882.675781 900.601562 883.128906 C 900.601562 883.585938 900.554688 884.035156 900.46875 884.480469 C 900.378906 884.925781 900.246094 885.359375 900.074219 885.78125 C 899.898438 886.199219 899.6875 886.597656 899.433594 886.976562 C 899.179688 887.355469 898.894531 887.703125 898.574219 888.027344 C 898.25 888.347656 897.902344 888.632812 897.523438 888.886719 C 897.144531 889.140625 896.746094 889.351562 896.328125 889.527344 C 895.90625 889.699219 895.472656 889.832031 895.027344 889.921875 C 894.582031 890.007812 894.132812 890.054688 893.679688 890.054688 C 893.222656 890.054688 892.773438 890.007812 892.328125 889.921875 C 891.882812 889.832031 891.449219 889.699219 891.027344 889.527344 C 890.609375 889.351562 890.210938 889.140625 889.832031 888.886719 C 889.453125 888.632812 889.105469 888.347656 888.785156 888.027344 C 888.460938 887.703125 888.175781 887.355469 887.921875 886.976562 C 887.671875 886.597656 887.457031 886.199219 887.28125 885.78125 C 887.109375 885.359375 886.976562 884.925781 886.890625 884.480469 C 886.800781 884.035156 886.757812 883.585938 886.757812 883.128906 Z M 886.757812 883.128906 " fill-opacity="1" fill-rule="nonzero"/><path fill="#00f2fe" d="M 929.617188 935.078125 C 929.617188 934.625 929.664062 934.171875 929.75 933.726562 C 929.839844 933.28125 929.972656 932.847656 930.144531 932.429688 C 930.320312 932.007812 930.53125 931.609375 930.785156 931.230469 C 931.035156 930.855469 931.324219 930.503906 931.644531 930.183594 C 931.964844 929.863281 932.316406 929.574219 932.695312 929.324219 C 933.070312 929.070312 933.472656 928.855469 933.890625 928.683594 C 934.3125 928.507812 934.742188 928.378906 935.191406 928.289062 C 935.636719 928.199219 936.085938 928.15625 936.539062 928.15625 C 936.996094 928.15625 937.445312 928.199219 937.890625 928.289062 C 938.335938 928.378906 938.769531 928.507812 939.1875 928.683594 C 939.609375 928.855469 940.007812 929.070312 940.386719 929.324219 C 940.765625 929.574219 941.113281 929.863281 941.433594 930.183594 C 941.757812 930.503906 942.042969 930.855469 942.296875 931.230469 C 942.546875 931.609375 942.761719 932.007812 942.933594 932.429688 C 943.109375 932.847656 943.242188 933.28125 943.328125 933.726562 C 943.417969 934.171875 943.460938 934.625 943.460938 935.078125 C 943.460938 935.53125 943.417969 935.984375 943.328125 936.429688 C 943.242188 936.875 943.109375 937.308594 942.933594 937.726562 C 942.761719 938.148438 942.546875 938.546875 942.296875 938.921875 C 942.042969 939.300781 941.757812 939.652344 941.433594 939.972656 C 941.113281 940.292969 940.765625 940.582031 940.386719 940.832031 C 940.007812 941.085938 939.609375 941.300781 939.1875 941.472656 C 938.769531 941.648438 938.335938 941.777344 937.890625 941.867188 C 937.445312 941.957031 936.996094 942 936.539062 942 C 936.085938 942 935.636719 941.957031 935.191406 941.867188 C 934.742188 941.777344 934.3125 941.648438 933.890625 941.472656 C 933.472656 941.300781 933.070312 941.085938 932.695312 940.832031 C 932.316406 940.582031 931.964844 940.292969 931.644531 939.972656 C 931.324219 939.652344 931.035156 939.300781 930.785156 938.921875 C 930.53125 938.546875 930.320312 938.148438 930.144531 937.726562 C 929.972656 937.308594 929.839844 936.875 929.75 936.429688 C 929.664062 935.984375 929.617188 935.53125 929.617188 935.078125 Z M 929.617188 935.078125 " fill-opacity="1" fill-rule="nonzero"/><path fill="#00f2fe" d="M 770.347656 756.769531 C 770.347656 756.316406 770.390625 755.867188 770.480469 755.421875 C 770.566406 754.972656 770.699219 754.542969 770.875 754.121094 C 771.046875 753.703125 771.261719 753.300781 771.511719 752.925781 C 771.765625 752.546875 772.050781 752.195312 772.375 751.875 C 772.695312 751.554688 773.042969 751.265625 773.421875 751.015625 C 773.800781 750.761719 774.199219 750.550781 774.621094 750.375 C 775.039062 750.203125 775.472656 750.070312 775.917969 749.980469 C 776.363281 749.894531 776.8125 749.847656 777.269531 749.847656 C 777.722656 749.847656 778.171875 749.894531 778.617188 749.980469 C 779.066406 750.070312 779.496094 750.203125 779.917969 750.375 C 780.335938 750.550781 780.734375 750.761719 781.113281 751.015625 C 781.492188 751.265625 781.839844 751.554688 782.164062 751.875 C 782.484375 752.195312 782.769531 752.546875 783.023438 752.925781 C 783.277344 753.300781 783.488281 753.703125 783.664062 754.121094 C 783.835938 754.542969 783.96875 754.972656 784.058594 755.421875 C 784.144531 755.867188 784.191406 756.316406 784.191406 756.769531 C 784.191406 757.226562 784.144531 757.675781 784.058594 758.121094 C 783.96875 758.566406 783.835938 759 783.664062 759.417969 C 783.488281 759.839844 783.277344 760.238281 783.023438 760.617188 C 782.769531 760.992188 782.484375 761.34375 782.164062 761.664062 C 781.839844 761.988281 781.492188 762.273438 781.113281 762.527344 C 780.734375 762.777344 780.335938 762.992188 779.917969 763.164062 C 779.496094 763.339844 779.066406 763.472656 778.617188 763.558594 C 778.171875 763.648438 777.722656 763.691406 777.269531 763.691406 C 776.8125 763.691406 776.363281 763.648438 775.917969 763.558594 C 775.472656 763.472656 775.039062 763.339844 774.621094 763.164062 C 774.199219 762.992188 773.800781 762.777344 773.421875 762.527344 C 773.042969 762.273438 772.695312 761.988281 772.375 761.664062 C 772.050781 761.34375 771.765625 760.992188 771.511719 760.617188 C 771.261719 760.238281 771.046875 759.839844 770.875 759.417969 C 770.699219 759 770.566406 758.566406 770.480469 758.121094 C 770.390625 757.675781 770.347656 757.226562 770.347656 756.769531 Z M 770.347656 756.769531 " fill-opacity="1" fill-rule="nonzero"/><path fill="#00f2fe" d="M 618.863281 871.882812 C 618.863281 871.429688 618.90625 870.976562 618.996094 870.53125 C 619.082031 870.085938 619.214844 869.652344 619.390625 869.234375 C 619.5625 868.8125 619.777344 868.414062 620.027344 868.035156 C 620.28125 867.660156 620.566406 867.308594 620.890625 866.988281 C 621.210938 866.667969 621.5625 866.378906 621.9375 866.125 C 622.316406 865.875 622.714844 865.660156 623.136719 865.488281 C 623.554688 865.3125 623.988281 865.183594 624.433594 865.09375 C 624.878906 865.003906 625.328125 864.960938 625.785156 864.960938 C 626.238281 864.960938 626.6875 865.003906 627.132812 865.09375 C 627.582031 865.183594 628.011719 865.3125 628.433594 865.488281 C 628.851562 865.660156 629.253906 865.875 629.628906 866.125 C 630.007812 866.378906 630.359375 866.667969 630.679688 866.988281 C 631 867.308594 631.289062 867.660156 631.539062 868.035156 C 631.792969 868.414062 632.003906 868.8125 632.179688 869.234375 C 632.351562 869.652344 632.484375 870.085938 632.574219 870.53125 C 632.664062 870.976562 632.707031 871.429688 632.707031 871.882812 C 632.707031 872.335938 632.664062 872.785156 632.574219 873.234375 C 632.484375 873.679688 632.351562 874.113281 632.179688 874.53125 C 632.003906 874.953125 631.792969 875.351562 631.539062 875.726562 C 631.289062 876.105469 631 876.457031 630.679688 876.777344 C 630.359375 877.097656 630.007812 877.386719 629.628906 877.636719 C 629.253906 877.890625 628.851562 878.105469 628.433594 878.277344 C 628.011719 878.453125 627.582031 878.582031 627.132812 878.671875 C 626.6875 878.761719 626.238281 878.804688 625.785156 878.804688 C 625.328125 878.804688 624.878906 878.761719 624.433594 878.671875 C 623.988281 878.582031 623.554688 878.453125 623.136719 878.277344 C 622.714844 878.105469 622.316406 877.890625 621.9375 877.636719 C 621.5625 877.386719 621.210938 877.097656 620.890625 876.777344 C 620.566406 876.457031 620.28125 876.105469 620.027344 875.726562 C 619.777344 875.351562 619.5625 874.953125 619.390625 874.53125 C 619.214844 874.113281 619.082031 873.679688 618.996094 873.234375 C 618.90625 872.785156 618.863281 872.335938 618.863281 871.882812 Z M 618.863281 871.882812 " fill-opacity="1" fill-rule="nonzero"/><path fill="#00f2fe" d="M 660.425781 920.367188 C 660.425781 919.914062 660.46875 919.464844 660.558594 919.019531 C 660.648438 918.570312 660.777344 918.140625 660.953125 917.71875 C 661.125 917.300781 661.339844 916.902344 661.59375 916.523438 C 661.84375 916.144531 662.132812 915.796875 662.453125 915.472656 C 662.773438 915.152344 663.125 914.867188 663.503906 914.613281 C 663.878906 914.359375 664.277344 914.148438 664.699219 913.972656 C 665.117188 913.800781 665.550781 913.667969 665.996094 913.578125 C 666.445312 913.492188 666.894531 913.445312 667.347656 913.445312 C 667.800781 913.445312 668.253906 913.492188 668.699219 913.578125 C 669.144531 913.667969 669.578125 913.800781 669.996094 913.972656 C 670.417969 914.148438 670.816406 914.359375 671.195312 914.613281 C 671.570312 914.867188 671.921875 915.152344 672.242188 915.472656 C 672.5625 915.796875 672.851562 916.144531 673.105469 916.523438 C 673.355469 916.902344 673.570312 917.300781 673.742188 917.71875 C 673.917969 918.140625 674.046875 918.570312 674.136719 919.019531 C 674.226562 919.464844 674.269531 919.914062 674.269531 920.367188 C 674.269531 920.824219 674.226562 921.273438 674.136719 921.71875 C 674.046875 922.164062 673.917969 922.597656 673.742188 923.015625 C 673.570312 923.4375 673.355469 923.835938 673.105469 924.214844 C 672.851562 924.59375 672.5625 924.941406 672.242188 925.261719 C 671.921875 925.585938 671.570312 925.871094 671.195312 926.125 C 670.816406 926.375 670.417969 926.589844 669.996094 926.761719 C 669.578125 926.9375 669.144531 927.070312 668.699219 927.15625 C 668.253906 927.246094 667.800781 927.289062 667.347656 927.289062 C 666.894531 927.289062 666.445312 927.246094 665.996094 927.15625 C 665.550781 927.070312 665.117188 926.9375 664.699219 926.765625 C 664.28125 926.589844 663.878906 926.375 663.503906 926.125 C 663.125 925.871094 662.773438 925.585938 662.453125 925.261719 C 662.132812 924.941406 661.84375 924.59375 661.59375 924.214844 C 661.339844 923.835938 661.125 923.4375 660.953125 923.015625 C 660.777344 922.597656 660.648438 922.164062 660.558594 921.71875 C 660.46875 921.273438 660.425781 920.824219 660.425781 920.367188 Z M 660.425781 920.367188 " fill-opacity="1" fill-rule="nonzero"/><path fill="#00f2fe" d="M 843.925781 991.785156 C 843.925781 991.328125 843.96875 990.878906 844.058594 990.433594 C 844.148438 989.988281 844.277344 989.554688 844.453125 989.136719 C 844.625 988.714844 844.839844 988.316406 845.089844 987.9375 C 845.34375 987.558594 845.632812 987.210938 845.953125 986.890625 C 846.273438 986.566406 846.625 986.28125 847 986.027344 C 847.378906 985.777344 847.777344 985.5625 848.199219 985.390625 C 848.617188 985.214844 849.050781 985.082031 849.496094 984.996094 C 849.941406 984.90625 850.394531 984.863281 850.847656 984.863281 C 851.300781 984.863281 851.753906 984.90625 852.199219 984.996094 C 852.644531 985.082031 853.078125 985.214844 853.496094 985.390625 C 853.917969 985.5625 854.316406 985.777344 854.691406 986.027344 C 855.070312 986.28125 855.421875 986.566406 855.742188 986.890625 C 856.0625 987.210938 856.351562 987.558594 856.601562 987.9375 C 856.855469 988.316406 857.070312 988.714844 857.242188 989.136719 C 857.417969 989.554688 857.546875 989.988281 857.636719 990.433594 C 857.726562 990.878906 857.769531 991.328125 857.769531 991.785156 C 857.769531 992.238281 857.726562 992.6875 857.636719 993.132812 C 857.546875 993.582031 857.417969 994.011719 857.242188 994.433594 C 857.070312 994.851562 856.855469 995.253906 856.601562 995.628906 C 856.351562 996.007812 856.0625 996.359375 855.742188 996.679688 C 855.421875 997 855.070312 997.289062 854.691406 997.539062 C 854.316406 997.792969 853.917969 998.003906 853.496094 998.179688 C 853.078125 998.351562 852.644531 998.484375 852.199219 998.574219 C 851.753906 998.660156 851.300781 998.707031 850.847656 998.707031 C 850.394531 998.707031 849.941406 998.660156 849.496094 998.574219 C 849.050781 998.484375 848.617188 998.351562 848.199219 998.179688 C 847.777344 998.003906 847.378906 997.792969 847 997.539062 C 846.625 997.289062 846.273438 997 845.953125 996.679688 C 845.632812 996.359375 845.34375 996.007812 845.089844 995.628906 C 844.839844 995.253906 844.625 994.851562 844.453125 994.433594 C 844.277344 994.011719 844.148438 993.582031 844.058594 993.132812 C 843.96875 992.6875 843.925781 992.238281 843.925781 991.785156 Z M 843.925781 991.785156 " fill-opacity="1" fill-rule="nonzero"/><g clip-path="url(#408aac066c)"><path fill="#00f2fe" d="M 465.648438 1008.65625 C 465.648438 1008.203125 465.691406 1007.753906 465.78125 1007.304688 C 465.867188 1006.859375 466 1006.429688 466.175781 1006.007812 C 466.347656 1005.589844 466.5625 1005.1875 466.8125 1004.8125 C 467.066406 1004.433594 467.351562 1004.082031 467.675781 1003.761719 C 467.996094 1003.441406 468.347656 1003.152344 468.722656 1002.902344 C 469.101562 1002.648438 469.5 1002.4375 469.921875 1002.261719 C 470.339844 1002.085938 470.773438 1001.957031 471.21875 1001.867188 C 471.664062 1001.777344 472.113281 1001.734375 472.570312 1001.734375 C 473.023438 1001.734375 473.472656 1001.777344 473.921875 1001.867188 C 474.367188 1001.957031 474.796875 1002.085938 475.21875 1002.261719 C 475.636719 1002.4375 476.039062 1002.648438 476.414062 1002.902344 C 476.792969 1003.152344 477.144531 1003.441406 477.464844 1003.761719 C 477.785156 1004.082031 478.074219 1004.433594 478.324219 1004.8125 C 478.578125 1005.1875 478.789062 1005.589844 478.964844 1006.007812 C 479.140625 1006.429688 479.269531 1006.859375 479.359375 1007.304688 C 479.449219 1007.753906 479.492188 1008.203125 479.492188 1008.65625 C 479.492188 1009.113281 479.449219 1009.5625 479.359375 1010.007812 C 479.269531 1010.453125 479.140625 1010.886719 478.964844 1011.304688 C 478.789062 1011.726562 478.578125 1012.125 478.324219 1012.503906 C 478.074219 1012.878906 477.785156 1013.230469 477.464844 1013.550781 C 477.144531 1013.871094 476.792969 1014.160156 476.414062 1014.414062 C 476.039062 1014.664062 475.636719 1014.878906 475.21875 1015.050781 C 474.796875 1015.226562 474.367188 1015.355469 473.921875 1015.445312 C 473.472656 1015.535156 473.023438 1015.578125 472.570312 1015.578125 C 472.113281 1015.578125 471.664062 1015.535156 471.21875 1015.445312 C 470.773438 1015.355469 470.339844 1015.226562 469.921875 1015.050781 C 469.5 1014.878906 469.101562 1014.664062 468.722656 1014.414062 C 468.347656 1014.160156 467.996094 1013.871094 467.675781 1013.550781 C 467.351562 1013.230469 467.066406 1012.878906 466.8125 1012.503906 C 466.5625 1012.125 466.347656 1011.726562 466.175781 1011.304688 C 466 1010.886719 465.867188 1010.453125 465.78125 1010.007812 C 465.691406 1009.5625 465.648438 1009.113281 465.648438 1008.65625 Z M 465.648438 1008.65625 " fill-opacity="1" fill-rule="nonzero"/></g><path fill="#00f2fe" d="M 487.710938 935.078125 C 487.710938 934.625 487.757812 934.171875 487.84375 933.726562 C 487.933594 933.28125 488.066406 932.847656 488.238281 932.429688 C 488.414062 932.007812 488.625 931.609375 488.878906 931.230469 C 489.132812 930.855469 489.417969 930.503906 489.738281 930.183594 C 490.0625 929.863281 490.410156 929.574219 490.789062 929.324219 C 491.167969 929.070312 491.566406 928.855469 491.984375 928.683594 C 492.40625 928.507812 492.835938 928.378906 493.285156 928.289062 C 493.730469 928.199219 494.179688 928.15625 494.632812 928.15625 C 495.089844 928.15625 495.539062 928.199219 495.984375 928.289062 C 496.429688 928.378906 496.863281 928.507812 497.28125 928.683594 C 497.703125 928.855469 498.101562 929.070312 498.480469 929.324219 C 498.859375 929.574219 499.207031 929.863281 499.527344 930.183594 C 499.851562 930.503906 500.136719 930.855469 500.390625 931.230469 C 500.640625 931.609375 500.855469 932.007812 501.027344 932.429688 C 501.203125 932.847656 501.335938 933.28125 501.421875 933.726562 C 501.511719 934.171875 501.554688 934.625 501.554688 935.078125 C 501.554688 935.53125 501.511719 935.984375 501.421875 936.429688 C 501.335938 936.875 501.203125 937.308594 501.027344 937.726562 C 500.855469 938.148438 500.640625 938.546875 500.390625 938.921875 C 500.136719 939.300781 499.851562 939.652344 499.527344 939.972656 C 499.207031 940.292969 498.859375 940.582031 498.480469 940.832031 C 498.101562 941.085938 497.703125 941.300781 497.28125 941.472656 C 496.863281 941.648438 496.429688 941.777344 495.984375 941.867188 C 495.539062 941.957031 495.089844 942 494.632812 942 C 494.179688 942 493.730469 941.957031 493.285156 941.867188 C 492.835938 941.777344 492.40625 941.648438 491.984375 941.472656 C 491.566406 941.300781 491.167969 941.085938 490.789062 940.832031 C 490.410156 940.582031 490.0625 940.292969 489.738281 939.972656 C 489.417969 939.652344 489.132812 939.300781 488.878906 938.921875 C 488.625 938.546875 488.414062 938.148438 488.238281 937.726562 C 488.066406 937.308594 487.933594 936.875 487.84375 936.429688 C 487.757812 935.984375 487.710938 935.53125 487.710938 935.078125 Z M 487.710938 935.078125 " fill-opacity="1" fill-rule="nonzero"/><path fill="#00f2fe" d="M 522.785156 1051.640625 C 522.785156 1051.1875 522.832031 1050.738281 522.917969 1050.292969 C 523.007812 1049.847656 523.140625 1049.414062 523.3125 1048.992188 C 523.488281 1048.574219 523.699219 1048.175781 523.953125 1047.796875 C 524.207031 1047.417969 524.492188 1047.070312 524.8125 1046.746094 C 525.136719 1046.425781 525.484375 1046.140625 525.863281 1045.886719 C 526.242188 1045.632812 526.640625 1045.421875 527.058594 1045.246094 C 527.480469 1045.074219 527.914062 1044.941406 528.359375 1044.851562 C 528.804688 1044.765625 529.253906 1044.71875 529.707031 1044.71875 C 530.164062 1044.71875 530.613281 1044.765625 531.058594 1044.851562 C 531.503906 1044.941406 531.9375 1045.074219 532.355469 1045.246094 C 532.777344 1045.421875 533.175781 1045.632812 533.554688 1045.886719 C 533.933594 1046.140625 534.28125 1046.425781 534.601562 1046.746094 C 534.925781 1047.070312 535.210938 1047.417969 535.464844 1047.796875 C 535.714844 1048.175781 535.929688 1048.574219 536.105469 1048.992188 C 536.277344 1049.414062 536.410156 1049.847656 536.496094 1050.292969 C 536.585938 1050.738281 536.628906 1051.1875 536.628906 1051.640625 C 536.628906 1052.097656 536.585938 1052.546875 536.496094 1052.992188 C 536.410156 1053.4375 536.277344 1053.871094 536.105469 1054.292969 C 535.929688 1054.710938 535.714844 1055.109375 535.464844 1055.488281 C 535.210938 1055.867188 534.925781 1056.214844 534.601562 1056.535156 C 534.28125 1056.859375 533.933594 1057.144531 533.554688 1057.398438 C 533.175781 1057.652344 532.777344 1057.863281 532.355469 1058.039062 C 531.9375 1058.210938 531.503906 1058.34375 531.058594 1058.429688 C 530.613281 1058.519531 530.164062 1058.566406 529.707031 1058.566406 C 529.253906 1058.566406 528.804688 1058.519531 528.359375 1058.429688 C 527.914062 1058.34375 527.480469 1058.210938 527.058594 1058.039062 C 526.640625 1057.863281 526.242188 1057.652344 525.863281 1057.398438 C 525.484375 1057.144531 525.136719 1056.859375 524.8125 1056.535156 C 524.492188 1056.214844 524.207031 1055.867188 523.953125 1055.488281 C 523.699219 1055.109375 523.488281 1054.710938 523.3125 1054.292969 C 523.140625 1053.871094 523.007812 1053.4375 522.917969 1052.992188 C 522.832031 1052.546875 522.785156 1052.097656 522.785156 1051.640625 Z M 522.785156 1051.640625 " fill-opacity="1" fill-rule="nonzero"/><path fill="#00f2fe" d="M 990.433594 756.769531 C 990.433594 756.316406 990.476562 755.867188 990.566406 755.421875 C 990.65625 754.972656 990.785156 754.542969 990.960938 754.121094 C 991.136719 753.703125 991.347656 753.300781 991.601562 752.925781 C 991.851562 752.546875 992.140625 752.195312 992.460938 751.875 C 992.78125 751.554688 993.132812 751.265625 993.511719 751.015625 C 993.886719 750.761719 994.289062 750.550781 994.707031 750.375 C 995.128906 750.203125 995.558594 750.070312 996.003906 749.980469 C 996.453125 749.894531 996.902344 749.847656 997.355469 749.847656 C 997.8125 749.847656 998.261719 749.894531 998.707031 749.980469 C 999.152344 750.070312 999.585938 750.203125 1000.003906 750.375 C 1000.425781 750.550781 1000.824219 750.761719 1001.203125 751.015625 C 1001.578125 751.265625 1001.929688 751.554688 1002.25 751.875 C 1002.574219 752.195312 1002.859375 752.546875 1003.113281 752.925781 C 1003.363281 753.300781 1003.578125 753.703125 1003.75 754.121094 C 1003.925781 754.542969 1004.058594 754.972656 1004.144531 755.421875 C 1004.234375 755.867188 1004.277344 756.316406 1004.277344 756.769531 C 1004.277344 757.226562 1004.234375 757.675781 1004.144531 758.121094 C 1004.058594 758.566406 1003.925781 759 1003.75 759.417969 C 1003.578125 759.839844 1003.363281 760.238281 1003.113281 760.617188 C 1002.859375 760.992188 1002.574219 761.34375 1002.25 761.664062 C 1001.929688 761.988281 1001.578125 762.273438 1001.203125 762.527344 C 1000.824219 762.777344 1000.425781 762.992188 1000.003906 763.164062 C 999.585938 763.339844 999.152344 763.472656 998.707031 763.558594 C 998.261719 763.648438 997.8125 763.691406 997.355469 763.691406 C 996.902344 763.691406 996.453125 763.648438 996.003906 763.558594 C 995.558594 763.472656 995.128906 763.339844 994.707031 763.164062 C 994.289062 762.992188 993.886719 762.777344 993.511719 762.527344 C 993.132812 762.273438 992.78125 761.988281 992.460938 761.664062 C 992.140625 761.34375 991.851562 760.992188 991.601562 760.617188 C 991.347656 760.238281 991.136719 759.839844 990.960938 759.417969 C 990.785156 759 990.65625 758.566406 990.566406 758.121094 C 990.476562 757.675781 990.433594 757.226562 990.433594 756.769531 Z M 990.433594 756.769531 " fill-opacity="1" fill-rule="nonzero"/><path fill="#00f2fe" d="M 993.460938 913.011719 C 993.460938 912.558594 993.507812 912.109375 993.59375 911.664062 C 993.683594 911.21875 993.816406 910.785156 993.988281 910.363281 C 994.164062 909.945312 994.375 909.546875 994.628906 909.167969 C 994.882812 908.789062 995.167969 908.441406 995.488281 908.117188 C 995.8125 907.796875 996.160156 907.511719 996.539062 907.257812 C 996.917969 907.003906 997.316406 906.792969 997.734375 906.617188 C 998.15625 906.445312 998.589844 906.3125 999.035156 906.222656 C 999.480469 906.136719 999.929688 906.089844 1000.382812 906.089844 C 1000.839844 906.089844 1001.289062 906.136719 1001.734375 906.222656 C 1002.179688 906.3125 1002.613281 906.445312 1003.035156 906.617188 C 1003.453125 906.792969 1003.851562 907.003906 1004.230469 907.257812 C 1004.609375 907.511719 1004.957031 907.796875 1005.28125 908.117188 C 1005.601562 908.441406 1005.886719 908.789062 1006.140625 909.167969 C 1006.394531 909.546875 1006.605469 909.945312 1006.78125 910.363281 C 1006.953125 910.785156 1007.085938 911.21875 1007.171875 911.664062 C 1007.261719 912.109375 1007.308594 912.558594 1007.308594 913.011719 C 1007.308594 913.46875 1007.261719 913.917969 1007.171875 914.363281 C 1007.085938 914.808594 1006.953125 915.242188 1006.78125 915.664062 C 1006.605469 916.082031 1006.394531 916.480469 1006.140625 916.859375 C 1005.886719 917.238281 1005.601562 917.585938 1005.28125 917.910156 C 1004.957031 918.230469 1004.609375 918.515625 1004.230469 918.769531 C 1003.851562 919.023438 1003.453125 919.234375 1003.035156 919.410156 C 1002.613281 919.582031 1002.179688 919.714844 1001.734375 919.804688 C 1001.289062 919.890625 1000.839844 919.9375 1000.382812 919.9375 C 999.929688 919.9375 999.480469 919.890625 999.035156 919.804688 C 998.589844 919.714844 998.15625 919.582031 997.734375 919.410156 C 997.316406 919.234375 996.917969 919.023438 996.539062 918.769531 C 996.160156 918.515625 995.8125 918.230469 995.488281 917.910156 C 995.167969 917.585938 994.882812 917.238281 994.628906 916.859375 C 994.375 916.480469 994.164062 916.082031 993.988281 915.664062 C 993.816406 915.242188 993.683594 914.808594 993.59375 914.363281 C 993.507812 913.917969 993.460938 913.46875 993.460938 913.011719 Z M 993.460938 913.011719 " fill-opacity="1" fill-rule="nonzero"/><path fill="#00f2fe" d="M 808.574219 643.667969 L 872.449219 707.511719 L 872.449219 753.679688 L 850.382812 773.148438 L 850.382812 838.664062 L 894.265625 882.542969 L 893.089844 883.71875 L 848.714844 839.34375 L 848.714844 772.40625 L 870.78125 752.9375 L 870.78125 708.191406 L 807.398438 644.8125 Z M 808.574219 643.667969 " fill-opacity="1" fill-rule="nonzero"/><path fill="#00f2fe" d="M 494.632812 934.242188 L 537.125 934.242188 L 563.515625 984.460938 L 678.660156 984.460938 L 705.480469 955.011719 L 815.246094 955.011719 L 851.433594 991.195312 L 850.261719 992.371094 L 814.566406 956.679688 L 706.222656 956.679688 L 679.398438 986.097656 L 562.527344 986.097656 L 536.136719 935.914062 L 494.632812 935.914062 Z M 494.632812 934.242188 " fill-opacity="1" fill-rule="nonzero"/><g clip-path="url(#5229e470a1)"><path fill="#00f2fe" d="M 545.84375 652.488281 C 566.042969 654.683594 589.933594 654.019531 606.910156 641.660156 C 616.414062 634.78125 622.394531 624.214844 625.351562 612.984375 C 626.113281 610.160156 626.78125 607.136719 627.277344 604.28125 C 627.578125 602.585938 627.84375 600.65625 628.109375 598.929688 C 628.175781 600.125 628.207031 601.355469 628.242188 602.550781 C 628.242188 605.542969 628.074219 608.664062 627.710938 611.621094 C 624.953125 633.785156 610.964844 649.300781 589.203125 654.351562 C 574.914062 657.605469 559.765625 656.742188 545.808594 652.488281 Z M 433.640625 654.78125 C 449.65625 664.316406 467.332031 670.964844 485.339844 675.714844 C 510.921875 682.328125 537.96875 684.585938 564.117188 679.933594 C 567.074219 679.335938 570.296875 678.738281 573.21875 677.941406 C 574.714844 677.542969 576.210938 677.144531 577.707031 676.746094 C 575.511719 677.011719 572.988281 677.308594 570.792969 677.609375 C 568.535156 677.808594 566.109375 678.039062 563.882812 678.273438 C 562.289062 678.371094 558.566406 678.605469 556.972656 678.703125 C 539.398438 679.535156 521.652344 678.304688 504.34375 675.347656 C 480.121094 671.195312 456.367188 664.183594 433.640625 654.75 Z M 605.78125 664.449219 C 631.5625 658.800781 660.070312 639.234375 654.722656 609.394531 C 652.863281 598.929688 646.449219 589.359375 637.410156 583.8125 C 629.636719 578.828125 620.46875 577.597656 611.828125 580.957031 C 607.441406 582.617188 603.390625 585.242188 599.832031 588.265625 C 601.195312 587.5 602.457031 586.636719 603.855469 585.972656 C 612.261719 581.386719 621.863281 579.726562 630.734375 583.980469 C 635.386719 586.171875 639.539062 589.460938 642.792969 593.449219 C 650.570312 602.71875 653.160156 615.976562 649.371094 627.472656 C 643.160156 645.976562 623.191406 657.773438 605.8125 664.449219 Z M 406.460938 660.132812 C 414.902344 667.605469 424.4375 673.789062 434.238281 679.335938 C 439.6875 682.394531 445.601562 685.25 451.316406 687.773438 C 492.582031 705.949219 538.300781 709.804688 582.390625 701.199219 C 612.328125 695.25 644.953125 684.085938 665.289062 660.097656 C 684.625 637.273438 688.945312 604.746094 672.03125 579.328125 C 663.992188 567.132812 651.699219 558.164062 637.644531 554.242188 C 617.910156 548.660156 596.476562 553.875 580.960938 567.101562 C 572.953125 573.8125 567.007812 583.578125 569.730469 594.3125 C 571.425781 601.058594 575.28125 607.667969 581.59375 610.992188 C 589.203125 615.078125 598.472656 614.445312 606.414062 611.753906 C 605.082031 612.1875 603.6875 612.484375 602.324219 612.753906 C 598.207031 613.515625 593.917969 613.683594 589.800781 612.984375 C 581.0625 611.554688 574.980469 605.742188 572.222656 597.433594 C 570.363281 592.085938 570.128906 586.835938 572.355469 581.554688 C 575.3125 574.574219 581.226562 569.292969 587.441406 565.207031 C 594.316406 560.621094 602.160156 557.53125 610.265625 556.070312 C 643.09375 550.1875 673.59375 573.28125 677.914062 606.140625 C 680.207031 623.085938 674.824219 640.628906 664.558594 654.152344 C 644.988281 679.667969 612.0625 690.933594 581.625 697.34375 C 538.132812 706.183594 493.246094 703.058594 451.980469 686.179688 C 440.984375 681.660156 430.25 676.277344 420.183594 669.898438 C 415.464844 666.910156 410.78125 663.71875 406.460938 660.132812 Z M 576.210938 707.3125 C 597.007812 713.09375 619.835938 710.699219 639.503906 701.996094 C 653.992188 695.550781 666.683594 685.351562 676.75 673.15625 C 689.542969 657.574219 698.378906 638.800781 703.761719 619.53125 C 694.261719 642.15625 681.96875 664.21875 663.660156 680.863281 C 650.800781 692.625 635.085938 701.164062 618.140625 705.25 C 604.519531 708.542969 590.132812 709.4375 576.210938 707.3125 Z M 442.476562 699.003906 C 455.238281 706.714844 468.859375 713.058594 482.714844 718.542969 C 509.625 728.941406 538.53125 736.019531 567.570312 735.253906 C 575.644531 734.957031 583.6875 733.824219 591.527344 731.898438 C 594.917969 731.101562 599.734375 729.605469 603.089844 728.609375 C 619.667969 723.726562 643.65625 716.414062 660.105469 711.464844 C 672.398438 707.910156 693.996094 706.25 703.695312 715.984375 C 708.914062 721.332031 709.277344 729.804688 706.785156 736.582031 C 704.859375 741.964844 700.773438 746.285156 696.1875 749.574219 C 690.242188 753.859375 682.632812 758.148438 675.15625 755.6875 C 667.8125 753.328125 663.09375 745.320312 663.792969 737.746094 C 664.160156 732.863281 667.015625 728.34375 671.101562 725.617188 C 671.46875 725.351562 671.933594 725.085938 672.363281 724.820312 C 672.699219 724.621094 673.328125 724.257812 673.660156 724.089844 L 672.996094 724.390625 L 671.667969 725.054688 C 671.433594 725.152344 671.234375 725.285156 671.003906 725.417969 C 653.328125 736.484375 666.417969 764.460938 686.949219 757.347656 C 690.839844 756.019531 694.425781 754.027344 697.78125 751.699219 C 702.964844 748.246094 707.484375 743.628906 709.742188 737.679688 C 713.796875 727.3125 711.539062 715.152344 701.269531 709.503906 C 689.011719 702.761719 670.605469 703.921875 657.546875 707.875 C 641.597656 712.59375 617.875 719.703125 601.894531 724.589844 C 590.761719 728.175781 579.132812 730.835938 567.40625 731.367188 C 538.796875 732.398438 510.324219 726.050781 483.410156 716.714844 C 469.421875 711.730469 455.636719 705.984375 442.476562 699.039062 Z M 442.476562 699.003906 " fill-opacity="1" fill-rule="nonzero"/></g><g fill="#f8fafc" fill-opacity="1"><g transform="translate(344.101733, 1327.499866)"><g><path d="M 56.25 -11.703125 L 56.25 0 L 7.46875 0 L 7.46875 -63 L 55.078125 -63 L 55.078125 -51.296875 L 21.953125 -51.296875 L 21.953125 -37.625 L 51.203125 -37.625 L 51.203125 -26.28125 L 21.953125 -26.28125 L 21.953125 -11.703125 Z M 56.25 -11.703125 "/></g></g></g><g fill="#f8fafc" fill-opacity="1"><g transform="translate(404.491674, 1327.499866)"><g><path d="M 28.171875 1.078125 C 23.191406 1.078125 18.375 0.40625 13.71875 -0.9375 C 9.070312 -2.289062 5.335938 -4.046875 2.515625 -6.203125 L 7.46875 -17.1875 C 10.164062 -15.207031 13.375 -13.617188 17.09375 -12.421875 C 20.820312 -11.222656 24.546875 -10.625 28.265625 -10.625 C 32.398438 -10.625 35.457031 -11.238281 37.4375 -12.46875 C 39.414062 -13.695312 40.40625 -15.332031 40.40625 -17.375 C 40.40625 -18.875 39.820312 -20.117188 38.65625 -21.109375 C 37.488281 -22.097656 35.988281 -22.890625 34.15625 -23.484375 C 32.320312 -24.085938 29.847656 -24.75 26.734375 -25.46875 C 21.929688 -26.613281 18 -27.753906 14.9375 -28.890625 C 11.875 -30.023438 9.25 -31.851562 7.0625 -34.375 C 4.875 -36.894531 3.78125 -40.253906 3.78125 -44.453125 C 3.78125 -48.117188 4.769531 -51.4375 6.75 -54.40625 C 8.726562 -57.375 11.710938 -59.726562 15.703125 -61.46875 C 19.691406 -63.207031 24.566406 -64.078125 30.328125 -64.078125 C 34.347656 -64.078125 38.273438 -63.597656 42.109375 -62.640625 C 45.953125 -61.679688 49.316406 -60.300781 52.203125 -58.5 L 47.703125 -47.4375 C 41.878906 -50.726562 36.054688 -52.375 30.234375 -52.375 C 26.160156 -52.375 23.144531 -51.710938 21.1875 -50.390625 C 19.238281 -49.078125 18.265625 -47.34375 18.265625 -45.1875 C 18.265625 -43.019531 19.390625 -41.410156 21.640625 -40.359375 C 23.890625 -39.316406 27.328125 -38.285156 31.953125 -37.265625 C 36.753906 -36.117188 40.679688 -34.972656 43.734375 -33.828125 C 46.796875 -32.691406 49.421875 -30.894531 51.609375 -28.4375 C 53.804688 -25.976562 54.90625 -22.648438 54.90625 -18.453125 C 54.90625 -14.847656 53.898438 -11.5625 51.890625 -8.59375 C 49.878906 -5.625 46.863281 -3.269531 42.84375 -1.53125 C 38.820312 0.207031 33.929688 1.078125 28.171875 1.078125 Z M 28.171875 1.078125 "/></g></g></g><g fill="#f8fafc" fill-opacity="1"><g transform="translate(461.011612, 1327.499866)"><g><path d="M 20.515625 -51.125 L 0.359375 -51.125 L 0.359375 -63 L 55.265625 -63 L 55.265625 -51.125 L 35.09375 -51.125 L 35.09375 0 L 20.515625 0 Z M 20.515625 -51.125 "/></g></g></g><g fill="#f8fafc" fill-opacity="1"><g transform="translate(513.481555, 1327.499866)"><g><path d="M 48.953125 -13.5 L 19.703125 -13.5 L 14.125 0 L -0.8125 0 L 27.265625 -63 L 41.671875 -63 L 69.84375 0 L 54.546875 0 Z M 44.375 -24.5625 L 34.375 -48.6875 L 24.390625 -24.5625 Z M 44.375 -24.5625 "/></g></g></g><g fill="#f8fafc" fill-opacity="1"><g transform="translate(579.271482, 1327.499866)"><g><path d="M 20.515625 -51.125 L 0.359375 -51.125 L 0.359375 -63 L 55.265625 -63 L 55.265625 -51.125 L 35.09375 -51.125 L 35.09375 0 L 20.515625 0 Z M 20.515625 -51.125 "/></g></g></g><g fill="#f8fafc" fill-opacity="1"><g transform="translate(634.891411, 1327.499866)"><g><path d="M 56.25 -11.703125 L 56.25 0 L 7.46875 0 L 7.46875 -63 L 55.078125 -63 L 55.078125 -51.296875 L 21.953125 -51.296875 L 21.953125 -37.625 L 51.203125 -37.625 L 51.203125 -26.28125 L 21.953125 -26.28125 L 21.953125 -11.703125 Z M 56.25 -11.703125 "/></g></g></g><g fill="#f8fafc" fill-opacity="1"><g transform="translate(695.281374, 1327.499866)"><g><path d="M 22.046875 -51.296875 L 22.046875 -34.65625 L 51.203125 -34.65625 L 51.203125 -22.953125 L 22.046875 -22.953125 L 22.046875 0 L 7.46875 0 L 7.46875 -63 L 55.078125 -63 L 55.078125 -51.296875 Z M 22.046875 -51.296875 "/></g></g></g><g fill="#f8fafc" fill-opacity="1"><g transform="translate(752.791318, 1327.499866)"><g><path d="M 7.46875 -63 L 22.046875 -63 L 22.046875 -11.875 L 53.640625 -11.875 L 53.640625 0 L 7.46875 0 Z M 7.46875 -63 "/></g></g></g><g fill="#f8fafc" fill-opacity="1"><g transform="translate(806.071251, 1327.499866)"><g><path d="M 37.984375 1.078125 C 31.441406 1.078125 25.546875 -0.328125 20.296875 -3.140625 C 15.046875 -5.960938 10.9375 -9.847656 7.96875 -14.796875 C 5 -19.753906 3.515625 -25.320312 3.515625 -31.5 C 3.515625 -37.675781 5 -43.238281 7.96875 -48.1875 C 10.9375 -53.144531 15.046875 -57.03125 20.296875 -59.84375 C 25.546875 -62.664062 31.441406 -64.078125 37.984375 -64.078125 C 44.523438 -64.078125 50.40625 -62.664062 55.625 -59.84375 C 60.84375 -57.03125 64.953125 -53.144531 67.953125 -48.1875 C 70.953125 -43.238281 72.453125 -37.675781 72.453125 -31.5 C 72.453125 -25.320312 70.953125 -19.753906 67.953125 -14.796875 C 64.953125 -9.847656 60.84375 -5.960938 55.625 -3.140625 C 50.40625 -0.328125 44.523438 1.078125 37.984375 1.078125 Z M 37.984375 -11.34375 C 41.703125 -11.34375 45.0625 -12.195312 48.0625 -13.90625 C 51.0625 -15.613281 53.414062 -18 55.125 -21.0625 C 56.832031 -24.125 57.6875 -27.601562 57.6875 -31.5 C 57.6875 -35.394531 56.832031 -38.875 55.125 -41.9375 C 53.414062 -45 51.0625 -47.382812 48.0625 -49.09375 C 45.0625 -50.800781 41.703125 -51.65625 37.984375 -51.65625 C 34.265625 -51.65625 30.90625 -50.800781 27.90625 -49.09375 C 24.90625 -47.382812 22.546875 -45 20.828125 -41.9375 C 19.117188 -38.875 18.265625 -35.394531 18.265625 -31.5 C 18.265625 -27.601562 19.117188 -24.125 20.828125 -21.0625 C 22.546875 -18 24.90625 -15.613281 27.90625 -13.90625 C 30.90625 -12.195312 34.265625 -11.34375 37.984375 -11.34375 Z M 37.984375 -11.34375 "/></g></g></g><g fill="#f8fafc" fill-opacity="1"><g transform="translate(879.961168, 1327.499866)"><g><path d="M 102.6875 -63 L 82.078125 0 L 66.421875 0 L 52.5625 -42.65625 L 38.25 0 L 22.6875 0 L 1.984375 -63 L 17.09375 -63 L 31.3125 -18.71875 L 46.171875 -63 L 59.671875 -63 L 74.0625 -18.359375 L 88.734375 -63 Z M 102.6875 -63 "/></g></g></g><g fill="#00f2fe" fill-opacity="1"><g transform="translate(1046.652611, 1327.499866)"><g><path d="M 48.953125 -13.5 L 19.703125 -13.5 L 14.125 0 L -0.8125 0 L 27.265625 -63 L 41.671875 -63 L 69.84375 0 L 54.546875 0 Z M 44.375 -24.5625 L 34.375 -48.6875 L 24.390625 -24.5625 Z M 44.375 -24.5625 "/></g></g></g><g fill="#00f2fe" fill-opacity="1"><g transform="translate(1115.592535, 1327.499866)"><g><path d="M 7.46875 -63 L 22.046875 -63 L 22.046875 0 L 7.46875 0 Z M 7.46875 -63 "/></g></g></g></svg>