<svg xmlns="http://www.w3.org/2000/svg" xmlns:xlink="http://www.w3.org/1999/xlink" width="2000" zoomAndPan="magnify" viewBox="0 0 1500 1499.999933" height="2000" preserveAspectRatio="xMidYMid meet" version="1.0"><defs><clipPath id="2f2b8b55c0"><path d="M 200 241 L 1300 241 L 1300 1261.125 L 200 1261.125 Z M 200 241 " clip-rule="nonzero"/></clipPath><clipPath id="27fbf6f1b2"><path d="M 625 931 L 1034.347656 931 L 1034.347656 1103 L 625 1103 Z M 625 931 " clip-rule="nonzero"/></clipPath><clipPath id="558384031f"><path d="M 776 817 L 1034.347656 817 L 1034.347656 1084 L 776 1084 Z M 776 817 " clip-rule="nonzero"/></clipPath><clipPath id="edbc7283c8"><path d="M 667 980 L 1034.347656 980 L 1034.347656 1126 L 667 1126 Z M 667 980 " clip-rule="nonzero"/></clipPath><clipPath id="7a2c82710e"><path d="M 472 1045 L 887 1045 L 887 1143.527344 L 472 1143.527344 Z M 472 1045 " clip-rule="nonzero"/></clipPath><clipPath id="815e525ea2"><path d="M 529 1081 L 852 1081 L 852 1143.527344 L 529 1143.527344 Z M 529 1081 " clip-rule="nonzero"/></clipPath><clipPath id="9bbe9c5be4"><path d="M 935 761 L 1034.347656 761 L 1034.347656 1063 L 935 1063 Z M 935 761 " clip-rule="nonzero"/></clipPath><clipPath id="d7b1742d0b"><path d="M 465.847656 1062 L 480 1062 L 480 1077 L 465.847656 1077 Z M 465.847656 1062 " clip-rule="nonzero"/></clipPath><clipPath id="6d35dc5c5a"><path d="M 406.460938 613 L 712 613 L 712 820 L 406.460938 820 Z M 406.460938 613 " clip-rule="nonzero"/></clipPath></defs><g clip-path="url(#2f2b8b55c0)"><path fill="#007bff" d="M 1178.15625 750.449219 C 1178.15625 770.566406 1178.15625 790.910156 1178.15625 811.03125 C 1178.15625 950.960938 1178.15625 1091.117188 1178.15625 1231.046875 C 1178.15625 1247.324219 1164.367188 1261.113281 1148.089844 1261.113281 C 1115.535156 1261.113281 1082.984375 1261.113281 1050.433594 1261.113281 C 818.949219 1261.113281 587.238281 1261.113281 355.753906 1261.113281 C 339.476562 1261.113281 325.6875 1247.324219 325.6875 1231.046875 C 325.6875 1210.929688 325.6875 1190.585938 325.6875 1170.464844 C 325.6875 1030.535156 325.6875 890.378906 325.6875 750.449219 C 325.6875 711.566406 385.820312 711.792969 385.820312 750.449219 C 385.820312 770.566406 385.820312 790.910156 385.820312 811.03125 C 385.820312 941.015625 385.820312 1071 385.820312 1200.984375 C 408.425781 1200.984375 430.804688 1200.984375 453.410156 1200.984375 C 674.949219 1200.984375 896.484375 1200.984375 1118.023438 1200.984375 C 1118.023438 1190.808594 1118.023438 1180.636719 1118.023438 1170.464844 C 1118.023438 1030.535156 1118.023438 890.378906 1118.023438 750.449219 C 1118.023438 711.792969 1178.15625 711.792969 1178.15625 750.449219 Z M 1289.828125 718.121094 C 1138.59375 581.355469 987.585938 444.816406 836.582031 308.277344 C 815.105469 288.835938 793.855469 269.621094 772.378906 250.179688 C 759.945312 238.875 742.3125 238.875 729.878906 250.179688 C 578.195312 386.945312 426.507812 523.484375 274.824219 660.023438 C 253.347656 679.464844 231.871094 698.679688 210.398438 718.121094 C 181.460938 744.117188 224.1875 786.617188 252.894531 760.621094 C 404.582031 624.082031 556.042969 487.539062 707.726562 351 C 722.195312 338.117188 736.4375 325.230469 750.902344 312.121094 C 894.902344 442.328125 1038.902344 572.539062 1182.902344 702.523438 C 1204.378906 721.964844 1225.628906 741.179688 1247.101562 760.621094 C 1275.8125 786.390625 1318.539062 744.117188 1289.828125 718.121094 Z M 1058.796875 412.714844 C 1058.796875 400.734375 1058.796875 388.980469 1058.796875 377 C 1083.210938 377 1107.625 377 1132.039062 377 C 1132.039062 430.800781 1132.039062 484.601562 1132.039062 538.402344 C 1132.039062 577.058594 1192.171875 577.285156 1192.171875 538.402344 C 1192.171875 474.65625 1192.171875 410.90625 1192.171875 346.933594 C 1192.171875 330.65625 1178.382812 316.867188 1162.105469 316.867188 C 1117.570312 316.867188 1073.265625 316.867188 1028.730469 316.867188 C 1012.453125 316.867188 998.664062 330.65625 998.664062 346.933594 C 998.664062 368.859375 998.664062 390.789062 998.664062 412.714844 C 998.4375 451.597656 1058.796875 451.597656 1058.796875 412.714844 Z M 1058.796875 412.714844 " fill-opacity="1" fill-rule="nonzero"/></g><path fill="#007bff" d="M 914.910156 657.996094 C 914.910156 657.542969 914.953125 657.089844 915.042969 656.644531 C 915.128906 656.199219 915.261719 655.765625 915.433594 655.347656 C 915.609375 654.925781 915.824219 654.527344 916.074219 654.148438 C 916.328125 653.773438 916.613281 653.421875 916.9375 653.101562 C 917.257812 652.78125 917.605469 652.492188 917.984375 652.242188 C 918.363281 651.988281 918.761719 651.773438 919.179688 651.601562 C 919.601562 651.425781 920.035156 651.296875 920.480469 651.207031 C 920.925781 651.117188 921.375 651.074219 921.832031 651.074219 C 922.285156 651.074219 922.734375 651.117188 923.179688 651.207031 C 923.625 651.296875 924.058594 651.425781 924.480469 651.601562 C 924.898438 651.773438 925.296875 651.988281 925.675781 652.242188 C 926.054688 652.492188 926.402344 652.78125 926.726562 653.101562 C 927.046875 653.421875 927.332031 653.773438 927.585938 654.148438 C 927.839844 654.527344 928.050781 654.925781 928.226562 655.347656 C 928.398438 655.765625 928.53125 656.199219 928.621094 656.644531 C 928.707031 657.089844 928.753906 657.542969 928.753906 657.996094 C 928.753906 658.449219 928.707031 658.902344 928.621094 659.347656 C 928.53125 659.792969 928.398438 660.226562 928.226562 660.644531 C 928.050781 661.066406 927.839844 661.464844 927.585938 661.839844 C 927.332031 662.21875 927.046875 662.570312 926.726562 662.890625 C 926.402344 663.210938 926.054688 663.5 925.675781 663.75 C 925.296875 664.003906 924.898438 664.21875 924.480469 664.390625 C 924.058594 664.566406 923.625 664.695312 923.179688 664.785156 C 922.734375 664.875 922.285156 664.917969 921.832031 664.917969 C 921.375 664.917969 920.925781 664.875 920.480469 664.785156 C 920.035156 664.695312 919.601562 664.566406 919.179688 664.390625 C 918.761719 664.21875 918.363281 664.003906 917.984375 663.75 C 917.605469 663.5 917.257812 663.210938 916.9375 662.890625 C 916.613281 662.570312 916.328125 662.21875 916.074219 661.839844 C 915.824219 661.464844 915.609375 661.066406 915.433594 660.644531 C 915.261719 660.226562 915.128906 659.792969 915.042969 659.347656 C 914.953125 658.902344 914.910156 658.449219 914.910156 657.996094 Z M 914.910156 657.996094 " fill-opacity="1" fill-rule="nonzero"/><g clip-path="url(#27fbf6f1b2)"><path fill="#007bff" d="M 625.785156 931.113281 L 699.332031 931.113281 L 719.234375 951.878906 L 819.636719 951.878906 L 896.921875 1030.925781 L 896.921875 1077.589844 L 920.839844 1099.035156 L 1034.347656 1099.035156 L 1034.347656 1102.898438 L 919.359375 1102.898438 L 893.058594 1079.320312 L 893.058594 1032.503906 L 817.996094 955.742188 L 717.566406 955.742188 L 697.664062 934.976562 L 625.785156 934.976562 Z M 625.785156 931.113281 " fill-opacity="1" fill-rule="nonzero"/></g><g clip-path="url(#558384031f)"><path fill="#007bff" d="M 777.855469 817.328125 L 827.421875 865.445312 L 827.421875 928.363281 L 922.632812 1022.707031 L 922.632812 1066.835938 L 939.445312 1081.949219 L 1034.347656 1081.949219 L 1034.347656 1083.617188 L 938.828125 1083.617188 L 920.996094 1067.578125 L 920.996094 1023.417969 L 825.785156 929.042969 L 825.785156 866.125 L 776.679688 818.503906 Z M 777.855469 817.328125 " fill-opacity="1" fill-rule="nonzero"/></g><g clip-path="url(#edbc7283c8)"><path fill="#007bff" d="M 667.347656 980.679688 L 810.488281 980.679688 L 868.121094 1038.28125 L 868.121094 1091.09375 L 898.808594 1123.511719 L 1034.347656 1123.511719 L 1034.347656 1125.148438 L 898.097656 1125.148438 L 866.453125 1091.773438 L 866.453125 1038.992188 L 809.808594 982.347656 L 667.347656 982.347656 Z M 667.347656 980.679688 " fill-opacity="1" fill-rule="nonzero"/></g><g clip-path="url(#7a2c82710e)"><path fill="#007bff" d="M 712.867188 1045.605469 L 807.027344 1045.605469 L 845.625 1082.441406 L 845.625 1100.613281 L 886.046875 1142.175781 L 884.871094 1143.351562 L 843.957031 1101.292969 L 843.957031 1083.152344 L 806.347656 1047.242188 L 713.546875 1047.242188 L 690.183594 1069.773438 L 472.570312 1070.636719 L 472.570312 1068.96875 L 689.503906 1068.101562 Z M 712.867188 1045.605469 " fill-opacity="1" fill-rule="nonzero"/></g><g clip-path="url(#815e525ea2)"><path fill="#007bff" d="M 737.09375 1081.949219 L 794.078125 1081.949219 L 851.433594 1142.207031 L 850.230469 1143.351562 L 793.367188 1083.617188 L 737.773438 1083.617188 L 707.492188 1113.589844 L 529.707031 1113.589844 L 529.707031 1111.953125 L 706.8125 1111.953125 Z M 737.09375 1081.949219 " fill-opacity="1" fill-rule="nonzero"/></g><g clip-path="url(#9bbe9c5be4)"><path fill="#007bff" d="M 935.707031 761.644531 L 937.375 761.644531 L 937.375 817.578125 L 984.964844 869.523438 L 984.964844 981.855469 L 947.757812 1017.359375 L 947.757812 1052.558594 L 956.78125 1061.179688 L 1034.347656 1061.179688 L 1034.347656 1062.851562 L 956.101562 1062.851562 L 946.089844 1053.269531 L 946.089844 1016.652344 L 983.328125 981.144531 L 983.328125 870.171875 L 935.707031 818.226562 Z M 935.707031 761.644531 " fill-opacity="1" fill-rule="nonzero"/></g><path fill="#007bff" d="M 917.535156 734.820312 L 919.171875 734.820312 L 919.171875 829.691406 L 965.929688 879.042969 L 965.929688 970.636719 L 937.097656 996.84375 L 935.984375 995.605469 L 964.257812 969.894531 L 964.257812 879.691406 L 917.535156 830.371094 Z M 917.535156 734.820312 " fill-opacity="1" fill-rule="nonzero"/><path fill="#007bff" d="M 840.15625 673.632812 L 902.734375 734.480469 L 902.734375 838.34375 L 948.621094 883.335938 L 948.621094 956.421875 L 946.953125 956.421875 L 946.953125 884.046875 L 901.09375 839.023438 L 901.09375 735.160156 L 839.011719 674.808594 Z M 840.15625 673.632812 " fill-opacity="1" fill-rule="nonzero"/><path fill="#007bff" d="M 961.355469 670.386719 L 1015.496094 723.199219 L 1015.496094 839.457031 L 1001.835938 853.082031 L 1001.835938 974.160156 L 1000.199219 974.160156 L 1000.199219 852.402344 L 1013.828125 838.777344 L 1013.828125 723.910156 L 960.179688 671.5625 Z M 961.355469 670.386719 " fill-opacity="1" fill-rule="nonzero"/><path fill="#007bff" d="M 922.417969 657.410156 L 1001.21875 737.507812 L 997.941406 822.582031 L 996.304688 822.519531 L 999.519531 738.15625 L 921.210938 658.582031 Z M 922.417969 657.410156 " fill-opacity="1" fill-rule="nonzero"/><path fill="#007bff" d="M 953.84375 670.976562 C 953.84375 670.519531 953.890625 670.070312 953.976562 669.625 C 954.066406 669.179688 954.199219 668.746094 954.371094 668.324219 C 954.546875 667.90625 954.757812 667.507812 955.011719 667.128906 C 955.265625 666.75 955.550781 666.402344 955.871094 666.082031 C 956.195312 665.757812 956.542969 665.472656 956.921875 665.21875 C 957.300781 664.96875 957.699219 664.753906 958.117188 664.578125 C 958.539062 664.40625 958.972656 664.273438 959.417969 664.1875 C 959.863281 664.097656 960.3125 664.050781 960.769531 664.050781 C 961.222656 664.050781 961.671875 664.097656 962.117188 664.1875 C 962.5625 664.273438 962.996094 664.40625 963.417969 664.578125 C 963.835938 664.753906 964.234375 664.96875 964.613281 665.21875 C 964.992188 665.472656 965.339844 665.757812 965.664062 666.082031 C 965.984375 666.402344 966.269531 666.75 966.523438 667.128906 C 966.777344 667.507812 966.988281 667.90625 967.164062 668.324219 C 967.335938 668.746094 967.46875 669.179688 967.558594 669.625 C 967.644531 670.070312 967.691406 670.519531 967.691406 670.976562 C 967.691406 671.429688 967.644531 671.878906 967.558594 672.324219 C 967.46875 672.769531 967.335938 673.203125 967.164062 673.625 C 966.988281 674.042969 966.777344 674.441406 966.523438 674.820312 C 966.269531 675.199219 965.984375 675.546875 965.664062 675.871094 C 965.339844 676.191406 964.992188 676.476562 964.613281 676.730469 C 964.234375 676.984375 963.835938 677.195312 963.417969 677.371094 C 962.996094 677.542969 962.5625 677.675781 962.117188 677.765625 C 961.671875 677.851562 961.222656 677.898438 960.769531 677.898438 C 960.3125 677.898438 959.863281 677.851562 959.417969 677.765625 C 958.972656 677.675781 958.539062 677.542969 958.117188 677.371094 C 957.699219 677.195312 957.300781 676.984375 956.921875 676.730469 C 956.542969 676.476562 956.195312 676.191406 955.871094 675.871094 C 955.550781 675.546875 955.265625 675.199219 955.011719 674.820312 C 954.757812 674.441406 954.546875 674.042969 954.371094 673.625 C 954.199219 673.203125 954.066406 672.769531 953.976562 672.324219 C 953.890625 671.878906 953.84375 671.429688 953.84375 670.976562 Z M 953.84375 670.976562 " fill-opacity="1" fill-rule="nonzero"/><path fill="#007bff" d="M 830.945312 674.21875 C 830.945312 673.765625 830.992188 673.316406 831.078125 672.871094 C 831.167969 672.421875 831.300781 671.992188 831.472656 671.570312 C 831.648438 671.152344 831.859375 670.75 832.113281 670.375 C 832.367188 669.996094 832.652344 669.644531 832.972656 669.324219 C 833.296875 669.003906 833.644531 668.714844 834.023438 668.464844 C 834.402344 668.210938 834.800781 668 835.21875 667.824219 C 835.640625 667.652344 836.070312 667.519531 836.519531 667.429688 C 836.964844 667.34375 837.414062 667.296875 837.867188 667.296875 C 838.324219 667.296875 838.773438 667.34375 839.21875 667.429688 C 839.664062 667.519531 840.097656 667.652344 840.515625 667.824219 C 840.9375 668 841.335938 668.210938 841.714844 668.464844 C 842.09375 668.714844 842.441406 669.003906 842.761719 669.324219 C 843.085938 669.644531 843.371094 669.996094 843.625 670.375 C 843.875 670.75 844.089844 671.152344 844.261719 671.570312 C 844.4375 671.992188 844.570312 672.421875 844.65625 672.871094 C 844.746094 673.316406 844.789062 673.765625 844.789062 674.21875 C 844.789062 674.675781 844.746094 675.125 844.65625 675.570312 C 844.570312 676.015625 844.4375 676.449219 844.261719 676.867188 C 844.089844 677.289062 843.875 677.6875 843.625 678.066406 C 843.371094 678.445312 843.085938 678.792969 842.761719 679.113281 C 842.441406 679.4375 842.09375 679.722656 841.714844 679.976562 C 841.335938 680.226562 840.9375 680.441406 840.515625 680.613281 C 840.097656 680.789062 839.664062 680.921875 839.21875 681.007812 C 838.773438 681.097656 838.324219 681.140625 837.867188 681.140625 C 837.414062 681.140625 836.964844 681.097656 836.519531 681.007812 C 836.070312 680.921875 835.640625 680.789062 835.21875 680.613281 C 834.800781 680.441406 834.402344 680.226562 834.023438 679.976562 C 833.644531 679.722656 833.296875 679.4375 832.972656 679.113281 C 832.652344 678.792969 832.363281 678.445312 832.113281 678.066406 C 831.859375 677.6875 831.648438 677.289062 831.472656 676.867188 C 831.300781 676.449219 831.167969 676.015625 831.078125 675.570312 C 830.992188 675.125 830.945312 674.675781 830.945312 674.21875 Z M 830.945312 674.21875 " fill-opacity="1" fill-rule="nonzero"/><path fill="#007bff" d="M 801.0625 705.398438 C 801.0625 704.945312 801.109375 704.496094 801.195312 704.050781 C 801.285156 703.605469 801.417969 703.171875 801.589844 702.75 C 801.765625 702.332031 801.976562 701.933594 802.230469 701.554688 C 802.484375 701.175781 802.769531 700.828125 803.089844 700.503906 C 803.414062 700.183594 803.761719 699.898438 804.140625 699.644531 C 804.519531 699.390625 804.917969 699.179688 805.335938 699.003906 C 805.757812 698.832031 806.1875 698.699219 806.636719 698.609375 C 807.082031 698.523438 807.53125 698.476562 807.984375 698.476562 C 808.441406 698.476562 808.890625 698.523438 809.335938 698.609375 C 809.78125 698.699219 810.214844 698.832031 810.632812 699.003906 C 811.054688 699.179688 811.453125 699.390625 811.832031 699.644531 C 812.210938 699.898438 812.558594 700.183594 812.878906 700.503906 C 813.203125 700.828125 813.488281 701.175781 813.742188 701.554688 C 813.992188 701.933594 814.207031 702.332031 814.378906 702.75 C 814.554688 703.171875 814.6875 703.605469 814.773438 704.050781 C 814.863281 704.496094 814.90625 704.945312 814.90625 705.398438 C 814.90625 705.855469 814.863281 706.304688 814.773438 706.75 C 814.6875 707.195312 814.554688 707.628906 814.378906 708.050781 C 814.207031 708.46875 813.992188 708.867188 813.742188 709.246094 C 813.488281 709.625 813.203125 709.972656 812.878906 710.296875 C 812.558594 710.617188 812.210938 710.902344 811.832031 711.15625 C 811.453125 711.410156 811.054688 711.621094 810.632812 711.796875 C 810.214844 711.96875 809.78125 712.101562 809.335938 712.191406 C 808.890625 712.277344 808.441406 712.324219 807.984375 712.324219 C 807.53125 712.324219 807.082031 712.277344 806.636719 712.191406 C 806.1875 712.101562 805.757812 711.96875 805.335938 711.796875 C 804.917969 711.621094 804.519531 711.410156 804.140625 711.15625 C 803.761719 710.902344 803.414062 710.617188 803.089844 710.296875 C 802.769531 709.972656 802.484375 709.625 802.230469 709.246094 C 801.976562 708.867188 801.765625 708.46875 801.589844 708.050781 C 801.417969 707.628906 801.285156 707.195312 801.195312 706.75 C 801.109375 706.304688 801.0625 705.855469 801.0625 705.398438 Z M 801.0625 705.398438 " fill-opacity="1" fill-rule="nonzero"/><path fill="#007bff" d="M 911.445312 734.820312 C 911.445312 734.363281 911.492188 733.914062 911.582031 733.46875 C 911.667969 733.023438 911.800781 732.589844 911.972656 732.171875 C 912.148438 731.75 912.359375 731.351562 912.613281 730.972656 C 912.867188 730.597656 913.152344 730.246094 913.476562 729.925781 C 913.796875 729.601562 914.144531 729.316406 914.523438 729.0625 C 914.902344 728.8125 915.300781 728.597656 915.71875 728.425781 C 916.140625 728.25 916.574219 728.117188 917.019531 728.03125 C 917.464844 727.941406 917.914062 727.898438 918.371094 727.898438 C 918.824219 727.898438 919.273438 727.941406 919.71875 728.03125 C 920.164062 728.117188 920.597656 728.25 921.019531 728.425781 C 921.4375 728.597656 921.835938 728.8125 922.214844 729.0625 C 922.59375 729.316406 922.941406 729.601562 923.265625 729.925781 C 923.585938 730.246094 923.871094 730.597656 924.125 730.972656 C 924.378906 731.351562 924.589844 731.75 924.765625 732.171875 C 924.9375 732.589844 925.070312 733.023438 925.160156 733.46875 C 925.246094 733.914062 925.292969 734.363281 925.292969 734.820312 C 925.292969 735.273438 925.246094 735.722656 925.160156 736.171875 C 925.070312 736.617188 924.9375 737.046875 924.765625 737.46875 C 924.589844 737.886719 924.378906 738.289062 924.125 738.664062 C 923.871094 739.042969 923.585938 739.394531 923.265625 739.714844 C 922.941406 740.035156 922.59375 740.324219 922.214844 740.574219 C 921.835938 740.828125 921.4375 741.039062 921.019531 741.214844 C 920.597656 741.390625 920.164062 741.519531 919.71875 741.609375 C 919.273438 741.699219 918.824219 741.742188 918.371094 741.742188 C 917.914062 741.742188 917.464844 741.699219 917.019531 741.609375 C 916.574219 741.519531 916.140625 741.390625 915.71875 741.214844 C 915.300781 741.039062 914.902344 740.828125 914.523438 740.574219 C 914.144531 740.324219 913.796875 740.035156 913.476562 739.714844 C 913.152344 739.394531 912.867188 739.042969 912.613281 738.664062 C 912.359375 738.289062 912.148438 737.886719 911.972656 737.46875 C 911.800781 737.046875 911.667969 736.617188 911.582031 736.171875 C 911.492188 735.722656 911.445312 735.273438 911.445312 734.820312 Z M 911.445312 734.820312 " fill-opacity="1" fill-rule="nonzero"/><path fill="#007bff" d="M 929.617188 761.644531 C 929.617188 761.1875 929.664062 760.738281 929.75 760.292969 C 929.839844 759.847656 929.972656 759.414062 930.144531 758.992188 C 930.320312 758.574219 930.53125 758.175781 930.785156 757.796875 C 931.035156 757.417969 931.324219 757.070312 931.644531 756.75 C 931.964844 756.425781 932.316406 756.140625 932.695312 755.886719 C 933.070312 755.636719 933.472656 755.421875 933.890625 755.246094 C 934.3125 755.074219 934.742188 754.941406 935.191406 754.855469 C 935.636719 754.765625 936.085938 754.722656 936.539062 754.722656 C 936.996094 754.722656 937.445312 754.765625 937.890625 754.855469 C 938.335938 754.941406 938.769531 755.074219 939.1875 755.246094 C 939.609375 755.421875 940.007812 755.636719 940.386719 755.886719 C 940.765625 756.140625 941.113281 756.425781 941.433594 756.75 C 941.757812 757.070312 942.042969 757.417969 942.296875 757.796875 C 942.546875 758.175781 942.761719 758.574219 942.933594 758.992188 C 943.109375 759.414062 943.242188 759.847656 943.328125 760.292969 C 943.417969 760.738281 943.460938 761.1875 943.460938 761.644531 C 943.460938 762.097656 943.417969 762.546875 943.328125 762.992188 C 943.242188 763.4375 943.109375 763.871094 942.933594 764.292969 C 942.761719 764.710938 942.546875 765.109375 942.296875 765.488281 C 942.042969 765.867188 941.757812 766.214844 941.433594 766.539062 C 941.113281 766.859375 940.765625 767.144531 940.386719 767.398438 C 940.007812 767.652344 939.609375 767.863281 939.1875 768.039062 C 938.769531 768.210938 938.335938 768.34375 937.890625 768.433594 C 937.445312 768.519531 936.996094 768.566406 936.539062 768.566406 C 936.085938 768.566406 935.636719 768.519531 935.191406 768.433594 C 934.742188 768.34375 934.3125 768.210938 933.890625 768.039062 C 933.472656 767.863281 933.070312 767.652344 932.695312 767.398438 C 932.316406 767.144531 931.964844 766.859375 931.644531 766.539062 C 931.324219 766.214844 931.035156 765.867188 930.785156 765.488281 C 930.53125 765.109375 930.320312 764.710938 930.144531 764.292969 C 929.972656 763.871094 929.839844 763.4375 929.75 762.992188 C 929.664062 762.546875 929.617188 762.097656 929.617188 761.644531 Z M 929.617188 761.644531 " fill-opacity="1" fill-rule="nonzero"/><path fill="#007bff" d="M 940.867188 956.421875 C 940.867188 955.96875 940.910156 955.515625 941 955.070312 C 941.089844 954.625 941.21875 954.191406 941.394531 953.773438 C 941.566406 953.351562 941.78125 952.953125 942.03125 952.574219 C 942.285156 952.199219 942.574219 951.847656 942.894531 951.527344 C 943.214844 951.207031 943.566406 950.917969 943.941406 950.664062 C 944.320312 950.414062 944.71875 950.199219 945.140625 950.027344 C 945.558594 949.851562 945.992188 949.722656 946.4375 949.632812 C 946.882812 949.542969 947.335938 949.5 947.789062 949.5 C 948.242188 949.5 948.691406 949.542969 949.140625 949.632812 C 949.585938 949.722656 950.019531 949.851562 950.4375 950.027344 C 950.859375 950.199219 951.257812 950.414062 951.632812 950.664062 C 952.011719 950.917969 952.363281 951.207031 952.683594 951.527344 C 953.003906 951.847656 953.292969 952.199219 953.542969 952.574219 C 953.796875 952.953125 954.011719 953.351562 954.183594 953.773438 C 954.359375 954.191406 954.488281 954.625 954.578125 955.070312 C 954.667969 955.515625 954.710938 955.96875 954.710938 956.421875 C 954.710938 956.875 954.667969 957.324219 954.578125 957.773438 C 954.488281 958.21875 954.359375 958.652344 954.183594 959.070312 C 954.011719 959.492188 953.796875 959.890625 953.542969 960.265625 C 953.292969 960.644531 953.003906 960.996094 952.683594 961.316406 C 952.363281 961.636719 952.011719 961.925781 951.632812 962.175781 C 951.257812 962.429688 950.859375 962.644531 950.4375 962.816406 C 950.019531 962.992188 949.585938 963.121094 949.140625 963.210938 C 948.691406 963.300781 948.242188 963.34375 947.789062 963.34375 C 947.335938 963.34375 946.882812 963.300781 946.4375 963.210938 C 945.992188 963.121094 945.558594 962.992188 945.140625 962.816406 C 944.71875 962.644531 944.320312 962.429688 943.941406 962.175781 C 943.566406 961.925781 943.214844 961.636719 942.894531 961.316406 C 942.574219 960.996094 942.285156 960.644531 942.03125 960.265625 C 941.78125 959.890625 941.566406 959.492188 941.394531 959.070312 C 941.21875 958.652344 941.089844 958.21875 941 957.773438 C 940.910156 957.324219 940.867188 956.875 940.867188 956.421875 Z M 940.867188 956.421875 " fill-opacity="1" fill-rule="nonzero"/><path fill="#007bff" d="M 886.757812 944.277344 C 886.757812 943.824219 886.800781 943.371094 886.890625 942.925781 C 886.976562 942.480469 887.109375 942.046875 887.28125 941.628906 C 887.457031 941.207031 887.671875 940.808594 887.921875 940.429688 C 888.175781 940.054688 888.460938 939.703125 888.785156 939.382812 C 889.105469 939.0625 889.453125 938.773438 889.832031 938.519531 C 890.210938 938.269531 890.609375 938.054688 891.027344 937.882812 C 891.449219 937.707031 891.882812 937.578125 892.328125 937.488281 C 892.773438 937.398438 893.222656 937.355469 893.679688 937.355469 C 894.132812 937.355469 894.582031 937.398438 895.027344 937.488281 C 895.472656 937.578125 895.90625 937.707031 896.328125 937.882812 C 896.746094 938.054688 897.144531 938.269531 897.523438 938.519531 C 897.902344 938.773438 898.25 939.0625 898.574219 939.382812 C 898.894531 939.703125 899.179688 940.054688 899.433594 940.429688 C 899.6875 940.808594 899.898438 941.207031 900.074219 941.628906 C 900.246094 942.046875 900.378906 942.480469 900.46875 942.925781 C 900.554688 943.371094 900.601562 943.824219 900.601562 944.277344 C 900.601562 944.730469 900.554688 945.179688 900.46875 945.628906 C 900.378906 946.074219 900.246094 946.507812 900.074219 946.925781 C 899.898438 947.347656 899.6875 947.746094 899.433594 948.121094 C 899.179688 948.5 898.894531 948.851562 898.574219 949.171875 C 898.25 949.492188 897.902344 949.78125 897.523438 950.03125 C 897.144531 950.285156 896.746094 950.5 896.328125 950.671875 C 895.90625 950.847656 895.472656 950.976562 895.027344 951.066406 C 894.582031 951.15625 894.132812 951.199219 893.679688 951.199219 C 893.222656 951.199219 892.773438 951.15625 892.328125 951.066406 C 891.882812 950.976562 891.449219 950.847656 891.027344 950.671875 C 890.609375 950.5 890.210938 950.285156 889.832031 950.03125 C 889.453125 949.78125 889.105469 949.492188 888.785156 949.171875 C 888.460938 948.851562 888.175781 948.5 887.921875 948.121094 C 887.671875 947.746094 887.457031 947.347656 887.28125 946.925781 C 887.109375 946.507812 886.976562 946.074219 886.890625 945.628906 C 886.800781 945.179688 886.757812 944.730469 886.757812 944.277344 Z M 886.757812 944.277344 " fill-opacity="1" fill-rule="nonzero"/><path fill="#007bff" d="M 929.617188 996.222656 C 929.617188 995.769531 929.664062 995.320312 929.75 994.875 C 929.839844 994.429688 929.972656 993.996094 930.144531 993.574219 C 930.320312 993.15625 930.53125 992.757812 930.785156 992.378906 C 931.035156 992 931.324219 991.652344 931.644531 991.328125 C 931.964844 991.007812 932.316406 990.722656 932.695312 990.46875 C 933.070312 990.214844 933.472656 990.003906 933.890625 989.828125 C 934.3125 989.65625 934.742188 989.523438 935.191406 989.433594 C 935.636719 989.347656 936.085938 989.300781 936.539062 989.300781 C 936.996094 989.300781 937.445312 989.347656 937.890625 989.433594 C 938.335938 989.523438 938.769531 989.65625 939.1875 989.828125 C 939.609375 990.003906 940.007812 990.214844 940.386719 990.46875 C 940.765625 990.722656 941.113281 991.007812 941.433594 991.328125 C 941.757812 991.652344 942.042969 992 942.296875 992.378906 C 942.546875 992.757812 942.761719 993.15625 942.933594 993.574219 C 943.109375 993.996094 943.242188 994.429688 943.328125 994.875 C 943.417969 995.320312 943.460938 995.769531 943.460938 996.222656 C 943.460938 996.679688 943.417969 997.128906 943.328125 997.574219 C 943.242188 998.019531 943.109375 998.453125 942.933594 998.871094 C 942.761719 999.292969 942.546875 999.691406 942.296875 1000.070312 C 942.042969 1000.449219 941.757812 1000.796875 941.433594 1001.117188 C 941.113281 1001.441406 940.765625 1001.726562 940.386719 1001.980469 C 940.007812 1002.230469 939.609375 1002.445312 939.1875 1002.621094 C 938.769531 1002.792969 938.335938 1002.925781 937.890625 1003.011719 C 937.445312 1003.101562 936.996094 1003.144531 936.539062 1003.144531 C 936.085938 1003.144531 935.636719 1003.101562 935.191406 1003.011719 C 934.742188 1002.925781 934.3125 1002.792969 933.890625 1002.621094 C 933.472656 1002.445312 933.070312 1002.230469 932.695312 1001.980469 C 932.316406 1001.726562 931.964844 1001.441406 931.644531 1001.117188 C 931.324219 1000.796875 931.035156 1000.449219 930.785156 1000.070312 C 930.53125 999.691406 930.320312 999.292969 930.144531 998.871094 C 929.972656 998.453125 929.839844 998.019531 929.75 997.574219 C 929.664062 997.128906 929.617188 996.679688 929.617188 996.222656 Z M 929.617188 996.222656 " fill-opacity="1" fill-rule="nonzero"/><path fill="#007bff" d="M 770.347656 817.917969 C 770.347656 817.460938 770.390625 817.011719 770.480469 816.566406 C 770.566406 816.121094 770.699219 815.6875 770.875 815.265625 C 771.046875 814.847656 771.261719 814.449219 771.511719 814.070312 C 771.765625 813.691406 772.050781 813.34375 772.375 813.023438 C 772.695312 812.699219 773.042969 812.414062 773.421875 812.160156 C 773.800781 811.910156 774.199219 811.695312 774.621094 811.519531 C 775.039062 811.347656 775.472656 811.214844 775.917969 811.128906 C 776.363281 811.039062 776.8125 810.996094 777.269531 810.996094 C 777.722656 810.996094 778.171875 811.039062 778.617188 811.128906 C 779.066406 811.214844 779.496094 811.347656 779.917969 811.519531 C 780.335938 811.695312 780.734375 811.910156 781.113281 812.160156 C 781.492188 812.414062 781.839844 812.699219 782.164062 813.023438 C 782.484375 813.34375 782.769531 813.691406 783.023438 814.070312 C 783.277344 814.449219 783.488281 814.847656 783.664062 815.265625 C 783.835938 815.6875 783.96875 816.121094 784.058594 816.566406 C 784.144531 817.011719 784.191406 817.460938 784.191406 817.917969 C 784.191406 818.371094 784.144531 818.820312 784.058594 819.265625 C 783.96875 819.710938 783.835938 820.144531 783.664062 820.566406 C 783.488281 820.984375 783.277344 821.382812 783.023438 821.761719 C 782.769531 822.140625 782.484375 822.488281 782.164062 822.8125 C 781.839844 823.132812 781.492188 823.417969 781.113281 823.671875 C 780.734375 823.925781 780.335938 824.136719 779.917969 824.3125 C 779.496094 824.484375 779.066406 824.617188 778.617188 824.707031 C 778.171875 824.792969 777.722656 824.839844 777.269531 824.839844 C 776.8125 824.839844 776.363281 824.792969 775.917969 824.707031 C 775.472656 824.617188 775.039062 824.484375 774.621094 824.3125 C 774.199219 824.136719 773.800781 823.925781 773.421875 823.671875 C 773.042969 823.417969 772.695312 823.132812 772.375 822.8125 C 772.050781 822.488281 771.765625 822.140625 771.511719 821.761719 C 771.261719 821.382812 771.046875 820.984375 770.875 820.566406 C 770.699219 820.144531 770.566406 819.710938 770.480469 819.265625 C 770.390625 818.820312 770.347656 818.371094 770.347656 817.917969 Z M 770.347656 817.917969 " fill-opacity="1" fill-rule="nonzero"/><path fill="#007bff" d="M 618.863281 933.027344 C 618.863281 932.574219 618.90625 932.125 618.996094 931.679688 C 619.082031 931.230469 619.214844 930.800781 619.390625 930.378906 C 619.5625 929.960938 619.777344 929.558594 620.027344 929.183594 C 620.28125 928.804688 620.566406 928.453125 620.890625 928.132812 C 621.210938 927.8125 621.5625 927.523438 621.9375 927.273438 C 622.316406 927.019531 622.714844 926.808594 623.136719 926.632812 C 623.554688 926.460938 623.988281 926.328125 624.433594 926.238281 C 624.878906 926.152344 625.328125 926.105469 625.785156 926.105469 C 626.238281 926.105469 626.6875 926.152344 627.132812 926.238281 C 627.582031 926.328125 628.011719 926.460938 628.433594 926.632812 C 628.851562 926.808594 629.253906 927.019531 629.628906 927.273438 C 630.007812 927.523438 630.359375 927.8125 630.679688 928.132812 C 631 928.453125 631.289062 928.804688 631.539062 929.183594 C 631.792969 929.558594 632.003906 929.960938 632.179688 930.378906 C 632.351562 930.800781 632.484375 931.230469 632.574219 931.679688 C 632.664062 932.125 632.707031 932.574219 632.707031 933.027344 C 632.707031 933.484375 632.664062 933.933594 632.574219 934.378906 C 632.484375 934.824219 632.351562 935.257812 632.179688 935.675781 C 632.003906 936.097656 631.792969 936.496094 631.539062 936.875 C 631.289062 937.253906 631 937.601562 630.679688 937.921875 C 630.359375 938.246094 630.007812 938.53125 629.628906 938.785156 C 629.253906 939.035156 628.851562 939.25 628.433594 939.421875 C 628.011719 939.597656 627.582031 939.730469 627.132812 939.816406 C 626.6875 939.90625 626.238281 939.949219 625.785156 939.949219 C 625.328125 939.949219 624.878906 939.90625 624.433594 939.816406 C 623.988281 939.730469 623.554688 939.597656 623.136719 939.421875 C 622.714844 939.25 622.316406 939.035156 621.9375 938.785156 C 621.5625 938.53125 621.210938 938.246094 620.890625 937.921875 C 620.566406 937.601562 620.28125 937.253906 620.027344 936.875 C 619.777344 936.496094 619.5625 936.097656 619.390625 935.675781 C 619.214844 935.257812 619.082031 934.824219 618.996094 934.378906 C 618.90625 933.933594 618.863281 933.484375 618.863281 933.027344 Z M 618.863281 933.027344 " fill-opacity="1" fill-rule="nonzero"/><path fill="#007bff" d="M 660.425781 981.515625 C 660.425781 981.058594 660.46875 980.609375 660.558594 980.164062 C 660.648438 979.71875 660.777344 979.285156 660.953125 978.867188 C 661.125 978.445312 661.339844 978.046875 661.59375 977.667969 C 661.84375 977.289062 662.132812 976.941406 662.453125 976.621094 C 662.773438 976.296875 663.125 976.011719 663.503906 975.757812 C 663.878906 975.507812 664.277344 975.292969 664.699219 975.117188 C 665.117188 974.945312 665.550781 974.8125 665.996094 974.726562 C 666.445312 974.636719 666.894531 974.59375 667.347656 974.59375 C 667.800781 974.59375 668.253906 974.636719 668.699219 974.726562 C 669.144531 974.8125 669.578125 974.945312 669.996094 975.117188 C 670.417969 975.292969 670.816406 975.507812 671.195312 975.757812 C 671.570312 976.011719 671.921875 976.296875 672.242188 976.621094 C 672.5625 976.941406 672.851562 977.289062 673.105469 977.667969 C 673.355469 978.046875 673.570312 978.445312 673.742188 978.867188 C 673.917969 979.285156 674.046875 979.71875 674.136719 980.164062 C 674.226562 980.609375 674.269531 981.058594 674.269531 981.515625 C 674.269531 981.96875 674.226562 982.417969 674.136719 982.863281 C 674.046875 983.3125 673.917969 983.742188 673.742188 984.164062 C 673.570312 984.582031 673.355469 984.980469 673.105469 985.359375 C 672.851562 985.738281 672.5625 986.085938 672.242188 986.410156 C 671.921875 986.730469 671.570312 987.015625 671.195312 987.269531 C 670.816406 987.523438 670.417969 987.734375 669.996094 987.910156 C 669.578125 988.082031 669.144531 988.214844 668.699219 988.304688 C 668.253906 988.390625 667.800781 988.4375 667.347656 988.4375 C 666.894531 988.4375 666.445312 988.390625 665.996094 988.304688 C 665.550781 988.214844 665.117188 988.082031 664.699219 987.910156 C 664.28125 987.734375 663.878906 987.523438 663.503906 987.269531 C 663.125 987.015625 662.773438 986.730469 662.453125 986.410156 C 662.132812 986.085938 661.84375 985.738281 661.59375 985.359375 C 661.339844 984.980469 661.125 984.582031 660.953125 984.164062 C 660.777344 983.742188 660.648438 983.3125 660.558594 982.863281 C 660.46875 982.417969 660.425781 981.96875 660.425781 981.515625 Z M 660.425781 981.515625 " fill-opacity="1" fill-rule="nonzero"/><path fill="#007bff" d="M 843.925781 1052.929688 C 843.925781 1052.476562 843.96875 1052.027344 844.058594 1051.578125 C 844.148438 1051.132812 844.277344 1050.699219 844.453125 1050.28125 C 844.625 1049.859375 844.839844 1049.460938 845.089844 1049.085938 C 845.34375 1048.707031 845.632812 1048.355469 845.953125 1048.035156 C 846.273438 1047.714844 846.625 1047.425781 847 1047.175781 C 847.378906 1046.921875 847.777344 1046.707031 848.199219 1046.535156 C 848.617188 1046.359375 849.050781 1046.230469 849.496094 1046.140625 C 849.941406 1046.050781 850.394531 1046.007812 850.847656 1046.007812 C 851.300781 1046.007812 851.753906 1046.050781 852.199219 1046.140625 C 852.644531 1046.230469 853.078125 1046.359375 853.496094 1046.535156 C 853.917969 1046.707031 854.316406 1046.921875 854.691406 1047.175781 C 855.070312 1047.425781 855.421875 1047.714844 855.742188 1048.035156 C 856.0625 1048.355469 856.351562 1048.707031 856.601562 1049.085938 C 856.855469 1049.460938 857.070312 1049.859375 857.242188 1050.28125 C 857.417969 1050.699219 857.546875 1051.132812 857.636719 1051.578125 C 857.726562 1052.027344 857.769531 1052.476562 857.769531 1052.929688 C 857.769531 1053.382812 857.726562 1053.835938 857.636719 1054.28125 C 857.546875 1054.726562 857.417969 1055.160156 857.242188 1055.578125 C 857.070312 1056 856.855469 1056.398438 856.601562 1056.777344 C 856.351562 1057.152344 856.0625 1057.503906 855.742188 1057.824219 C 855.421875 1058.144531 855.070312 1058.433594 854.691406 1058.6875 C 854.316406 1058.9375 853.917969 1059.152344 853.496094 1059.324219 C 853.078125 1059.5 852.644531 1059.628906 852.199219 1059.71875 C 851.753906 1059.808594 851.300781 1059.851562 850.847656 1059.851562 C 850.394531 1059.851562 849.941406 1059.808594 849.496094 1059.71875 C 849.050781 1059.628906 848.617188 1059.5 848.199219 1059.324219 C 847.777344 1059.152344 847.378906 1058.9375 847 1058.6875 C 846.625 1058.433594 846.273438 1058.144531 845.953125 1057.824219 C 845.632812 1057.503906 845.34375 1057.152344 845.089844 1056.777344 C 844.839844 1056.398438 844.625 1056 844.453125 1055.578125 C 844.277344 1055.160156 844.148438 1054.726562 844.058594 1054.28125 C 843.96875 1053.835938 843.925781 1053.382812 843.925781 1052.929688 Z M 843.925781 1052.929688 " fill-opacity="1" fill-rule="nonzero"/><g clip-path="url(#d7b1742d0b)"><path fill="#007bff" d="M 465.648438 1069.804688 C 465.648438 1069.347656 465.691406 1068.898438 465.78125 1068.453125 C 465.867188 1068.007812 466 1067.574219 466.175781 1067.152344 C 466.347656 1066.734375 466.5625 1066.335938 466.8125 1065.957031 C 467.066406 1065.578125 467.351562 1065.230469 467.675781 1064.90625 C 467.996094 1064.585938 468.347656 1064.300781 468.722656 1064.046875 C 469.101562 1063.792969 469.5 1063.582031 469.921875 1063.40625 C 470.339844 1063.234375 470.773438 1063.101562 471.21875 1063.015625 C 471.664062 1062.925781 472.113281 1062.878906 472.570312 1062.878906 C 473.023438 1062.878906 473.472656 1062.925781 473.921875 1063.015625 C 474.367188 1063.101562 474.796875 1063.234375 475.21875 1063.40625 C 475.636719 1063.582031 476.039062 1063.792969 476.414062 1064.046875 C 476.792969 1064.300781 477.144531 1064.585938 477.464844 1064.90625 C 477.785156 1065.230469 478.074219 1065.578125 478.324219 1065.957031 C 478.578125 1066.335938 478.789062 1066.734375 478.964844 1067.152344 C 479.140625 1067.574219 479.269531 1068.007812 479.359375 1068.453125 C 479.449219 1068.898438 479.492188 1069.347656 479.492188 1069.804688 C 479.492188 1070.257812 479.449219 1070.707031 479.359375 1071.152344 C 479.269531 1071.597656 479.140625 1072.03125 478.964844 1072.453125 C 478.789062 1072.871094 478.578125 1073.269531 478.324219 1073.648438 C 478.074219 1074.027344 477.785156 1074.375 477.464844 1074.699219 C 477.144531 1075.019531 476.792969 1075.304688 476.414062 1075.558594 C 476.039062 1075.8125 475.636719 1076.023438 475.21875 1076.199219 C 474.796875 1076.371094 474.367188 1076.503906 473.921875 1076.59375 C 473.472656 1076.679688 473.023438 1076.726562 472.570312 1076.726562 C 472.113281 1076.726562 471.664062 1076.679688 471.21875 1076.59375 C 470.773438 1076.503906 470.339844 1076.371094 469.921875 1076.199219 C 469.5 1076.023438 469.101562 1075.8125 468.722656 1075.558594 C 468.347656 1075.304688 467.996094 1075.019531 467.675781 1074.699219 C 467.351562 1074.375 467.066406 1074.027344 466.8125 1073.648438 C 466.5625 1073.269531 466.347656 1072.871094 466.175781 1072.453125 C 466 1072.03125 465.867188 1071.597656 465.78125 1071.152344 C 465.691406 1070.707031 465.648438 1070.257812 465.648438 1069.804688 Z M 465.648438 1069.804688 " fill-opacity="1" fill-rule="nonzero"/></g><path fill="#007bff" d="M 487.710938 996.222656 C 487.710938 995.769531 487.757812 995.320312 487.84375 994.875 C 487.933594 994.429688 488.066406 993.996094 488.238281 993.574219 C 488.414062 993.15625 488.625 992.757812 488.878906 992.378906 C 489.132812 992 489.417969 991.652344 489.738281 991.328125 C 490.0625 991.007812 490.410156 990.722656 490.789062 990.46875 C 491.167969 990.214844 491.566406 990.003906 491.984375 989.828125 C 492.40625 989.65625 492.835938 989.523438 493.285156 989.433594 C 493.730469 989.347656 494.179688 989.300781 494.632812 989.300781 C 495.089844 989.300781 495.539062 989.347656 495.984375 989.433594 C 496.429688 989.523438 496.863281 989.65625 497.28125 989.828125 C 497.703125 990.003906 498.101562 990.214844 498.480469 990.46875 C 498.859375 990.722656 499.207031 991.007812 499.527344 991.328125 C 499.851562 991.652344 500.136719 992 500.390625 992.378906 C 500.640625 992.757812 500.855469 993.15625 501.027344 993.574219 C 501.203125 993.996094 501.335938 994.429688 501.421875 994.875 C 501.511719 995.320312 501.554688 995.769531 501.554688 996.222656 C 501.554688 996.679688 501.511719 997.128906 501.421875 997.574219 C 501.335938 998.019531 501.203125 998.453125 501.027344 998.871094 C 500.855469 999.292969 500.640625 999.691406 500.390625 1000.070312 C 500.136719 1000.449219 499.851562 1000.796875 499.527344 1001.117188 C 499.207031 1001.441406 498.859375 1001.726562 498.480469 1001.980469 C 498.101562 1002.230469 497.703125 1002.445312 497.28125 1002.621094 C 496.863281 1002.792969 496.429688 1002.925781 495.984375 1003.011719 C 495.539062 1003.101562 495.089844 1003.144531 494.632812 1003.144531 C 494.179688 1003.144531 493.730469 1003.101562 493.285156 1003.011719 C 492.835938 1002.925781 492.40625 1002.792969 491.984375 1002.621094 C 491.566406 1002.445312 491.167969 1002.230469 490.789062 1001.980469 C 490.410156 1001.726562 490.0625 1001.441406 489.738281 1001.117188 C 489.417969 1000.796875 489.132812 1000.449219 488.878906 1000.070312 C 488.625 999.691406 488.414062 999.292969 488.238281 998.871094 C 488.066406 998.453125 487.933594 998.019531 487.84375 997.574219 C 487.757812 997.128906 487.710938 996.679688 487.710938 996.222656 Z M 487.710938 996.222656 " fill-opacity="1" fill-rule="nonzero"/><path fill="#007bff" d="M 522.785156 1112.789062 C 522.785156 1112.332031 522.832031 1111.882812 522.917969 1111.4375 C 523.007812 1110.992188 523.140625 1110.558594 523.3125 1110.140625 C 523.488281 1109.71875 523.699219 1109.320312 523.953125 1108.941406 C 524.207031 1108.566406 524.492188 1108.214844 524.8125 1107.894531 C 525.136719 1107.570312 525.484375 1107.285156 525.863281 1107.03125 C 526.242188 1106.78125 526.640625 1106.566406 527.058594 1106.394531 C 527.480469 1106.21875 527.914062 1106.085938 528.359375 1106 C 528.804688 1105.910156 529.253906 1105.867188 529.707031 1105.867188 C 530.164062 1105.867188 530.613281 1105.910156 531.058594 1106 C 531.503906 1106.085938 531.9375 1106.21875 532.355469 1106.394531 C 532.777344 1106.566406 533.175781 1106.78125 533.554688 1107.03125 C 533.933594 1107.285156 534.28125 1107.570312 534.601562 1107.894531 C 534.925781 1108.214844 535.210938 1108.566406 535.464844 1108.941406 C 535.714844 1109.320312 535.929688 1109.71875 536.105469 1110.140625 C 536.277344 1110.558594 536.410156 1110.992188 536.496094 1111.4375 C 536.585938 1111.882812 536.628906 1112.332031 536.628906 1112.789062 C 536.628906 1113.242188 536.585938 1113.691406 536.496094 1114.140625 C 536.410156 1114.585938 536.277344 1115.015625 536.105469 1115.4375 C 535.929688 1115.855469 535.714844 1116.257812 535.464844 1116.632812 C 535.210938 1117.011719 534.925781 1117.363281 534.601562 1117.683594 C 534.28125 1118.003906 533.933594 1118.292969 533.554688 1118.542969 C 533.175781 1118.796875 532.777344 1119.007812 532.355469 1119.183594 C 531.9375 1119.359375 531.503906 1119.488281 531.058594 1119.578125 C 530.613281 1119.667969 530.164062 1119.710938 529.707031 1119.710938 C 529.253906 1119.710938 528.804688 1119.667969 528.359375 1119.578125 C 527.914062 1119.488281 527.480469 1119.359375 527.058594 1119.183594 C 526.640625 1119.007812 526.242188 1118.796875 525.863281 1118.542969 C 525.484375 1118.292969 525.136719 1118.003906 524.8125 1117.683594 C 524.492188 1117.363281 524.207031 1117.011719 523.953125 1116.632812 C 523.699219 1116.257812 523.488281 1115.855469 523.3125 1115.4375 C 523.140625 1115.015625 523.007812 1114.585938 522.917969 1114.140625 C 522.832031 1113.691406 522.785156 1113.242188 522.785156 1112.789062 Z M 522.785156 1112.789062 " fill-opacity="1" fill-rule="nonzero"/><path fill="#007bff" d="M 990.433594 817.917969 C 990.433594 817.460938 990.476562 817.011719 990.566406 816.566406 C 990.65625 816.121094 990.785156 815.6875 990.960938 815.265625 C 991.136719 814.847656 991.347656 814.449219 991.601562 814.070312 C 991.851562 813.691406 992.140625 813.34375 992.460938 813.023438 C 992.78125 812.699219 993.132812 812.414062 993.511719 812.160156 C 993.886719 811.910156 994.289062 811.695312 994.707031 811.519531 C 995.128906 811.347656 995.558594 811.214844 996.003906 811.128906 C 996.453125 811.039062 996.902344 810.996094 997.355469 810.996094 C 997.8125 810.996094 998.261719 811.039062 998.707031 811.128906 C 999.152344 811.214844 999.585938 811.347656 1000.003906 811.519531 C 1000.425781 811.695312 1000.824219 811.910156 1001.203125 812.160156 C 1001.578125 812.414062 1001.929688 812.699219 1002.25 813.023438 C 1002.574219 813.34375 1002.859375 813.691406 1003.113281 814.070312 C 1003.363281 814.449219 1003.578125 814.847656 1003.75 815.265625 C 1003.925781 815.6875 1004.058594 816.121094 1004.144531 816.566406 C 1004.234375 817.011719 1004.277344 817.460938 1004.277344 817.917969 C 1004.277344 818.371094 1004.234375 818.820312 1004.144531 819.265625 C 1004.058594 819.710938 1003.925781 820.144531 1003.75 820.566406 C 1003.578125 820.984375 1003.363281 821.382812 1003.113281 821.761719 C 1002.859375 822.140625 1002.574219 822.488281 1002.25 822.8125 C 1001.929688 823.132812 1001.578125 823.417969 1001.203125 823.671875 C 1000.824219 823.925781 1000.425781 824.136719 1000.003906 824.3125 C 999.585938 824.484375 999.152344 824.617188 998.707031 824.707031 C 998.261719 824.792969 997.8125 824.839844 997.355469 824.839844 C 996.902344 824.839844 996.453125 824.792969 996.003906 824.707031 C 995.558594 824.617188 995.128906 824.484375 994.707031 824.3125 C 994.289062 824.136719 993.886719 823.925781 993.511719 823.671875 C 993.132812 823.417969 992.78125 823.132812 992.460938 822.8125 C 992.140625 822.488281 991.851562 822.140625 991.601562 821.761719 C 991.347656 821.382812 991.136719 820.984375 990.960938 820.566406 C 990.785156 820.144531 990.65625 819.710938 990.566406 819.265625 C 990.476562 818.820312 990.433594 818.371094 990.433594 817.917969 Z M 990.433594 817.917969 " fill-opacity="1" fill-rule="nonzero"/><path fill="#007bff" d="M 993.460938 974.160156 C 993.460938 973.703125 993.507812 973.253906 993.59375 972.808594 C 993.683594 972.363281 993.816406 971.929688 993.988281 971.511719 C 994.164062 971.089844 994.375 970.691406 994.628906 970.3125 C 994.882812 969.9375 995.167969 969.585938 995.488281 969.265625 C 995.8125 968.945312 996.160156 968.65625 996.539062 968.402344 C 996.917969 968.152344 997.316406 967.9375 997.734375 967.765625 C 998.15625 967.589844 998.589844 967.460938 999.035156 967.371094 C 999.480469 967.28125 999.929688 967.238281 1000.382812 967.238281 C 1000.839844 967.238281 1001.289062 967.28125 1001.734375 967.371094 C 1002.179688 967.460938 1002.613281 967.589844 1003.035156 967.765625 C 1003.453125 967.9375 1003.851562 968.152344 1004.230469 968.402344 C 1004.609375 968.65625 1004.957031 968.945312 1005.28125 969.265625 C 1005.601562 969.585938 1005.886719 969.9375 1006.140625 970.3125 C 1006.394531 970.691406 1006.605469 971.089844 1006.78125 971.511719 C 1006.953125 971.929688 1007.085938 972.363281 1007.171875 972.808594 C 1007.261719 973.253906 1007.308594 973.703125 1007.308594 974.160156 C 1007.308594 974.613281 1007.261719 975.0625 1007.171875 975.511719 C 1007.085938 975.957031 1006.953125 976.386719 1006.78125 976.808594 C 1006.605469 977.226562 1006.394531 977.628906 1006.140625 978.003906 C 1005.886719 978.382812 1005.601562 978.734375 1005.28125 979.054688 C 1004.957031 979.375 1004.609375 979.664062 1004.230469 979.914062 C 1003.851562 980.167969 1003.453125 980.382812 1003.035156 980.554688 C 1002.613281 980.730469 1002.179688 980.859375 1001.734375 980.949219 C 1001.289062 981.039062 1000.839844 981.082031 1000.382812 981.082031 C 999.929688 981.082031 999.480469 981.039062 999.035156 980.949219 C 998.589844 980.859375 998.15625 980.730469 997.734375 980.554688 C 997.316406 980.382812 996.917969 980.167969 996.539062 979.914062 C 996.160156 979.664062 995.8125 979.375 995.488281 979.054688 C 995.167969 978.734375 994.882812 978.382812 994.628906 978.003906 C 994.375 977.628906 994.164062 977.226562 993.988281 976.808594 C 993.816406 976.386719 993.683594 975.957031 993.59375 975.511719 C 993.507812 975.0625 993.460938 974.613281 993.460938 974.160156 Z M 993.460938 974.160156 " fill-opacity="1" fill-rule="nonzero"/><path fill="#007bff" d="M 808.574219 704.8125 L 872.449219 768.65625 L 872.449219 814.824219 L 850.382812 834.292969 L 850.382812 899.808594 L 894.265625 943.691406 L 893.089844 944.863281 L 848.714844 900.488281 L 848.714844 833.554688 L 870.78125 814.085938 L 870.78125 769.335938 L 807.398438 705.957031 Z M 808.574219 704.8125 " fill-opacity="1" fill-rule="nonzero"/><path fill="#007bff" d="M 494.632812 995.390625 L 537.125 995.390625 L 563.515625 1045.605469 L 678.660156 1045.605469 L 705.480469 1016.15625 L 815.246094 1016.15625 L 851.433594 1052.34375 L 850.261719 1053.515625 L 814.566406 1017.824219 L 706.222656 1017.824219 L 679.398438 1047.242188 L 562.527344 1047.242188 L 536.136719 997.058594 L 494.632812 997.058594 Z M 494.632812 995.390625 " fill-opacity="1" fill-rule="nonzero"/><g clip-path="url(#6d35dc5c5a)"><path fill="#007bff" d="M 545.84375 713.636719 C 566.042969 715.828125 589.933594 715.164062 606.910156 702.804688 C 616.414062 695.925781 622.394531 685.359375 625.351562 674.128906 C 626.113281 671.304688 626.78125 668.28125 627.277344 665.425781 C 627.578125 663.730469 627.84375 661.804688 628.109375 660.078125 C 628.175781 661.273438 628.207031 662.5 628.242188 663.699219 C 628.242188 666.6875 628.074219 669.8125 627.710938 672.769531 C 624.953125 694.929688 610.964844 710.445312 589.203125 715.496094 C 574.914062 718.753906 559.765625 717.886719 545.808594 713.636719 Z M 433.640625 715.929688 C 449.65625 725.464844 467.332031 732.109375 485.339844 736.859375 C 510.921875 743.472656 537.96875 745.730469 564.117188 741.078125 C 567.074219 740.480469 570.296875 739.882812 573.21875 739.085938 C 574.714844 738.6875 576.210938 738.289062 577.707031 737.890625 C 575.511719 738.15625 572.988281 738.457031 570.792969 738.753906 C 568.535156 738.953125 566.109375 739.1875 563.882812 739.417969 C 562.289062 739.519531 558.566406 739.75 556.972656 739.851562 C 539.398438 740.679688 521.652344 739.453125 504.34375 736.496094 C 480.121094 732.339844 456.367188 725.332031 433.640625 715.894531 Z M 605.78125 725.597656 C 631.5625 719.949219 660.070312 700.378906 654.722656 670.542969 C 652.863281 660.078125 646.449219 650.507812 637.410156 644.957031 C 629.636719 639.976562 620.46875 638.746094 611.828125 642.101562 C 607.441406 643.761719 603.390625 646.386719 599.832031 649.410156 C 601.195312 648.648438 602.457031 647.78125 603.855469 647.117188 C 612.261719 642.53125 621.863281 640.871094 630.734375 645.125 C 635.386719 647.316406 639.539062 650.605469 642.792969 654.59375 C 650.570312 663.863281 653.160156 677.121094 649.371094 688.617188 C 643.160156 707.125 623.191406 718.917969 605.8125 725.597656 Z M 406.460938 721.277344 C 414.902344 728.753906 424.4375 734.933594 434.238281 740.480469 C 439.6875 743.539062 445.601562 746.394531 451.316406 748.921875 C 492.582031 767.09375 538.300781 770.949219 582.390625 762.34375 C 612.328125 756.398438 644.953125 745.234375 665.289062 721.246094 C 684.625 698.417969 688.945312 665.890625 672.03125 640.472656 C 663.992188 628.28125 651.699219 619.308594 637.644531 615.386719 C 617.910156 609.804688 596.476562 615.023438 580.960938 628.246094 C 572.953125 634.957031 567.007812 644.726562 569.730469 655.457031 C 571.425781 662.203125 575.28125 668.816406 581.59375 672.136719 C 589.203125 676.222656 598.472656 675.59375 606.414062 672.902344 C 605.082031 673.332031 603.6875 673.632812 602.324219 673.898438 C 598.207031 674.664062 593.917969 674.828125 589.800781 674.128906 C 581.0625 672.703125 574.980469 666.886719 572.222656 658.582031 C 570.363281 653.230469 570.128906 647.980469 572.355469 642.699219 C 575.3125 635.722656 581.226562 630.4375 587.441406 626.351562 C 594.316406 621.765625 602.160156 618.675781 610.265625 617.214844 C 643.09375 611.335938 673.59375 634.425781 677.914062 667.285156 C 680.207031 684.230469 674.824219 701.773438 664.558594 715.296875 C 644.988281 740.8125 612.0625 752.078125 581.625 758.488281 C 538.132812 767.328125 493.246094 764.203125 451.980469 747.328125 C 440.984375 742.808594 430.25 737.425781 420.183594 731.046875 C 415.464844 728.054688 410.78125 724.867188 406.460938 721.277344 Z M 576.210938 768.457031 C 597.007812 774.238281 619.835938 771.847656 639.503906 763.140625 C 653.992188 756.695312 666.683594 746.496094 676.75 734.300781 C 689.542969 718.71875 698.378906 699.945312 703.761719 680.675781 C 694.261719 703.300781 681.96875 725.363281 663.660156 742.011719 C 650.800781 753.773438 635.085938 762.3125 618.140625 766.398438 C 604.519531 769.6875 590.132812 770.585938 576.210938 768.457031 Z M 442.476562 760.152344 C 455.238281 767.859375 468.859375 774.207031 482.714844 779.6875 C 509.625 790.085938 538.53125 797.164062 567.570312 796.402344 C 575.644531 796.101562 583.6875 794.972656 591.527344 793.042969 C 594.917969 792.246094 599.734375 790.753906 603.089844 789.753906 C 619.667969 784.871094 643.65625 777.5625 660.105469 772.609375 C 672.398438 769.054688 693.996094 767.394531 703.695312 777.128906 C 708.914062 782.480469 709.277344 790.953125 706.785156 797.730469 C 704.859375 803.113281 700.773438 807.429688 696.1875 810.71875 C 690.242188 815.007812 682.632812 819.292969 675.15625 816.835938 C 667.8125 814.476562 663.09375 806.46875 663.792969 798.890625 C 664.160156 794.007812 667.015625 789.488281 671.101562 786.765625 C 671.46875 786.5 671.933594 786.234375 672.363281 785.96875 C 672.699219 785.769531 673.328125 785.402344 673.660156 785.238281 L 672.996094 785.535156 L 671.667969 786.199219 C 671.433594 786.300781 671.234375 786.433594 671.003906 786.566406 C 653.328125 797.628906 666.417969 825.605469 686.949219 818.496094 C 690.839844 817.167969 694.425781 815.171875 697.78125 812.847656 C 702.964844 809.390625 707.484375 804.773438 709.742188 798.824219 C 713.796875 788.460938 711.539062 776.300781 701.269531 770.652344 C 689.011719 763.90625 670.605469 765.070312 657.546875 769.023438 C 641.597656 773.742188 617.875 780.851562 601.894531 785.734375 C 590.761719 789.324219 579.132812 791.980469 567.40625 792.511719 C 538.796875 793.542969 510.324219 787.195312 483.410156 777.859375 C 469.421875 772.875 455.636719 767.128906 442.476562 760.183594 Z M 442.476562 760.152344 " fill-opacity="1" fill-rule="nonzero"/></g></svg>