<?xml version='1.0' encoding='utf-8'?>
<svg xmlns="http://www.w3.org/2000/svg" version="1.1" width="411" height="389" viewBox="306 269 411 389">
<path d="M0 0 C0.66 0 1.32 0 2 0 C3.50392853 1.90476898 4.88286741 3.81181816 6.25 5.8125 C7.15343634 7.10652539 8.058472 8.39943521 8.96484375 9.69140625 C9.4532373 10.3889502 9.94163086 11.08649414 10.44482422 11.80517578 C13.17743521 15.66171783 15.99857832 19.45260569 18.8125 23.25 C23.41361047 29.47272136 27.97929034 35.71862921 32.5 42 C36.94415333 48.17198504 41.42297376 54.31678988 45.9375 60.4375 C46.50944092 61.21351563 47.08138184 61.98953125 47.6706543 62.7890625 C50.75695484 66.97270474 53.85391253 71.14813094 56.9609375 75.31640625 C57.60554932 76.18402588 58.25016113 77.05164551 58.91430664 77.94555664 C60.15498589 79.61516783 61.39883447 81.28242982 62.64624023 82.94702148 C63.48070679 84.0715271 63.48070679 84.0715271 64.33203125 85.21875 C65.07030151 86.2077832 65.07030151 86.2077832 65.82348633 87.21679688 C67 89 67 89 68 92 C54.14 92 40.28 92 26 92 C26.01771307 118.7210317 26.05603945 145.44177321 26.13209057 172.16269684 C26.16674022 184.56974757 26.19209608 196.9766872 26.19555664 209.38378906 C26.19859655 220.19811857 26.21909084 231.0122502 26.26052457 241.82650328 C26.28185357 247.55234907 26.29445553 253.27791356 26.28615379 259.00379944 C26.27861327 264.39490483 26.29443722 269.78544024 26.32806015 275.17644119 C26.33629328 277.15328415 26.33604355 279.13018379 26.32659721 281.10702133 C26.31495642 283.81115214 26.33412159 286.51342075 26.36076355 289.21740723 C26.35009029 289.99563984 26.33941703 290.77387246 26.32842034 291.57568789 C26.4527219 298.36031668 29.28144165 302.98673068 33.765625 307.95703125 C37.3144838 309.61357898 40.87745929 309.57511283 44.75 309.6875 C45.54277344 309.72166016 46.33554687 309.75582031 47.15234375 309.79101562 C49.10107504 309.87319104 51.05051362 309.93828045 53 310 C52.88190779 304.90950418 52.75767087 299.81920995 52.62768555 294.72900391 C52.5843192 292.99662374 52.54264537 291.26420037 52.50268555 289.53173828 C52.44502406 287.04446373 52.38131802 284.55740707 52.31640625 282.0703125 C52.29969376 281.29317902 52.28298126 280.51604553 52.26576233 279.71536255 C52.23526571 275.72725784 52.23526571 275.72725784 51 272 C49.9275 271.5875 48.855 271.175 47.75 270.75 C43.76227726 269.06446771 40.79684986 267.03503126 39 263 C38.08644174 258.01695492 37.75291629 253.22883046 40.28515625 248.703125 C42.95866966 245.52381176 45.11595842 243.18778846 49.390625 242.76171875 C55.4451031 242.604567 59.33908985 242.68865811 64 247 C67.19469534 250.72714457 67.4414323 254.06938392 67.30859375 258.8046875 C67 261 67 261 65.4375 264.0625 C63.81172417 267.38473757 64.19949165 268.86861595 64.72018433 272.40966797 C65.34245038 278.17015906 65.12031767 283.99354945 65.09765625 289.78125 C65.09664917 291.03131836 65.09564209 292.28138672 65.09460449 293.56933594 C65.08939555 298.21290003 65.07543436 302.856451 65.0625 307.5 C65.041875 317.895 65.02125 328.29 65 339 C35.3 339 5.6 339 -25 339 C-25 295.11 -25 251.22 -25 206 C-40.84 206 -56.68 206 -73 206 C-69.42397015 202.42397015 -65.85695268 199.05674281 -62 195.8125 C-61.43531006 195.33619141 -60.87062012 194.85988281 -60.28881836 194.36914062 C-55.41634089 190.29017126 -50.41280599 186.40298716 -45.3515625 182.5625 C-42.9484498 180.7361916 -40.57347754 178.87850159 -38.2109375 177 C-37.5811499 176.49984375 -36.9513623 175.9996875 -36.30249023 175.484375 C-35.08884074 174.51841232 -33.87729661 173.54979653 -32.66821289 172.578125 C-29.8290838 170.32307138 -27.27000835 168.63500417 -24 167 C-24 142.25 -24 117.5 -24 92 C-38.19 92 -52.38 92 -67 92 C-67 91.34 -67 90.68 -67 90 C-66.34 90 -65.68 90 -65 90 C-64.80535156 89.3503125 -64.61070312 88.700625 -64.41015625 88.03125 C-62.38501073 83.67802861 -59.43475258 80.2279456 -56.4375 76.5 C-51.46560857 70.21911759 -46.75478675 63.88320962 -42.2578125 57.25390625 C-39.67759182 53.53535291 -36.97997439 49.92170806 -34.25 46.3125 C-29.98754456 40.67669973 -25.80711074 34.99101904 -21.6875 29.25 C-16.77436175 22.42481897 -11.82126745 15.63036828 -6.8125 8.875 C-6.16434326 7.99102539 -5.51618652 7.10705078 -4.84838867 6.19628906 C-4.24486572 5.38643555 -3.64134277 4.57658203 -3.01953125 3.7421875 C-2.21672729 2.65719971 -2.21672729 2.65719971 -1.39770508 1.55029297 C-0.9364624 1.03869629 -0.47521973 0.52709961 0 0 Z " fill="#0098A0" transform="translate(404,294)" />
<path d="M0 0 C3.03283103 1.18469962 4.97445216 2.71869211 7.4375 4.8515625 C8.39914062 5.66625 9.36078125 6.4809375 10.3515625 7.3203125 C10.86235352 7.75472656 11.37314453 8.18914062 11.89941406 8.63671875 C14.65189527 10.94080918 17.48309542 13.14316989 20.3125 15.3515625 C21.19723999 16.04475586 21.19723999 16.04475586 22.09985352 16.75195312 C24.47519527 18.61284663 26.85261275 20.47107085 29.23095703 22.328125 C36.8462334 28.27599715 44.38893998 34.30292325 51.87695312 40.41040039 C56.69779712 44.33825504 61.57925111 48.17416563 66.5 51.9765625 C69.8 54.6165625 73.1 57.2565625 76.5 59.9765625 C76.83 46.7765625 77.16 33.5765625 77.5 19.9765625 C93.34 19.9765625 109.18 19.9765625 125.5 19.9765625 C125.36335937 25.58914063 125.22671875 31.20171875 125.0859375 36.984375 C125.03949646 40.56690419 124.99846284 44.14790959 124.9765625 47.73046875 C124.9413811 53.40297262 124.88761207 59.07052298 124.71484375 64.74072266 C122.91667487 86.28788189 122.91667487 86.28788189 130.328125 105.42016602 C133.95414996 108.58186692 137.81801107 110.77977463 142.17318726 112.78334045 C146.15335989 114.82442852 149.3831996 117.75370891 152.75 120.6640625 C154.05172928 121.73407776 155.35603861 122.80096997 156.6640625 123.86328125 C157.29731445 124.37938965 157.93056641 124.89549805 158.58300781 125.42724609 C162.29100928 128.4240593 166.04746134 131.35939436 169.80957031 134.2878418 C173.43604748 137.11585389 177.02182179 139.96840837 180.5 142.9765625 C180.5 143.3065625 180.5 143.6365625 180.5 143.9765625 C164.66 143.9765625 148.82 143.9765625 132.5 143.9765625 C132.5 187.8665625 132.5 231.7565625 132.5 276.9765625 C102.8 276.9765625 73.1 276.9765625 42.5 276.9765625 C42.149375 267.3240625 41.79875 257.6715625 41.4375 247.7265625 C41.28273193 244.70338867 41.12796387 241.68021484 40.96850586 238.56542969 C40.42124933 220.04594826 40.42124933 220.04594826 44.17510986 214.50317383 C48.10634253 210.61613825 52.55605499 207.9925638 57.61573792 205.81719971 C59.7626622 204.92247879 59.7626622 204.92247879 62.5 202.9765625 C63.03860637 200.9825657 63.03860637 200.9825657 63.25 198.7265625 C64.1435651 193.95061111 66.05028894 191.96363026 69.84375 189.0703125 C73.49505938 186.65907045 76.1250338 186.68489809 80.5 186.9765625 C85.28089864 188.69768601 89.23074722 191.321685 91.5 195.9765625 C92.28110874 200.57478755 92.09610127 204.53336996 90.3125 208.8515625 C87.75864611 211.84573603 85.0292376 214.2119437 81.5 215.9765625 C74.33082077 216.33502146 74.33082077 216.33502146 70.59375 214.72265625 C67.43199821 213.59809106 67.43199821 213.59809106 64.578125 215.53125 C63.64484375 216.29695312 62.7115625 217.06265625 61.75 217.8515625 C56.63220339 221.9765625 56.63220339 221.9765625 54.5 221.9765625 C54.5 230.5565625 54.5 239.1365625 54.5 247.9765625 C70.34 247.9765625 86.18 247.9765625 102.5 247.9765625 C102.7312031 231.11997625 102.89503789 214.26721511 102.93784332 197.40928364 C102.9598499 189.58061999 103.01142524 181.75429803 103.13427734 173.92651367 C103.24136644 167.09820678 103.29127982 160.27219586 103.27444887 153.44303006 C103.26749269 149.83056248 103.28785323 146.22320203 103.37687683 142.61171913 C104.41827519 126.45717621 104.41827519 126.45717621 98.05102539 112.41708374 C94.80066202 109.49850647 91.32662619 107.22600247 87.50561523 105.12657738 C84.37567803 103.33187903 81.6852881 101.1101164 78.875 98.8515625 C77.82957031 98.05363281 76.78414062 97.25570312 75.70703125 96.43359375 C70.51569089 92.4686297 65.39670434 88.41068916 60.26611328 84.36767578 C57.92835011 82.52629141 55.58830399 80.68782251 53.24804688 78.84960938 C51.49712423 77.47430365 49.74660958 76.09847973 47.99609375 74.72265625 C45.67719876 72.90052872 43.35677485 71.08037456 41.03515625 69.26171875 C35.63415716 65.02850325 30.24401516 60.78316241 24.88989258 56.49072266 C23.63734362 55.48719486 22.38328968 54.48554239 21.12768555 53.48583984 C17.92812867 50.93672167 14.75552896 48.36251595 11.6171875 45.73828125 C10.36981328 44.71351535 9.12241823 43.68877482 7.875 42.6640625 C7.30716797 42.17744141 6.73933594 41.69082031 6.15429688 41.18945312 C3.79756057 39.27301725 2.13443196 38.01608781 -0.9453125 37.82421875 C-4.72991023 39.53133852 -7.61147229 42.03865561 -10.75 44.7265625 C-12.17916705 45.92015438 -13.61021775 47.11149381 -15.04296875 48.30078125 C-15.77821777 48.91228027 -16.5134668 49.5237793 -17.27099609 50.15380859 C-20.79973731 53.0394145 -24.42684318 55.79023256 -28.0625 58.5390625 C-33.43544469 62.61332179 -38.75110539 66.74365055 -44 70.9765625 C-49.53715286 75.43287627 -55.11998098 79.82555167 -60.75 84.1640625 C-61.47767578 84.72931641 -62.20535156 85.29457031 -62.95507812 85.87695312 C-63.63505859 86.39837891 -64.31503906 86.91980469 -65.015625 87.45703125 C-65.61665039 87.92004639 -66.21767578 88.38306152 -66.83691406 88.86010742 C-68.5 89.9765625 -68.5 89.9765625 -71.5 90.9765625 C-71.84954968 86.05175328 -72.10151685 81.13431333 -72.26904297 76.19995117 C-72.33891158 74.52777323 -72.43406951 72.85643424 -72.55615234 71.18725586 C-73.51273043 57.75898953 -73.51273043 57.75898953 -70.20959473 53.19268799 C-66.92813443 49.90487166 -63.1624629 47.43287279 -59.20367432 45.03433228 C-57.01995624 43.67851506 -55.08229071 42.10761189 -53.125 40.4453125 C-52.52026855 39.9507959 -51.91553711 39.4562793 -51.29248047 38.94677734 C-50.70096191 38.46160645 -50.10944336 37.97643555 -49.5 37.4765625 C-42.23811387 31.55011444 -34.8876515 25.74497416 -27.5 19.9765625 C-25.69911032 18.56926426 -23.89878114 17.16127051 -22.09985352 15.75146484 C-20.92083139 14.82802367 -19.74035878 13.90643105 -18.55834961 12.98681641 C-15.76380245 10.80267282 -13.0210131 8.5859798 -10.3515625 6.25 C-8.90910156 5.00089844 -8.90910156 5.00089844 -7.4375 3.7265625 C-6.60089844 2.97890625 -5.76429688 2.23125 -4.90234375 1.4609375 C-2.5 -0.0234375 -2.5 -0.0234375 0 0 Z " fill="#00969E" transform="translate(512.5,356.0234375)" />
<path d="M0 0 C4.81721665 2.36316288 7.60160527 5.20321055 10 10 C10.94838947 15.32803075 9.99731458 19.45235029 7 24 C5.69240723 24.88909058 5.69240723 24.88909058 4.35839844 25.79614258 C1.68781193 27.77894956 1.68781193 27.77894956 1.86425781 30.77612305 C2.05858398 31.84386963 2.25291016 32.91161621 2.453125 34.01171875 C4.49705323 51.55426946 4.49705323 51.55426946 1 59 C-1.16402188 61.58273109 -3.65167233 63.51816424 -6.359375 65.5078125 C-7.08357132 66.0466507 -7.80776764 66.58548889 -8.5539093 67.14065552 C-9.30158066 67.69413666 -10.04925201 68.2476178 -10.81958008 68.81787109 C-21.77097275 76.93034361 -31.22376306 84.75688022 -33.35382271 98.9210844 C-34.77670929 110.91576784 -34.76840673 123.00243381 -34.5625 135.0625 C-34.54627594 136.01686069 -34.53005188 136.97122139 -34.51333618 137.95450211 C-34.28241657 149.98523221 -33.76467626 161.99188915 -33 174 C-36.96 174 -40.92 174 -45 174 C-45.18555629 162.77778922 -45.32760598 151.55594472 -45.41449738 140.33251095 C-45.45620682 135.1206173 -45.51275654 129.90977492 -45.60351562 124.69848633 C-45.69059461 119.66687799 -45.73830606 114.63627912 -45.75901794 109.6039753 C-45.77377273 107.68654045 -45.80258735 105.76915941 -45.84584045 103.85215569 C-46.17014962 88.87982452 -46.17014962 88.87982452 -43.39318848 84.41868591 C-41.35862214 82.6116874 -39.37109334 81.32314218 -37 80 C-35.88052219 79.10286369 -34.78049874 78.18070347 -33.70507812 77.23120117 C-33.18530396 76.7941687 -32.66552979 76.35713623 -32.13000488 75.90686035 C-17.02301261 63.65986922 -17.02301261 63.65986922 -9.09375 46.6875 C-8.39648519 35.88328674 -8.39648519 35.88328674 -12.42822266 26.24560547 C-14.19812005 24.72439379 -14.19812005 24.72439379 -17 23 C-19.56661353 18.80008694 -19.9484973 13.78337002 -19 9 C-14.57434217 1.39878898 -8.57587858 -1.19316572 0 0 Z " fill="#008D95" transform="translate(551,459)" />
<path d="M0 0 C4.19812144 3.51470632 5.5384708 5.68519344 6.0625 11.1875 C5.89095554 15.14793955 4.89319046 17.90343517 2.6875 21.25 C1.8521875 21.8275 1.016875 22.405 0.15625 23 C-3.08085889 25.95027645 -3.3135064 27.66698459 -3.625 32 C-3.49725061 37.50502507 -3.49725061 37.50502507 -0.72834778 42.02128601 C0.63806394 43.1698383 2.02025565 44.29979637 3.41505432 45.41370392 C9.06450619 49.96646243 13.77768348 54.37362055 15.11254883 61.72387695 C15.72982027 68.08087054 15.4925107 74.4097153 15.25 80.78125 C15.22009323 83.11242846 15.19734845 85.4437087 15.18139648 87.77502441 C15.12080139 93.86047538 14.96411605 99.93964609 14.78613281 106.02264404 C14.62134773 112.24990894 14.54914978 118.47820656 14.46875 124.70703125 C14.29803988 136.89075461 14.02561383 149.06985175 13.6875 161.25 C9.7275 161.25 5.7675 161.25 1.6875 161.25 C1.7082811 160.01797348 1.72906219 158.78594696 1.75047302 157.5165863 C1.93729778 145.85131631 2.04377406 134.18764586 2.07353115 122.52088833 C2.09135755 116.52379538 2.13653296 110.52961733 2.24633789 104.53344727 C2.3514651 98.73584252 2.38197154 92.94201997 2.36284065 87.14354134 C2.36828793 84.94238231 2.39969385 82.74111523 2.45864677 80.54073906 C3.01865479 67.21095471 3.01865479 67.21095471 -2.71360779 55.65992737 C-5.30273584 52.97592488 -8.04607946 50.6107717 -10.9473877 48.27331543 C-13.5621949 46.13484397 -14.26658806 45.36986779 -15.52197266 42.09228516 C-15.78286969 39.35211801 -15.66238804 37.03003147 -15.25 34.3125 C-15.18232422 33.42626953 -15.11464844 32.54003906 -15.04492188 31.62695312 C-14.87200619 29.4943263 -14.60303213 27.3698085 -14.3125 25.25 C-14.92738281 24.95996094 -15.54226563 24.66992188 -16.17578125 24.37109375 C-19.90389485 22.41502683 -21.98323246 20.23780263 -23.3125 16.25 C-23.86135106 11.5262819 -23.77846728 8.14865118 -21.5625 3.875 C-15.3965909 -3.31856061 -8.47492205 -4.47731731 0 0 Z " fill="#008C94" transform="translate(480.3125,471.75)" />
<path d="M0 0 C5.34740414 1.95385921 8.45618143 4.91236287 11 10 C11.54636649 16.44712464 10.73885508 19.70328864 7 25 C5.94425781 25.68255859 5.94425781 25.68255859 4.8671875 26.37890625 C2.742698 27.85214987 2.742698 27.85214987 2.7421875 30.3828125 C2.78601563 31.28773438 2.82984375 32.19265625 2.875 33.125 C2.58561714 38.232944 1.36705268 40.28529503 -2.4375 43.6875 C-4.26901654 45.15374945 -6.12340768 46.59190144 -8 48 C-9.58587256 49.26766322 -11.16924613 50.53845957 -12.75 51.8125 C-13.57113281 52.45960938 -14.39226563 53.10671875 -15.23828125 53.7734375 C-19.08905355 56.87802054 -22.8283014 60.10667762 -26.56347656 63.34887695 C-27.38090332 64.05596802 -27.38090332 64.05596802 -28.21484375 64.77734375 C-28.75680389 65.26301315 -29.29876404 65.74868256 -29.85714722 66.24906921 C-32 68 -32 68 -34.73043823 69.69885254 C-39.32360892 72.78144282 -42.47502477 75.13062119 -44.00727844 80.58680725 C-44.50472646 84.93113536 -44.39587267 89.26522364 -44.29296875 93.62890625 C-44.29489341 95.23031376 -44.30167103 96.83172208 -44.31306458 98.43309021 C-44.32997169 102.62148089 -44.28152825 106.80659061 -44.21887207 110.9944458 C-44.16654082 115.27817628 -44.17682439 119.56172318 -44.18164062 123.84570312 C-44.18193905 132.23153305 -44.11311438 140.61493611 -44 149 C-47.96 149 -51.92 149 -56 149 C-56.32583819 139.16870068 -56.57384534 129.33870486 -56.72537041 119.50308609 C-56.79813913 114.9345118 -56.89662539 110.36965613 -57.05615234 105.80322266 C-57.20943768 101.38729791 -57.29220274 96.97492284 -57.3282814 92.55654144 C-57.35395119 90.88007462 -57.40408883 89.20378073 -57.48022079 87.52884674 C-58.03388599 74.83101426 -58.03388599 74.83101426 -54.67084503 70.1499176 C-51.42778495 66.69449298 -47.76104564 63.92608229 -43.8494606 61.27294159 C-40.80874204 59.18008429 -37.95184619 56.85709116 -35.0625 54.5625 C-33.91215702 53.66837121 -32.76119359 52.7750396 -31.609375 51.8828125 C-26.89339439 48.16695403 -22.3880492 44.20770227 -17.88500977 40.23852539 C-17.29002686 39.71508545 -16.69504395 39.19164551 -16.08203125 38.65234375 C-15.55843018 38.18820068 -15.0348291 37.72405762 -14.49536133 37.24584961 C-13 36 -13 36 -10 34 C-9.24862832 31.1292764 -9.24862832 31.1292764 -10 28 C-12.84151217 25.32651508 -12.84151217 25.32651508 -16 23 C-18.60641605 18.82973432 -18.66522917 14.78133469 -18 10 C-14.24297249 2.34144392 -8.40400378 -1.37825662 0 0 Z " fill="#007E85" transform="translate(587,484)" />
<path d="M0 0 C3.37174046 2.19896117 6.09895787 4.23183666 7.875 7.875 C8.66779124 12.5419975 8.49883177 16.47880509 6.5625 20.8125 C3.55792683 24.4847561 3.55792683 24.4847561 1.875 25.875 C1.215 25.875 0.555 25.875 -0.125 25.875 C-0.125 35.445 -0.125 45.015 -0.125 54.875 C1.195 55.535 2.515 56.195 3.875 56.875 C6.55707492 59.18456452 7.72913457 60.91812279 8.265625 64.4375 C8.49171773 70.38050882 8.06886404 74.34109293 3.875 78.875 C0.03786804 82.26070467 -3.75901462 82.38791172 -8.6875 82.2265625 C-13.33075557 81.55686218 -15.94149566 79.17685478 -19 75.8125 C-20.78179861 71.16002584 -21.01278463 66.77529154 -20.125 61.875 C-18.53422688 59.04858049 -16.71291039 56.8393983 -14.125 54.875 C-13.465 54.875 -12.805 54.875 -12.125 54.875 C-12.11872648 50.33207513 -12.17839705 45.79231242 -12.25 41.25 C-12.24742187 39.96480469 -12.24484375 38.67960937 -12.2421875 37.35546875 C-12.1546121 29.51569618 -12.1546121 29.51569618 -16.1171875 23.1640625 C-17.10976563 22.40867187 -18.10234375 21.65328125 -19.125 20.875 C-20.58519366 16.49441901 -20.86563569 12.44340704 -20.125 7.875 C-15.68746527 -0.04607176 -8.7529903 -3.15107651 0 0 Z " fill="#00ADB7" transform="translate(518.125,437.125)" />
<path d="M0 0 C2.83340719 1.33865482 4.90509761 2.92622787 7.27734375 4.98046875 C8.23898437 5.79515625 9.200625 6.60984375 10.19140625 7.44921875 C10.70219727 7.88363281 11.21298828 8.31804687 11.73925781 8.765625 C14.49173902 11.06971543 17.32293917 13.27207614 20.15234375 15.48046875 C21.03708374 16.17366211 21.03708374 16.17366211 21.93969727 16.88085938 C24.31503902 18.74175288 26.6924565 20.5999771 29.07080078 22.45703125 C36.68607715 28.4049034 44.22878373 34.4318295 51.71679688 40.53930664 C56.53764087 44.46716129 61.41909486 48.30307188 66.33984375 52.10546875 C69.63984375 54.74546875 72.93984375 57.38546875 76.33984375 60.10546875 C76.66984375 46.90546875 76.99984375 33.70546875 77.33984375 20.10546875 C93.17984375 20.10546875 109.01984375 20.10546875 125.33984375 20.10546875 C125.33984375 46.17546875 125.33984375 72.24546875 125.33984375 99.10546875 C125.00984375 99.10546875 124.67984375 99.10546875 124.33984375 99.10546875 C124.32438255 97.76576019 124.32438255 97.76576019 124.30860901 96.39898682 C124.2106367 87.98253347 124.10812254 79.56615036 124.00050449 71.14981461 C123.94533715 66.82288379 123.89192708 62.49594615 123.8425293 58.16894531 C123.79479442 53.99326501 123.74244838 49.81766567 123.686903 45.64208221 C123.66652077 44.04890712 123.64780093 42.45570986 123.63076973 40.86249542 C123.60663409 38.6312306 123.57659233 36.4001177 123.54516602 34.16894531 C123.52962173 32.89875549 123.51407745 31.62856567 123.49806213 30.31988525 C123.4361528 26.93948497 123.4361528 26.93948497 122.33984375 23.10546875 C108.80984375 23.43546875 95.27984375 23.76546875 81.33984375 24.10546875 C80.33198247 28.13691389 80.27022445 31.25161311 80.34765625 35.390625 C80.36516423 36.82225864 80.3820733 38.25389971 80.3984375 39.68554688 C80.42945596 41.93290823 80.46508869 44.1798973 80.51123047 46.42700195 C80.55352704 48.60242401 80.57698888 50.77740458 80.59765625 52.953125 C80.61973145 54.25258057 80.64180664 55.55203613 80.66455078 56.89086914 C80.33984375 60.10546875 80.33984375 60.10546875 77.33984375 63.10546875 C72.88484375 61.12546875 72.88484375 61.12546875 68.33984375 59.10546875 C68.33984375 57.78546875 68.33984375 56.46546875 68.33984375 55.10546875 C67.61796875 54.85796875 66.89609375 54.61046875 66.15234375 54.35546875 C63.06377793 52.98277283 60.82972957 51.38193579 58.33984375 49.10546875 C58.33984375 48.44546875 58.33984375 47.78546875 58.33984375 47.10546875 C57.65148437 46.89019531 56.963125 46.67492187 56.25390625 46.453125 C52.49308985 44.71387345 49.78872886 42.28349874 46.71484375 39.54296875 C42.46443433 35.63767034 42.46443433 35.63767034 37.33984375 33.10546875 C37.00984375 32.44546875 36.67984375 31.78546875 36.33984375 31.10546875 C35.51484375 30.63109375 34.68984375 30.15671875 33.83984375 29.66796875 C31.33984375 28.10546875 31.33984375 28.10546875 30.33984375 25.10546875 C28.50699932 23.9803079 28.50699932 23.9803079 26.33984375 23.10546875 C25.00651042 22.43880208 23.67317708 21.77213542 22.33984375 21.10546875 C22.33984375 20.44546875 22.33984375 19.78546875 22.33984375 19.10546875 C20.00770227 17.89918867 17.84342236 16.93999495 15.33984375 16.10546875 C13.65234375 14.66796875 13.65234375 14.66796875 12.33984375 13.10546875 C12.33984375 12.44546875 12.33984375 11.78546875 12.33984375 11.10546875 C11.80359375 10.85796875 11.26734375 10.61046875 10.71484375 10.35546875 C7.75744555 8.79894338 5.04260324 7.07111202 2.33984375 5.10546875 C2.33984375 4.44546875 2.33984375 3.78546875 2.33984375 3.10546875 C1.56640625 3.50765625 1.56640625 3.50765625 0.77734375 3.91796875 C-1.66015625 5.10546875 -1.66015625 5.10546875 -4.97265625 6.29296875 C-8.76748559 7.89164154 -11.07167998 10.32843643 -13.86328125 13.29296875 C-16.16808628 15.61781556 -18.69525507 17.44686105 -21.34375 19.359375 C-25.34576504 22.37607099 -29.11761194 25.67790497 -32.92578125 28.93359375 C-35.66015625 31.10546875 -35.66015625 31.10546875 -37.76953125 32.08984375 C-39.87330864 33.05839126 -39.87330864 33.05839126 -41.49609375 35.4296875 C-44.04090087 38.57624503 -46.9722412 40.66865253 -50.28515625 42.91796875 C-51.53260674 43.78972844 -52.7786903 44.66344723 -54.0234375 45.5390625 C-54.63654785 45.96944824 -55.2496582 46.39983398 -55.88134766 46.84326172 C-58.45450983 48.66912618 -60.97523627 50.55244611 -63.47265625 52.48046875 C-64.26285156 53.08632813 -65.05304688 53.6921875 -65.8671875 54.31640625 C-69.11770955 57.55984656 -68.85465907 61.43950258 -69.22265625 65.85546875 C-69.34833984 67.33273437 -69.34833984 67.33273437 -69.4765625 68.83984375 C-69.53714844 69.5875 -69.59773438 70.33515625 -69.66015625 71.10546875 C-68.34015625 70.11546875 -67.02015625 69.12546875 -65.66015625 68.10546875 C-65.00015625 68.43546875 -64.34015625 68.76546875 -63.66015625 69.10546875 C-65.64015625 70.75546875 -67.62015625 72.40546875 -69.66015625 74.10546875 C-72.10519051 71.66043449 -71.27609717 65.42161451 -71.31103516 62.03295898 C-71.20094222 58.30051287 -71.05460458 55.77847079 -69.14453125 52.51953125 C-66.7764416 50.44087478 -64.31838377 48.79805443 -61.66015625 47.10546875 C-60.04432188 45.84804126 -58.4292916 44.58934855 -56.83227539 43.30810547 C-55.05895541 41.88695361 -53.26788296 40.49100213 -51.47265625 39.09765625 C-47.46668805 35.97059082 -43.53122326 32.76031233 -39.59765625 29.54296875 C-33.82482199 24.82725849 -27.98101263 20.23874139 -22.03515625 15.7421875 C-19.44800291 13.75584597 -16.95499348 11.67823071 -14.47265625 9.5625 C-13.75658203 8.95857422 -13.04050781 8.35464844 -12.30273438 7.73242188 C-10.90001848 6.54452482 -9.50757012 5.34436999 -8.12695312 4.13085938 C-3.38355274 0.13414967 -3.38355274 0.13414967 0 0 Z " fill="#00C2CD" transform="translate(512.66015625,355.89453125)" />
<path d="M0 0 C3.47440249 1.40312408 6.84380506 2.82912509 9 6 C8.6875 8.1875 8.6875 8.1875 8 10 C8 9.01 8 8.02 8 7 C7.34 7 6.68 7 6 7 C5.505 6.01 5.505 6.01 5 5 C3.18703385 4.37907282 3.18703385 4.37907282 1 4 C0.175 3.79375 -0.65 3.5875 -1.5 3.375 C-5.34972356 2.79754147 -7.187732 3.54433746 -10.5625 5.4375 C-13.6199713 8.6517647 -14.34117976 11.5229951 -15.421875 15.7578125 C-16 18 -16 18 -17 20 C-18.99065541 21.01847486 -20.99248185 22.01517978 -23 23 C-25.03833424 24.2739589 -27.03852126 25.61061923 -29 27 C-30.55968506 27.90915161 -30.55968506 27.90915161 -32.15087891 28.83666992 C-34.36468756 30.71505691 -34.9459156 31.73066347 -35.52459717 34.61245728 C-35.69605869 38.00301698 -35.67358424 41.3444429 -35.5859375 44.73828125 C-35.57744781 45.97418503 -35.56895813 47.21008881 -35.56021118 48.48344421 C-35.5323505 51.75735911 -35.47852254 55.02948153 -35.4119873 58.30279541 C-35.35042726 61.64765918 -35.32368014 64.99260124 -35.29296875 68.33789062 C-35.22684757 74.89262583 -35.12646634 81.44616639 -35 88 C-26.09765718 88.02330941 -17.19532509 88.04100894 -8.29295826 88.05181217 C-4.15794092 88.0570007 -0.02294466 88.06402389 4.11206055 88.07543945 C8.11266089 88.08641314 12.11324112 88.09230708 16.11385536 88.09487724 C17.62983834 88.09670568 19.14582039 88.10027523 20.66179466 88.10573006 C29.0336644 88.13461869 37.29903298 87.94392782 45.64155579 87.11766052 C46.41984238 87.07883255 47.19812897 87.04000458 48 87 C48.33 87.33 48.66 87.66 49 88 C49.33 59.29 49.66 30.58 50 1 C50.33 1 50.66 1 51 1 C51 30.37 51 59.74 51 90 C21.63 90 -7.74 90 -38 90 C-38.350625 80.3475 -38.70125 70.695 -39.0625 60.75 C-39.21726807 57.72682617 -39.37203613 54.70365234 -39.53149414 51.58886719 C-40.07875067 33.06938576 -40.07875067 33.06938576 -36.32489014 27.52661133 C-32.39365747 23.63957575 -27.94394501 21.0160013 -22.88426208 18.84063721 C-20.7373378 17.94591629 -20.7373378 17.94591629 -18 16 C-17.46139363 14.0060032 -17.46139363 14.0060032 -17.25 11.75 C-16.3564349 6.97404861 -14.44971106 4.98706776 -10.65625 2.09375 C-7.00494062 -0.31749205 -4.3749662 -0.29166441 0 0 Z " fill="#006066" transform="translate(593,543)" />
<path d="M0 0 C0.99 0.495 0.99 0.495 2 1 C1.67 27.73 1.34 54.46 1 82 C0.67 82 0.34 82 0 82 C-0.14497098 74.92404099 -0.2870412 67.84802769 -0.42724609 60.77197266 C-0.47510606 58.37287121 -0.52359118 55.97378214 -0.57275391 53.57470703 C-0.64396451 50.0941069 -0.7132661 46.61347711 -0.78125 43.1328125 C-0.80348633 42.00063293 -0.82572266 40.86845337 -0.84863281 39.70196533 C-0.98506459 32.25709454 -1.0437526 24.81656125 -0.93762207 17.37088013 C-0.90853387 14.09008231 -0.9775207 11.13660561 -2 8 C-5.0591205 11.80438188 -8.07512723 15.63925738 -11.0625 19.5 C-11.49626953 20.05558594 -11.93003906 20.61117188 -12.37695312 21.18359375 C-14.82094102 24.34552634 -16.99980155 27.54233987 -19 31 C-19.99307821 32.33849671 -20.99357052 33.67151309 -22 35 C-22.598125 35.9075 -23.19625 36.815 -23.8125 37.75 C-27.25189216 42.85995406 -30.94854682 47.72497836 -34.84375 52.49609375 C-39.93680557 58.74709724 -44.73090076 64.81661014 -48.70703125 71.859375 C-50.75494015 75.24987069 -53.34012862 78.08272171 -56 81 C-59.65047382 85.08865134 -59.65047382 85.08865134 -62 90 C-61.01 89.89171875 -61.01 89.89171875 -60 89.78125 C-48.35053901 88.68911303 -36.68878035 88.90710714 -25 89 C-24.67 89.99 -24.34 90.98 -24 92 C-38.19 92 -52.38 92 -67 92 C-67 91.34 -67 90.68 -67 90 C-66.34 90 -65.68 90 -65 90 C-64.80535156 89.3503125 -64.61070312 88.700625 -64.41015625 88.03125 C-62.38501073 83.67802861 -59.43475258 80.2279456 -56.4375 76.5 C-51.46560857 70.21911759 -46.75478675 63.88320962 -42.2578125 57.25390625 C-39.67759182 53.53535291 -36.97997439 49.92170806 -34.25 46.3125 C-29.98756067 40.67672103 -25.80627299 34.99160606 -21.6875 29.25 C-14.60777519 19.3879075 -7.31550827 9.68789938 0 0 Z " fill="#00B8C2" transform="translate(404,294)" />
<path d="M0 0 C5.34740414 1.95385921 8.45618143 4.91236287 11 10 C11.35555556 17.46666667 11.35555556 17.46666667 9 21 C8.01 19.68 7.02 18.36 6 17 C5.484375 17.639375 4.96875 18.27875 4.4375 18.9375 C1.25865126 21.62729509 -0.87562997 21.85528526 -5 22 C-7.9375 21.0625 -7.9375 21.0625 -10 20 C-10.54466387 15.915021 -11 12.1274515 -11 8 C-13.13875077 9.01760473 -13.13875077 9.01760473 -15 11 C-15.35140565 14.8654622 -15.18538537 18.29567073 -14 22 C-13.34 22 -12.68 22 -12 22 C-12.33 22.99 -12.66 23.98 -13 25 C-16.5635178 21.55143439 -18.1513739 19.73642876 -18.3125 14.75 C-18.24506771 10.08218729 -17.14785633 7.56204795 -14 4 C-9.44787756 0.06862153 -5.81719888 -0.95402062 0 0 Z " fill="#00969E" transform="translate(587,484)" />
<path d="M0 0 C4.81721665 2.36316288 7.60160527 5.20321055 10 10 C10.94838947 15.32803075 9.99731458 19.45235029 7 24 C6.15219971 24.56879883 5.30439941 25.13759766 4.4309082 25.72363281 C1.69939652 27.83905376 1.69939652 27.83905376 1.34057617 31.29980469 C1.32486572 32.57758789 1.30915527 33.85537109 1.29296875 35.171875 C1.27784744 35.8542926 1.26272614 36.53671021 1.24714661 37.23980713 C1.20430606 39.41020845 1.19543661 41.57921823 1.1875 43.75 C1.16435237 45.22529732 1.13898645 46.70056161 1.11132812 48.17578125 C1.04851626 51.78382732 1.01614936 55.39140916 1 59 C0.67 59 0.34 59 0 59 C-1.15770693 53.18152465 -1.44497181 47.34835106 -1.75 41.4375 C-1.81832031 40.40947266 -1.88664063 39.38144531 -1.95703125 38.32226562 C-2.42560361 29.05294307 -2.42560361 29.05294307 1 25 C3.59917584 21.92765818 3.59917584 21.92765818 4 18 C4.99 17.67 5.98 17.34 7 17 C7.12469099 11.42169984 7.12469099 11.42169984 6 6 C5.34 6 4.68 6 4 6 C4 5.34 4 4.68 4 4 C2.35 3.34 0.7 2.68 -1 2 C-1.33592508 4.2895393 -1.33592508 4.2895393 -1 7 C-0.29875 7.78375 0.4025 8.5675 1.125 9.375 C1.74375 10.24125 2.3625 11.1075 3 12 C2.30329465 16.04089105 1.27303788 18.59044318 -1 22 C-4.34026025 22.63194113 -5.78499989 22.12215915 -8.75 20.4375 C-11.69776731 17.24408541 -12.1543456 15.32167675 -12 11 C-9.6875 8.5625 -9.6875 8.5625 -7 7 C-6.34 7 -5.68 7 -5 7 C-5.66 5.68 -6.32 4.36 -7 3 C-12.73357581 5.78132199 -12.73357581 5.78132199 -16.0625 10.875 C-15.92162951 18.59490999 -15.92162951 18.59490999 -12 25 C-12.99 25 -13.98 25 -15 25 C-18.71354401 20.85797015 -19.46207388 16.76275756 -19.41796875 11.35546875 C-18.68836033 7.24375027 -16.1477344 4.60626633 -13 2 C-8.77411686 -0.55777137 -4.82208702 -0.67089906 0 0 Z " fill="#00A8B1" transform="translate(551,459)" />
<path d="M0 0 C0.495 0.474375 0.99 0.94875 1.5 1.4375 C0.84 1.4375 0.18 1.4375 -0.5 1.4375 C-0.83 2.4275 -1.16 3.4175 -1.5 4.4375 C-1.83 3.1175 -2.16 1.7975 -2.5 0.4375 C-7.31938524 0.20240804 -10.96298506 0.98565522 -15.5 2.4375 C-12.40385938 4.50159375 -11.52871058 4.65958921 -8 4.8125 C-3.75935974 5.21866522 -3.75935974 5.21866522 -1.5 7.125 C-0.30676402 9.8843582 0.16141811 12.45797933 0.5 15.4375 C-0.82 15.7675 -2.14 16.0975 -3.5 16.4375 C-3.5 17.0975 -3.5 17.7575 -3.5 18.4375 C-6.23905345 19.80702673 -8.47087332 19.56371361 -11.5 19.4375 C-12.16 19.1075 -12.82 18.7775 -13.5 18.4375 C-14.16 18.7675 -14.82 19.0975 -15.5 19.4375 C-15.5 20.4275 -15.5 21.4175 -15.5 22.4375 C-14.18 23.0975 -12.86 23.7575 -11.5 24.4375 C-11.17 31.3675 -10.84 38.2975 -10.5 45.4375 C-11.49 45.4375 -12.48 45.4375 -13.5 45.4375 C-13.5 38.8375 -13.5 32.2375 -13.5 25.4375 C-14.82 24.7775 -16.14 24.1175 -17.5 23.4375 C-20.6687835 20.63086318 -22.23746787 18.69699781 -22.73828125 14.38671875 C-22.91972808 8.85736524 -22.23276814 5.79239616 -18.5 1.4375 C-13.16417146 -3.39809461 -6.1250297 -3.82814356 0 0 Z " fill="#00A0A9" transform="translate(479.5,471.5625)" />
<path d="M0 0 C0.33 0 0.66 0 1 0 C1.91630466 30.83511411 2.09044993 61.65376045 2.0625 92.5 C2.06164398 93.45140995 2.06078796 94.4028199 2.05990601 95.38306046 C2.04843757 107.25539213 2.0282497 119.12769683 2 131 C13.10614839 131.65075451 24.16781274 132.15242482 35.296875 132.1328125 C36.54075989 132.13376923 37.78464478 132.13472595 39.06622314 132.13571167 C41.65384981 132.13638346 44.24147827 132.1346003 46.82910156 132.13037109 C50.78454316 132.12495268 54.73987407 132.13037834 58.6953125 132.13671875 C61.22916692 132.13605886 63.76302126 132.13477955 66.296875 132.1328125 C67.46982117 132.13483673 68.64276733 132.13686096 69.85125732 132.13894653 C75.34029651 132.12320782 80.59465443 131.98216943 86 131 C87.20360791 121.61754464 87.11303563 112.31467481 87.0625 102.875 C87.05747437 101.23437637 87.05291335 99.59375124 87.04882812 97.953125 C87.03790805 93.96871258 87.02070218 89.9843731 87 86 C87.66 86 88.32 86 89 86 C89 101.84 89 117.68 89 134 C59.63 134 30.26 134 0 134 C0 89.78 0 45.56 0 0 Z " fill="#006066" transform="translate(380,499)" />
<path d="M0 0 C3.60421496 1.28662961 6.26719538 2.78136683 9.20703125 5.22265625 C9.95791016 5.84333984 10.70878906 6.46402344 11.48242188 7.10351562 C12.25134766 7.74998047 13.02027344 8.39644531 13.8125 9.0625 C14.60076172 9.71283203 15.38902344 10.36316406 16.20117188 11.03320312 C20.43690266 14.55747783 20.43690266 14.55747783 22 16 C22 16.33 22 16.66 22 17 C6.16 17 -9.68 17 -26 17 C-26 60.89 -26 104.78 -26 150 C-26.33 150 -26.66 150 -27 150 C-27.01030746 148.89388367 -27.02061493 147.78776733 -27.03123474 146.64813232 C-27.12893883 136.23029267 -27.23167015 125.81251315 -27.33933926 115.39477158 C-27.39453257 110.03875531 -27.4479469 104.68273354 -27.49731445 99.32666016 C-27.54501088 94.15896089 -27.59735572 88.99132781 -27.65294075 83.82370758 C-27.67334036 81.85094091 -27.69205738 79.87815611 -27.70907402 77.90535736 C-27.73317095 75.144846 -27.76321841 72.38445934 -27.79467773 69.62402344 C-27.8004332 68.80618881 -27.80618866 67.98835419 -27.81211853 67.14573669 C-27.83495696 63.04105694 -27.83495696 63.04105694 -28.50080967 59.00792313 C-29.38044949 55.46969524 -29.1630638 51.81119037 -29.16796875 48.18359375 C-29.17129715 47.33072281 -29.17462555 46.47785187 -29.17805481 45.59913635 C-29.18310915 43.7995762 -29.1854636 42.0000067 -29.18530273 40.20043945 C-29.18749482 37.44401743 -29.20568143 34.68799217 -29.22460938 31.93164062 C-29.22754246 30.18229304 -29.22952782 28.43294355 -29.23046875 26.68359375 C-29.23765427 25.85854843 -29.24483978 25.03350311 -29.25224304 24.18345642 C-29.23656308 20.27103731 -29.21971981 18.32957971 -27 15 C-25.20297241 14.60127258 -25.20297241 14.60127258 -23.00927734 14.56762695 C-21.77822769 14.53793571 -21.77822769 14.53793571 -20.52230835 14.50764465 C-19.19255478 14.49805977 -19.19255478 14.49805977 -17.8359375 14.48828125 C-16.92872955 14.47033005 -16.02152161 14.45237885 -15.08682251 14.43388367 C-12.18292928 14.37960573 -9.279202 14.34582927 -6.375 14.3125 C-4.40883098 14.27934233 -2.44268391 14.24485413 -0.4765625 14.20898438 C4.34883888 14.12386935 9.17418955 14.05714194 14 14 C14 13.01 14 12.02 14 11 C11.66785852 9.79371992 9.50357861 8.8345262 7 8 C5.3125 6.5625 5.3125 6.5625 4 5 C4 4.34 4 3.68 4 3 C2.68 2.34 1.36 1.68 0 1 C0 0.67 0 0.34 0 0 Z " fill="#008C94" transform="translate(671,483)" />
<path d="M0 0 C0 3 0 3 -1.390625 4.75390625 C-2.00421875 5.35074219 -2.6178125 5.94757813 -3.25 6.5625 C-3.85328125 7.16191406 -4.4565625 7.76132812 -5.078125 8.37890625 C-6.9810963 9.9840548 -8.75555331 10.9516679 -11 12 C-11.70125 12.53625 -12.4025 13.0725 -13.125 13.625 C-15 15 -15 15 -17 15 C-17.24621094 15.58523438 -17.49242187 16.17046875 -17.74609375 16.7734375 C-19.19373768 19.34402017 -20.79242482 20.75455693 -23.0625 22.625 C-25.97875712 24.95485552 -25.97875712 24.95485552 -28 28 C-14.47 28 -0.94 28 13 28 C13 72.55 13 117.1 13 163 C12.67 163 12.34 163 12 163 C12 119.11 12 75.22 12 30 C-3.84 30 -19.68 30 -36 30 C-32.42393676 26.42393676 -28.8568075 23.0569568 -25 19.8125 C-24.44183594 19.34126709 -23.88367188 18.87003418 -23.30859375 18.38452148 C-18.27682192 14.16956832 -13.10339811 10.15845332 -7.875 6.19140625 C-5.21733931 4.16566216 -2.60041103 2.09849346 0 0 Z " fill="#0099A2" transform="translate(367,470)" />
<path d="M0 0 C13.86 0 27.72 0 42 0 C37.49934726 5.62581593 37.49934726 5.62581593 34.828125 7.68359375 C34.24949707 8.13371826 33.67086914 8.58384277 33.07470703 9.04760742 C32.47255371 9.50627197 31.87040039 9.96493652 31.25 10.4375 C30.63108887 10.91614502 30.01217773 11.39479004 29.37451172 11.88793945 C24.94914242 15.30217611 20.49295314 18.67521467 16 22 C15.67 21.01 15.34 20.02 15 19 C16.65 18.34 18.3 17.68 20 17 C20 16.34 20 15.68 20 15 C21.32 14.67 22.64 14.34 24 14 C24 13.34 24 12.68 24 12 C28.47058824 8 28.47058824 8 31 8 C31 7.34 31 6.68 31 6 C32.65532623 4.98133771 34.32260138 3.98189187 36 3 C36.33 2.34 36.66 1.68 37 1 C25.12 1 13.24 1 1 1 C1 68.65 1 136.3 1 206 C0.67 206 0.34 206 0 206 C0 138.02 0 70.04 0 0 Z " fill="#00EFFC" transform="translate(430,386)" />
<path d="M0 0 C1.32 0.33 2.64 0.66 4 1 C3.34 2.32 2.68 3.64 2 5 C2.99 5 3.98 5 5 5 C7.73173707 5.10818761 10.34545326 5.32346325 13 6 C15.19453456 8.37741244 15.02853459 10.26632283 15.375 13.5 C15 17 15 17 13.5625 19.5 C9.68203336 21.77149267 6.28102227 20.84156848 2 20 C2 20.66 2 21.32 2 22 C-0.4375 21.1875 -0.4375 21.1875 -3 20 C-3.33 19.01 -3.66 18.02 -4 17 C-4.66 17 -5.32 17 -6 17 C-6.92017937 8.5309417 -6.92017937 8.5309417 -4.6640625 4.77734375 C-3.18027954 3.08109421 -1.67546697 1.50592567 0 0 Z " fill="#007A81" transform="translate(449,538)" />
<path d="M0 0 C1.54601627 3.09203254 1.12077332 6.3468046 1.09765625 9.73852539 C1.09546585 10.93624321 1.09546585 10.93624321 1.0932312 12.15815735 C1.08942112 13.89443134 1.08330027 15.63070142 1.07516479 17.36696053 C1.06244087 20.11040651 1.055896 22.85380436 1.05102539 25.59727478 C1.03957776 31.41903807 1.02032939 37.24076183 1 43.0625 C0.97645444 49.80968882 0.95604814 56.55685513 0.94406128 63.30407524 C0.93754919 66.01468267 0.9250417 68.7252217 0.91235352 71.43580627 C0.908723 73.08749328 0.90537102 74.73918092 0.90234375 76.39086914 C0.89717743 77.15089233 0.89201111 77.91091553 0.88668823 78.69396973 C0.88650708 80.46304973 0.93766423 82.23201857 1 84 C1.33 84.33 1.66 84.66 2 85 C3.65 85 5.3 85 7 85 C7.33 58.93 7.66 32.86 8 6 C8.33 6 8.66 6 9 6 C9 33.06 9 60.12 9 88 C5.37 88 1.74 88 -2 88 C-2 59.29 -2 30.58 -2 1 C-1.34 0.67 -0.68 0.34 0 0 Z " fill="#007177" transform="translate(508,545)" />
<path d="M0 0 C0.33 0 0.66 0 1 0 C1 34.32 1 68.64 1 104 C-2.63 104 -6.26 104 -10 104 C-10 70.67 -10 37.34 -10 3 C-9.67 3 -9.34 3 -9 3 C-8.82779787 12.74990767 -8.66136423 22.4999075 -8.5 32.25 C-8.48812275 32.96745014 -8.4762455 33.68490028 -8.46400833 34.42409134 C-8.09286836 56.95062032 -7.84488353 79.46992877 -8 102 C-5.36 102 -2.72 102 0 102 C-0.03029297 101.40276123 -0.06058594 100.80552246 -0.09179688 100.19018555 C-0.23269805 97.35617517 -0.36632082 94.5218599 -0.5 91.6875 C-0.54769531 90.74970703 -0.59539062 89.81191406 -0.64453125 88.84570312 C-1.53633375 69.54454907 -0.87845172 50.19019617 -0.53643799 30.88165283 C-0.47491299 27.38791943 -0.41528211 23.89415368 -0.35546875 20.40039062 C-0.23878206 13.60022853 -0.12007478 6.80010309 0 0 Z " fill="#00646A" transform="translate(492,529)" />
<path d="M0 0 C15.51 0 31.02 0 47 0 C47 25.74 47 51.48 47 78 C46.67 78 46.34 78 46 78 C45.98969254 77.10686096 45.97938507 76.21372192 45.96876526 75.29351807 C45.87079295 66.87706472 45.76827879 58.46068161 45.66066074 50.04434586 C45.6054934 45.71741504 45.55208333 41.3904774 45.50268555 37.06347656 C45.45495067 32.88779626 45.40260463 28.71219692 45.34705925 24.53661346 C45.32667702 22.94343837 45.30795718 21.35024111 45.29092598 19.75702667 C45.26679034 17.52576185 45.23674858 15.29464895 45.20532227 13.06347656 C45.18977798 11.79328674 45.1742337 10.52309692 45.15821838 9.2144165 C45.09630905 5.83401622 45.09630905 5.83401622 44 2 C30.47 2.33 16.94 2.66 3 3 C1.99240975 7.03036099 1.91575298 10.18091858 1.97265625 14.3203125 C1.98529361 15.75650809 1.99765522 17.19270612 2.00976562 18.62890625 C2.03465814 20.88500651 2.06273524 23.14097894 2.09594727 25.39697266 C2.1260596 27.57976114 2.14388783 29.76238328 2.16015625 31.9453125 C2.17699463 33.25000488 2.19383301 34.55469727 2.21118164 35.89892578 C2 39 2 39 0 41 C0 27.47 0 13.94 0 0 Z " fill="#00ABB4" transform="translate(591,377)" />
<path d="M0 0 C0.33 0 0.66 0 1 0 C1 48.84 1 97.68 1 148 C0.67 148 0.34 148 0 148 C-0.06058594 146.72382812 -0.12117188 145.44765625 -0.18359375 144.1328125 C-0.26799568 142.46352984 -0.35264386 140.79425963 -0.4375 139.125 C-0.47681641 138.28324219 -0.51613281 137.44148437 -0.55664062 136.57421875 C-0.59853516 135.76855469 -0.64042969 134.96289062 -0.68359375 134.1328125 C-0.72025146 133.38918457 -0.75690918 132.64555664 -0.79467773 131.87939453 C-0.89955865 129.91135688 -0.89955865 129.91135688 -2 128 C-2.09175034 125.87583 -2.11750694 123.74870545 -2.11352539 121.62255859 C-2.11367142 120.96877731 -2.11381744 120.31499603 -2.1139679 119.6414032 C-2.11327036 117.47704773 -2.1054854 115.31277796 -2.09765625 113.1484375 C-2.09579151 111.64913988 -2.09436787 110.14984166 -2.09336853 108.65054321 C-2.08954779 104.70168378 -2.07972128 100.75286104 -2.06866455 96.80401611 C-2.05844091 92.77559913 -2.05386887 88.74717622 -2.04882812 84.71875 C-2.03809862 76.81248315 -2.0210275 68.90624614 -2 61 C-1.67 61 -1.34 61 -1 61 C-0.67 40.87 -0.34 20.74 0 0 Z " fill="#00B2BC" transform="translate(429,386)" />
<path d="M0 0 C2 0 2 0 3.9375 1.8125 C5.14116603 3.08911549 6.33431897 4.37610884 7.5 5.6875 C8.9363058 7.1456886 8.9363058 7.1456886 11 7.5 C13.51598325 8.12899581 14.36276026 9.01051875 16 11 C16.35570006 13.91015411 16.53639201 16.61803775 16.58203125 19.53515625 C16.6047258 20.36961777 16.62742035 21.20407928 16.65080261 22.06382751 C16.6953676 23.82632364 16.73273275 25.58901441 16.76342773 27.35180664 C16.8123878 30.05630237 16.88786009 32.75912147 16.96679688 35.46289062 C17.00678712 37.17444301 17.0452507 38.88603188 17.08203125 40.59765625 C17.10481644 41.40912613 17.12760162 42.22059601 17.15107727 43.05665588 C17.17875416 45.03821726 17.09868155 47.0207038 17 49 C13.40432185 52.59567815 7.8857174 51.95719647 3 52 C-1.2055395 51.46014469 -4.43425326 50.37716449 -8 48 C-8 47.34 -8 46.68 -8 46 C-8.66 46 -9.32 46 -10 46 C-14.66680433 41.33319567 -15.93542933 36.234494 -16.06347656 29.8203125 C-15.97399049 26.20869477 -15.81547891 22.60767051 -15.625 19 C-15.56828125 17.74832031 -15.5115625 16.49664063 -15.453125 15.20703125 C-15.31252982 12.13736974 -15.16120537 9.06863658 -15 6 C-14.67 6 -14.34 6 -14 6 C-13.98541748 6.74048584 -13.97083496 7.48097168 -13.95581055 8.24389648 C-13.88072778 11.64225413 -13.78426719 15.0396934 -13.6875 18.4375 C-13.66494141 19.60216797 -13.64238281 20.76683594 -13.61914062 21.96679688 C-13.30936247 31.96418287 -12.12592065 39.69136344 -5 47 C-1.70039859 48.6498007 1.99127884 48.38258361 5.625 48.5625 C6.82769531 48.62727539 6.82769531 48.62727539 8.0546875 48.69335938 C10.0362511 48.79951457 12.01810271 48.90026855 14 49 C13.88190779 43.90950418 13.75767087 38.81920995 13.62768555 33.72900391 C13.5843192 31.99662374 13.54264537 30.26420037 13.50268555 28.53173828 C13.44502406 26.04446373 13.38131802 23.55740707 13.31640625 21.0703125 C13.29969376 20.29317902 13.28298126 19.51604553 13.26576233 18.71536255 C13.23526571 14.72725784 13.23526571 14.72725784 12 11 C10.9275 10.5875 9.855 10.175 8.75 9.75 C4.52256435 8.05030938 2.59951598 5.70234095 0 2 C0 1.34 0 0.68 0 0 Z " fill="#00737A" transform="translate(443,555)" />
<path d="M0 0 C0 0.99 0 1.98 0 3 C-1.010625 3.350625 -2.02125 3.70125 -3.0625 4.0625 C-6.96804109 5.72509982 -9.32509291 8.13118273 -12.203125 11.1875 C-14.50793003 13.51234681 -17.03509882 15.3413923 -19.68359375 17.25390625 C-23.68560879 20.27060224 -27.45745569 23.57243622 -31.265625 26.828125 C-34 29 -34 29 -36.109375 29.984375 C-38.21315239 30.95292251 -38.21315239 30.95292251 -39.8359375 33.32421875 C-42.38074462 36.47077628 -45.31208495 38.56318378 -48.625 40.8125 C-49.87245049 41.68425969 -51.11853405 42.55797848 -52.36328125 43.43359375 C-52.9763916 43.86397949 -53.58950195 44.29436523 -54.22119141 44.73779297 C-56.79435358 46.56365743 -59.31508002 48.44697736 -61.8125 50.375 C-62.60269531 50.98085938 -63.39289063 51.58671875 -64.20703125 52.2109375 C-67.4575533 55.45437781 -67.19450282 59.33403383 -67.5625 63.75 C-67.68818359 65.22726562 -67.68818359 65.22726562 -67.81640625 66.734375 C-67.87699219 67.48203125 -67.93757813 68.2296875 -68 69 C-66.68 68.01 -65.36 67.02 -64 66 C-63.34 66.33 -62.68 66.66 -62 67 C-63.98 68.65 -65.96 70.3 -68 72 C-70.44503426 69.55496574 -69.61594092 63.31614576 -69.65087891 59.92749023 C-69.54078597 56.19504412 -69.39444833 53.67300204 -67.484375 50.4140625 C-65.11628535 48.33540603 -62.65822752 46.69258568 -60 45 C-58.38416563 43.74257251 -56.76913535 42.4838798 -55.17211914 41.20263672 C-53.39879916 39.78148486 -51.60772671 38.38553338 -49.8125 36.9921875 C-45.80653248 33.8651226 -41.87104594 30.65486865 -37.9375 27.4375 C-32.05355025 22.63048536 -26.09000011 17.95388346 -20.0390625 13.359375 C-16.09836886 10.30001901 -12.30690775 7.07707626 -8.53515625 3.8125 C-5.77153125 1.83665716 -3.25688101 0.91022002 0 0 Z " fill="#00BAC4" transform="translate(511,358)" />
<path d="M0 0 C0.33 0 0.66 0 1 0 C1.13539281 2.89740622 1.23426829 5.78845621 1.3125 8.6875 C1.3753418 9.91243164 1.3753418 9.91243164 1.43945312 11.16210938 C1.52974651 15.6226025 1.53079218 17.36611656 -1.43359375 20.90625 C-2.28050781 21.5971875 -3.12742187 22.288125 -4 23 C-6.44905962 28.00944013 -6.04657516 31.67990959 -5 37 C-3.36526484 40.12474627 -3.36526484 40.12474627 -0.875 40.6875 C-0.25625 40.790625 0.3625 40.89375 1 41 C1 41.66 1 42.32 1 43 C6.80996643 42.60610397 9.58068027 42.02937975 14 38 C14.66 38 15.32 38 16 38 C16 36.02 16 34.04 16 32 C16.66 32 17.32 32 18 32 C17.34 29.03 16.68 26.06 16 23 C14.68 23 13.36 23 12 23 C12 22.01 12 21.02 12 20 C11.34 20 10.68 20 10 20 C8.79727181 17.59454362 8.89928528 16.05003047 8.9375 13.375 C8.94652344 12.55773437 8.95554687 11.74046875 8.96484375 10.8984375 C8.97644531 10.27195312 8.98804688 9.64546875 9 9 C9.33 9 9.66 9 10 9 C10.020625 10.19625 10.04125 11.3925 10.0625 12.625 C10.49986064 16.41994466 11.56970878 17.95406411 14.5 20.375 C15.1290625 20.83648437 15.758125 21.29796875 16.40625 21.7734375 C18 23 18 23 19 25 C19.52657873 30.28305214 19.64191122 34.66862857 17.3125 39.5 C13.43760619 43.68907439 10.76222687 45.17259515 5.0625 45.4375 C0.32347205 45.28235325 -2.40843289 44.24117032 -6 41 C-9.55182811 37.09298908 -9.61271062 32.81063894 -9.49609375 27.734375 C-8.7051922 23.37507512 -6.35733934 20.76589096 -3 18 C-2.34 17.67 -1.68 17.34 -1 17 C-0.67 11.39 -0.34 5.78 0 0 Z " fill="#008E96" transform="translate(507,474)" />
<path d="M0 0 C0.99 0.33 1.98 0.66 3 1 C2.236875 2.051875 1.47375 3.10375 0.6875 4.1875 C-0.81384695 6.28181591 -2.19655062 8.33577397 -3.5 10.5625 C-5.7527958 14.22329318 -8.58730416 17.37421596 -11.3984375 20.609375 C-13.5099598 23.0748519 -14.96222619 24.88667856 -16 28 C-15.34 27.9278125 -14.68 27.855625 -14 27.78125 C-2.35053901 26.68911303 9.31121965 26.90710714 21 27 C21.495 28.485 21.495 28.485 22 30 C7.81 30 -6.38 30 -21 30 C-21 29.34 -21 28.68 -21 28 C-20.34 28 -19.68 28 -19 28 C-18.60252563 26.89398438 -18.60252563 26.89398438 -18.19702148 25.765625 C-17.00965734 23.02231254 -15.70805856 21.07516649 -13.84765625 18.75 C-13.23599609 17.9765625 -12.62433594 17.203125 -11.99414062 16.40625 C-11.35669922 15.6121875 -10.71925781 14.818125 -10.0625 14 C-4.61888149 7.28683516 -4.61888149 7.28683516 0 0 Z " fill="#00AAB3" transform="translate(358,356)" />
<path d="M0 0 C3.47440249 1.40312408 6.84380506 2.82912509 9 6 C8.6875 8.1875 8.6875 8.1875 8 10 C8 9.01 8 8.02 8 7 C7.34 7 6.68 7 6 7 C5.505 6.01 5.505 6.01 5 5 C3.18703385 4.37907282 3.18703385 4.37907282 1 4 C0.175 3.79375 -0.65 3.5875 -1.5 3.375 C-5.34972356 2.79754147 -7.187732 3.54433746 -10.5625 5.4375 C-13.6199713 8.6517647 -14.34117976 11.5229951 -15.421875 15.7578125 C-16 18 -16 18 -17 20 C-18.99065541 21.01847486 -20.99248185 22.01517978 -23 23 C-27.44801382 25.83915776 -31.71880135 28.91753697 -36 32 C-36.33 31.01 -36.66 30.02 -37 29 C-36.43490723 28.65332275 -35.86981445 28.30664551 -35.28759766 27.94946289 C-32.71464265 26.3485778 -30.17058617 24.7065244 -27.625 23.0625 C-26.73554687 22.51787109 -25.84609375 21.97324219 -24.9296875 21.41210938 C-20.07577198 18.36251949 -20.07577198 18.36251949 -17.07519531 13.67333984 C-16.77763238 12.11668597 -16.52503247 10.55052305 -16.32568359 8.97827148 C-15.87223819 6.22394757 -14.71863098 5.11696834 -12.5 3.5 C-11.58734375 2.80390625 -11.58734375 2.80390625 -10.65625 2.09375 C-7.00494062 -0.31749205 -4.3749662 -0.29166441 0 0 Z " fill="#007278" transform="translate(593,543)" />
<path d="M0 0 C6.06292614 -0.41813284 9.19707988 -0.13274522 14 4 C17.19469534 7.72714457 17.4414323 11.06938392 17.30859375 15.8046875 C17 18 17 18 15.4375 21.0625 C13.84739637 24.31184221 14.04400213 25.88658788 14.671875 29.3671875 C15.13478929 33.08152357 15.08667242 36.76105856 15.0625 40.5 C15.05633667 41.59707275 15.05633667 41.59707275 15.05004883 42.71630859 C15.03734641 44.47757227 15.01923646 46.23879557 15 48 C14.34 47.67 13.68 47.34 13 47 C12.62109375 44.98828125 12.62109375 44.98828125 12.4375 42.3125 C12.36917969 41.32765625 12.30085938 40.3428125 12.23046875 39.328125 C12.15441406 38.22984375 12.07835937 37.1315625 12 36 C11.87238281 34.77796875 11.74476563 33.5559375 11.61328125 32.296875 C11.49339844 31.06453125 11.37351562 29.8321875 11.25 28.5625 C11.13140625 27.40878906 11.0128125 26.25507812 10.890625 25.06640625 C11.01708415 21.52103377 11.82397308 20.67057849 14 18 C14.77288455 14.03896669 15.11029268 9.7386875 12.875 6.23828125 C11.38831249 4.70192219 11.38831249 4.70192219 9 3 C9 3.66 9 4.32 9 5 C8.34 5 7.68 5 7 5 C6.34 4.01 5.68 3.02 5 2 C4.34 2.66 3.68 3.32 3 4 C3 3.34 3 2.68 3 2 C2.01 2.33 1.02 2.66 0 3 C0 2.01 0 1.02 0 0 Z " fill="#00767D" transform="translate(454,537)" />
<path d="M0 0 C1.37365621 2.74731243 1.0128639 4.81667064 0.87890625 7.8828125 C0.83580322 8.93355957 0.7927002 9.98430664 0.74829102 11.06689453 C0.68697998 12.40606934 0.62566895 13.74524414 0.5625 15.125 C0.376875 19.37375 0.19125 23.6225 0 28 C15.84 28 31.68 28 48 28 C48 28.33 48 28.66 48 29 C47.44289841 29.01030746 46.88579681 29.02061493 46.31181335 29.03123474 C40.52066308 29.1393002 34.72966839 29.25389827 28.9387207 29.37231445 C26.7766444 29.41566313 24.61453387 29.45733825 22.45239258 29.49731445 C19.34706298 29.55501844 16.24190564 29.61871272 13.13671875 29.68359375 C12.16788254 29.70030624 11.19904633 29.71701874 10.20085144 29.73423767 C9.3001442 29.75418289 8.39943695 29.77412811 7.47143555 29.79467773 C6.67867722 29.81022202 5.88591888 29.8257663 5.06913757 29.84178162 C2.80260226 29.93081226 2.80260226 29.93081226 0 31 C-0.66 30.67 -1.32 30.34 -2 30 C-2.04939662 26.04903022 -2.08571755 22.0981797 -2.10986328 18.14697266 C-2.12488107 16.1408864 -2.15028981 14.13488676 -2.17578125 12.12890625 C-2.18544922 10.24365234 -2.18544922 10.24365234 -2.1953125 8.3203125 C-2.20578613 7.15773926 -2.21625977 5.99516602 -2.22705078 4.79736328 C-2 2 -2 2 0 0 Z " fill="#00858C" transform="translate(567,576)" />
<path d="M0 0 C13.53 0 27.06 0 41 0 C36.49934726 5.62581593 36.49934726 5.62581593 33.828125 7.68359375 C33.24949707 8.13371826 32.67086914 8.58384277 32.07470703 9.04760742 C31.47255371 9.50627197 30.87040039 9.96493652 30.25 10.4375 C29.63108887 10.91614502 29.01217773 11.39479004 28.37451172 11.88793945 C23.94914242 15.30217611 19.49295314 18.67521467 15 22 C14.67 21.01 14.34 20.02 14 19 C15.65 18.34 17.3 17.68 19 17 C19 16.34 19 15.68 19 15 C20.32 14.67 21.64 14.34 23 14 C23 13.34 23 12.68 23 12 C27.47058824 8 27.47058824 8 30 8 C30 7.34 30 6.68 30 6 C31.65532623 4.98133771 33.32260138 3.98189187 35 3 C35.33 2.34 35.66 1.68 36 1 C24.12 1 12.24 1 0 1 C0 0.67 0 0.34 0 0 Z " fill="#00F0FD" transform="translate(431,386)" />
<path d="M0 0 C0 0.66 0 1.32 0 2 C-2.0935927 3.62298685 -4.19043989 5.13350174 -6.375 6.625 C-7.6589065 7.52411068 -8.94144869 8.42517255 -10.22265625 9.328125 C-10.86090332 9.77736328 -11.49915039 10.22660156 -12.15673828 10.68945312 C-14.7500071 12.53325008 -17.29401212 14.43039107 -19.8125 16.375 C-20.60269531 16.98085938 -21.39289063 17.58671875 -22.20703125 18.2109375 C-25.4575533 21.45437781 -25.19450282 25.33403383 -25.5625 29.75 C-25.64628906 30.73484375 -25.73007812 31.7196875 -25.81640625 32.734375 C-25.87699219 33.48203125 -25.93757813 34.2296875 -26 35 C-24.68 34.01 -23.36 33.02 -22 32 C-21.34 32.33 -20.68 32.66 -20 33 C-22.97 35.475 -22.97 35.475 -26 38 C-28.44473407 35.55526593 -27.615138 29.31839098 -27.65307617 25.9296875 C-27.5445102 22.16308248 -27.39118584 19.66117305 -25.44921875 16.37890625 C-23.09022003 14.30453992 -20.65419042 12.6811083 -18 11 C-16.86111785 10.12877365 -15.73269712 9.2437567 -14.61328125 8.34765625 C-4.17142423 0 -4.17142423 0 0 0 Z " fill="#00B3BD" transform="translate(469,392)" />
<path d="M0 0 C2.5625 0.3125 2.5625 0.3125 4.375 1.4375 C6.09099028 4.14695834 5.896228 6.17545684 5.5625 9.3125 C3.5625 11.3125 3.5625 11.3125 0.0625 11.625 C-1.67 11.4703125 -1.67 11.4703125 -3.4375 11.3125 C-5.4375 8.3125 -5.4375 8.3125 -5.1875 5.25 C-4.28429516 1.7124477 -3.71125776 0.47580228 0 0 Z " fill="#00E9F6" transform="translate(456.4375,544.6875)" />
<path d="M0 0 C1.8125 1.1875 1.8125 1.1875 3 3 C3.42822025 5.85480169 3.40659584 7.34492892 1.875 9.8125 C-0.83445834 11.52849028 -2.86295684 11.333728 -6 11 C-8 9 -8 9 -8.3125 6.0625 C-8 3 -8 3 -6.8125 1.125 C-4.34492892 -0.40659584 -2.85480169 -0.42822025 0 0 Z " fill="#00EBF8" transform="translate(474,478)" />
<path d="M0 0 C0.99 0.33 1.98 0.66 3 1 C2.6282666 1.47195801 2.2565332 1.94391602 1.87353516 2.43017578 C-6.00604956 12.45145348 -13.69983104 22.54895883 -21 33 C-21.71542969 34.01835937 -22.43085938 35.03671875 -23.16796875 36.0859375 C-24.78301755 38.38762382 -26.39397936 40.69201007 -28 43 C-28.33 41.68 -28.66 40.36 -29 39 C-28.34 39 -27.68 39 -27 39 C-27 38.01 -27 37.02 -27 36 C-26.34 36 -25.68 36 -25 36 C-24.67 34.68 -24.34 33.36 -24 32 C-23.34 32 -22.68 32 -22 32 C-21.79375 31.34 -21.5875 30.68 -21.375 30 C-19.79545644 26.55372314 -17.75696879 23.84770489 -15.4375 20.8671875 C-14.22583894 19.29334515 -13.10176115 17.65264172 -12 16 C-11.34 16 -10.68 16 -10 16 C-9.67 14.68 -9.34 13.36 -9 12 C-8.34 12 -7.68 12 -7 12 C-7 11.01 -7 10.02 -7 9 C-6.34 9 -5.68 9 -5 9 C-4.9175 8.443125 -4.835 7.88625 -4.75 7.3125 C-3.77389987 4.30285794 -2.04811186 2.37845248 0 0 Z " fill="#00EFFC" transform="translate(400,296)" />
<path d="M0 0 C2.875 0.6875 2.875 0.6875 3.875 1.6875 C4.0625 5.125 4.0625 5.125 3.875 8.6875 C1.875 10.6875 1.875 10.6875 -1.0625 11.0625 C-4.125 10.6875 -4.125 10.6875 -6.0625 9 C-7.41469442 6.05698861 -7.23568406 4.70221387 -6.125 1.6875 C-3.125 -0.3125 -3.125 -0.3125 0 0 Z " fill="#00E7F4" transform="translate(591.125,552.3125)" />
<path d="M0 0 C2.9375 0.8125 2.9375 0.8125 4.9375 3.8125 C4.6133631 7.13490324 4.32973697 8.42026303 1.9375 10.8125 C-1.0625 11.0625 -1.0625 11.0625 -4.0625 10.8125 C-6.0625 8.8125 -6.0625 8.8125 -6.375 5.3125 C-6.271875 4.1575 -6.16875 3.0025 -6.0625 1.8125 C-3.0625 -0.1875 -3.0625 -0.1875 0 0 Z " fill="#00EBF8" transform="translate(513.0625,499.1875)" />
<path d="M0 0 C1.33359073 6.42548263 1.33359073 6.42548263 -0.125 8.9375 C-2.63647631 10.36066991 -4.15503228 10.42674516 -7 10 C-8.875 8.9375 -8.875 8.9375 -10 7 C-9.8125 3.375 -9.8125 3.375 -9 0 C-5.93109813 -1.53445094 -3.29905734 -0.54984289 0 0 Z " fill="#00EDFA" transform="translate(588,494)" />
<path d="M0 0 C0.33 0 0.66 0 1 0 C1.06334445 4.07214302 1.10787505 7.64716765 -1.5546875 10.8984375 C-6.01826235 14.69525428 -8.76135381 16.10113168 -14.734375 16.23046875 C-17 16 -17 16 -19.8984375 14.74609375 C-23.07461945 13.62342527 -23.07461945 13.62342527 -25.9921875 15.5546875 C-26.94351563 16.32039062 -27.89484375 17.08609375 -28.875 17.875 C-30.32519531 19.01582031 -30.32519531 19.01582031 -31.8046875 20.1796875 C-32.52914062 20.78039062 -33.25359375 21.38109375 -34 22 C-34.33 21.01 -34.66 20.02 -35 19 C-33.35 18.34 -31.7 17.68 -30 17 C-30 16.34 -30 15.68 -30 15 C-23.73854962 10.94847328 -23.73854962 10.94847328 -20.3125 11.1875 C-19.549375 11.455625 -18.78625 11.72375 -18 12 C-14.79789412 13.03815643 -12.64630233 12.94788633 -9.375 12.1875 C-8.59898437 12.01605469 -7.82296875 11.84460938 -7.0234375 11.66796875 C-4.80347816 11.10334766 -4.80347816 11.10334766 -3 9 C-2.40165446 7.47943382 -1.86493344 5.93387912 -1.375 4.375 C-1.11460937 3.55773437 -0.85421875 2.74046875 -0.5859375 1.8984375 C-0.39257812 1.27195312 -0.19921875 0.64546875 0 0 Z " fill="#00747B" transform="translate(603,556)" />
<path d="M0 0 C3 0.25 3 0.25 5 2.25 C5.3125 5.75 5.3125 5.75 5 9.25 C1.77626323 11.39915785 0.73296326 11.63286803 -3 11.25 C-5 9.25 -5 9.25 -5.25 5.75 C-4.93427155 1.32980166 -4.46370491 0.37197541 0 0 Z " fill="#EFFCFC" transform="translate(512,444.75)" />
<path d="M0 0 C0.99 0.33 1.98 0.66 3 1 C2.39414062 1.77601563 1.78828125 2.55203125 1.1640625 3.3515625 C-3.8515042 9.8072224 -8.7170518 16.34144583 -13.43652344 23.01660156 C-16.81993136 27.78793579 -20.34864068 32.42975555 -24 37 C-24.67578125 35.234375 -24.67578125 35.234375 -25 33 C-23.85546875 31.078125 -23.85546875 31.078125 -22.1875 29.25 C-21.64480469 28.63640625 -21.10210937 28.0228125 -20.54296875 27.390625 C-19 26 -19 26 -17 26 C-16.9071875 24.96939453 -16.9071875 24.96939453 -16.8125 23.91796875 C-15.73238852 20.03891453 -13.49937335 17.37770371 -11 14.3125 C-7.69825171 10.35649525 -7.69825171 10.35649525 -5 6 C-4.34 6 -3.68 6 -3 6 C-2.690625 5.38125 -2.38125 4.7625 -2.0625 4.125 C-1.375 2.75 -0.6875 1.375 0 0 Z " fill="#00EEFB" transform="translate(366,342)" />
<path d="M0 0 C2 2 2 2 2.25 5 C2 8 2 8 0 10 C-3.5 10.25 -3.5 10.25 -7 10 C-9 8 -9 8 -9.3125 5.5625 C-9 3 -9 3 -7.875 1.1875 C-5.16554166 -0.52849028 -3.13704316 -0.333728 0 0 Z " fill="#00EBF8" transform="translate(550,468)" />
<path d="M0 0 C3.3 0 6.6 0 10 0 C12.61895048 4.77573323 11.83119431 8.84434881 11 14 C9.41870971 14.22331199 7.83478911 14.42804644 6.25 14.625 C5.36828125 14.74101562 4.4865625 14.85703125 3.578125 14.9765625 C1 15 1 15 -3 13 C-3 9.7 -3 6.4 -3 3 C-2.34 3 -1.68 3 -1 3 C-0.67 2.01 -0.34 1.02 0 0 Z M-1 4 C-1.41666667 7.5 -1.41666667 7.5 -1 11 C0.87938172 13.29827312 0.87938172 13.29827312 3.9375 13.3125 C6.92778146 13.21972348 6.92778146 13.21972348 8.9375 11.875 C10.26649983 9.91444384 10.26649983 9.91444384 9.875 6.9375 C9.25349587 3.70744585 9.25349587 3.70744585 6 2 C1.95377498 1.63019987 1.95377498 1.63019987 -1 4 Z " fill="#00969E" transform="translate(508,497)" />
<path d="M0 0 C4.17910132 1.60734666 6.62941515 3.18072441 9 7 C7.35 7.66 5.7 8.32 4 9 C4 7.02 4 5.04 4 3 C3.01 3.33 2.02 3.66 1 4 C-0.2375 3.855625 -1.475 3.71125 -2.75 3.5625 C-5.75940449 3.47936728 -6.69753895 3.72748559 -8.97265625 5.77734375 C-10.17775302 7.23318253 -11.34182564 8.724208 -12.45703125 10.25 C-12.96621094 10.8275 -13.47539062 11.405 -14 12 C-14.99 12 -15.98 12 -17 12 C-16.9158797 9.13990965 -16.43181261 7.45351173 -14.4453125 5.3671875 C-9.45900309 1.08434083 -6.80344138 -0.45356276 0 0 Z " fill="#00B8C2" transform="translate(515,436)" />
<path d="M0 0 C3.2457306 3.2457306 5.82194727 5.89609568 8.4453125 9.50390625 C9.04730469 10.32697266 9.64929688 11.15003906 10.26953125 11.99804688 C11.18798828 13.26745117 11.18798828 13.26745117 12.125 14.5625 C13.35673217 16.25133028 14.58850167 17.94013334 15.8203125 19.62890625 C16.62879639 20.7437439 16.62879639 20.7437439 17.45361328 21.88110352 C18.50484032 23.32152023 19.6107385 24.72325187 20.76123047 26.08569336 C21.37442139 27.03327515 21.37442139 27.03327515 22 28 C21.67 28.99 21.34 29.98 21 31 C19.66104368 29.33784732 18.32869858 27.67036393 17 26 C16.4225 25.278125 15.845 24.55625 15.25 23.8125 C14 22 14 22 14 20 C13.34 20 12.68 20 12 20 C11.68546875 19.39671875 11.3709375 18.7934375 11.046875 18.171875 C8.76281063 13.90645359 6.73888023 10.18497204 3 7 C1.98617037 10.6208201 1.50102309 14.27811418 1 18 C0.67 18 0.34 18 0 18 C0 12.06 0 6.12 0 0 Z " fill="#007D84" transform="translate(405,295)" />
<path d="M0 0 C0.33 1.32 0.66 2.64 1 4 C1.66 4 2.32 4 3 4 C4.05404945 7.98196457 3.84098656 10.98195309 3 15 C0.5625 14.1875 0.5625 14.1875 -2 13 C-2.33 12.01 -2.66 11.02 -3 10 C-3.66 10 -4.32 10 -5 10 C-5.29296875 3.9453125 -5.29296875 3.9453125 -5 2 C-2 0 -2 0 0 0 Z " fill="#00767D" transform="translate(448,545)" />
<path d="M0 0 C0.33 0 0.66 0 1 0 C1.25 2.3125 1.25 2.3125 1 5 C0.34741211 5.40452393 -0.30517578 5.80904785 -0.97753906 6.22583008 C-3.32930885 7.91335029 -3.32930885 7.91335029 -3.54589844 11.1862793 C-3.5668457 12.46929932 -3.58779297 13.75231934 -3.609375 15.07421875 C-3.62591125 15.7580513 -3.64244751 16.44188385 -3.65948486 17.1464386 C-3.7080032 19.32688336 -3.72934191 21.5066307 -3.75 23.6875 C-3.77815685 25.16735287 -3.8080839 26.6471732 -3.83984375 28.12695312 C-3.91375987 31.75114983 -3.96331252 35.37521374 -4 39 C-4.33 39 -4.66 39 -5 39 C-6.15770693 33.18152465 -6.44497181 27.34835106 -6.75 21.4375 C-6.81832031 20.40947266 -6.88664063 19.38144531 -6.95703125 18.32226562 C-7.42455152 9.0737556 -7.42455152 9.0737556 -4 5 C-3.29875 4.071875 -2.5975 3.14375 -1.875 2.1875 C-0.946875 1.1046875 -0.946875 1.1046875 0 0 Z " fill="#009DA6" transform="translate(556,479)" />
<path d="M0 0 C0.99 0.495 0.99 0.495 2 1 C1.01 1.495 1.01 1.495 0 2 C0 1.34 0 0.68 0 0 Z M-2 2 C-1.34 2 -0.68 2 0 2 C-4.46463006 11.40246975 -12.27839085 19.15413594 -19 27 C-19.66 26.67 -20.32 26.34 -21 26 C-20.37955811 25.16021606 -20.37955811 25.16021606 -19.74658203 24.3034668 C-17.87200518 21.76533923 -15.99849127 19.22642897 -14.125 16.6875 C-13.47402344 15.80642578 -12.82304687 14.92535156 -12.15234375 14.01757812 C-11.52714844 13.17001953 -10.90195312 12.32246094 -10.2578125 11.44921875 C-9.6817627 10.66893311 -9.10571289 9.88864746 -8.51220703 9.0847168 C-7.30267998 7.41727225 -6.14264565 5.71396848 -5 4 C-4.01 4 -3.02 4 -2 4 C-2 3.34 -2 2.68 -2 2 Z " fill="#00B4BE" transform="translate(380,329)" />
<path d="M0 0 C0.33 0 0.66 0 1 0 C1.375 2.125 1.375 2.125 1 5 C-0.74322351 7.29739641 -2.69638037 9.26333339 -5 11 C-5.66 11 -6.32 11 -7 11 C-6.9371582 12.39907593 -6.9371582 12.39907593 -6.87304688 13.82641602 C-6.73604011 17.31380193 -6.63612475 20.79830092 -6.56054688 24.28735352 C-6.52050354 25.79204633 -6.46604616 27.29643149 -6.39648438 28.80004883 C-5.83147049 41.3342172 -5.83147049 41.3342172 -8.81640625 45.58935547 C-10.80036617 47.3253204 -12.69413648 48.73106017 -15 50 C-15.66 49.67 -16.32 49.34 -17 49 C-16.42975098 48.60449951 -15.85950195 48.20899902 -15.27197266 47.80151367 C-11.4749658 44.70487316 -9.26967053 42.43029563 -8.34277344 37.51416016 C-8.20473017 33.42961314 -8.22790622 29.39482398 -8.375 25.3125 C-8.80802212 11.21504482 -8.80802212 11.21504482 -6.68994141 8.0300293 C-5.0625 6.71875 -5.0625 6.71875 -2 5 C-0.60180488 2.3485518 -0.60180488 2.3485518 0 0 Z " fill="#00EAF7" transform="translate(560,477)" />
<path d="M0 0 C4.10596665 0.56124724 6.80503977 2.92606192 9.9375 5.4375 C11.08578244 6.34004106 12.23422499 7.24237845 13.3828125 8.14453125 C13.97352539 8.61197754 14.56423828 9.07942383 15.17285156 9.56103516 C18.19801173 11.94349027 21.25657969 14.28222681 24.3125 16.625 C25.41291678 17.47115086 26.51319186 18.31748604 27.61328125 19.1640625 C28.40089844 19.76992188 29.18851563 20.37578125 30 21 C29.34 21.66 28.68 22.32 28 23 C25.36 21.68 22.72 20.36 20 19 C20 17.68 20 16.36 20 15 C18.9171875 14.62875 18.9171875 14.62875 17.8125 14.25 C14.72393418 12.87730408 12.48988582 11.27646704 10 9 C10 8.34 10 7.68 10 7 C9.278125 6.773125 8.55625 6.54625 7.8125 6.3125 C4.46790687 4.75168987 2.48396041 2.6968713 0 0 Z " fill="#00AEB8" transform="translate(561,396)" />
<path d="M0 0 C0.33 0 0.66 0 1 0 C2.07526347 13.4983968 2.07526347 13.4983968 2 19.3125 C2 20.529375 2 21.74625 2 23 C2.33 23.33 2.66 23.66 3 24 C4.65 24 6.3 24 8 24 C8.33 19.71 8.66 15.42 9 11 C9.33 11 9.66 11 10 11 C10 16.28 10 21.56 10 27 C6.7 27 3.4 27 0 27 C0 18.09 0 9.18 0 0 Z " fill="#005B60" transform="translate(507,606)" />
<path d="M0 0 C0.495 0.474375 0.99 0.94875 1.5 1.4375 C0.84 1.4375 0.18 1.4375 -0.5 1.4375 C-0.83 2.4275 -1.16 3.4175 -1.5 4.4375 C-1.83 3.1175 -2.16 1.7975 -2.5 0.4375 C-7.21553888 0.20747371 -11.07843296 0.73689729 -15.5 2.4375 C-16.99743888 4.42317734 -16.99743888 4.42317734 -17.5 6.4375 C-18.82 6.1075 -20.14 5.7775 -21.5 5.4375 C-16.02394588 -1.9712791 -8.62518385 -5.39073991 0 0 Z " fill="#00A8B1" transform="translate(479.5,471.5625)" />
<path d="M0 0 C0.66 0 1.32 0 2 0 C2.66 0.99 3.32 1.98 4 3 C6.475 3.99 6.475 3.99 9 5 C9.33 12.26 9.66 19.52 10 27 C9.01 27 8.02 27 7 27 C7 20.4 7 13.8 7 7 C5.68 6.34 4.36 5.68 3 5 C1.25 3.5 1.25 3.5 0 2 C0 1.34 0 0.68 0 0 Z " fill="#008F97" transform="translate(459,490)" />
<path d="M0 0 C0.33 0 0.66 0 1 0 C1.67842194 10.68514555 2.15498126 21.28907291 2 32 C3.32 32.33 4.64 32.66 6 33 C2.25 36 2.25 36 0 36 C0 24.12 0 12.24 0 0 Z " fill="#008C94" transform="translate(441,411)" />
<path d="M0 0 C0.66 0.33 1.32 0.66 2 1 C2.11589162 5.27060618 2.18714802 9.54080984 2.25 13.8125 C2.28351562 15.02744141 2.31703125 16.24238281 2.3515625 17.49414062 C2.36445312 18.65751953 2.37734375 19.82089844 2.390625 21.01953125 C2.41157227 22.09307861 2.43251953 23.16662598 2.45410156 24.27270508 C2 27 2 27 -0.02441406 28.8737793 C-0.67635742 29.24543213 -1.32830078 29.61708496 -2 30 C-1.84152588 29.46536133 -1.68305176 28.93072266 -1.51977539 28.37988281 C-0.89799663 25.53295968 -0.7835446 22.83472843 -0.68359375 19.921875 C-0.64169922 18.76171875 -0.59980469 17.6015625 -0.55664062 16.40625 C-0.51732422 15.1996875 -0.47800781 13.993125 -0.4375 12.75 C-0.39431641 11.52796875 -0.35113281 10.3059375 -0.30664062 9.046875 C-0.20062645 6.0313608 -0.09856064 3.01576552 0 0 Z " fill="#00E0EC" transform="translate(539,486)" />
<path d="M0 0 C0.33 0 0.66 0 1 0 C1 13.2 1 26.4 1 40 C-7 34 -7 34 -10 31 C-8.02 31.66 -6.04 32.32 -4 33 C-4 33.66 -4 34.32 -4 35 C-2.68 35.33 -1.36 35.66 0 36 C0 24.12 0 12.24 0 0 Z " fill="#00F0FD" transform="translate(589,377)" />
<path d="M0 0 C0.66 0.66 1.32 1.32 2 2 C1.0479279 3.00596297 0.08812654 4.00461563 -0.875 5 C-1.40867187 5.556875 -1.94234375 6.11375 -2.4921875 6.6875 C-4 8 -4 8 -6 8 C-6.226875 8.598125 -6.45375 9.19625 -6.6875 9.8125 C-8.67666838 13.12778063 -11.62741178 14.31370589 -15 16 C-15.66 15.34 -16.32 14.68 -17 14 C-14.91784697 12.22776281 -12.83433081 10.45717274 -10.75 8.6875 C-10.16347656 8.18798828 -9.57695313 7.68847656 -8.97265625 7.17382812 C-6.04373434 4.68918088 -3.11144626 2.2565687 0 0 Z " fill="#008289" transform="translate(555,536)" />
<path d="M0 0 C4.91724138 4.75862069 4.91724138 4.75862069 5.25 9.75 C5.19090062 13.82046949 4.25003447 16.54458993 2 20 C-0.1875 21.875 -0.1875 21.875 -2 23 C-1.57571575 20.03001028 -1.15190358 18.21032804 0.625 15.75 C3.13590386 10.72819228 1.37924701 5.24351665 0 0 Z " fill="#009DA6" transform="translate(481,473)" />
<path d="M0 0 C2.625 0.375 2.625 0.375 5 1 C5 3.31 5 5.62 5 8 C3.02 8 1.04 8 -1 8 C-1.625 5.125 -1.625 5.125 -2 2 C-1.34 1.34 -0.68 0.68 0 0 Z " fill="#F8FDFC" transform="translate(470,480)" />
<path d="M0 0 C4.3974259 2.69842044 4.3974259 2.69842044 5.75 4.6875 C5.4375 6.875 5.4375 6.875 4.75 8.6875 C4.75 7.6975 4.75 6.7075 4.75 5.6875 C4.09 5.6875 3.43 5.6875 2.75 5.6875 C2.42 5.0275 2.09 4.3675 1.75 3.6875 C-0.06296615 3.06657282 -0.06296615 3.06657282 -2.25 2.6875 C-3.054375 2.48125 -3.85875 2.275 -4.6875 2.0625 C-7.28032207 1.53281108 -7.28032207 1.53281108 -9.9375 2.25 C-10.700625 2.394375 -11.46375 2.53875 -12.25 2.6875 C-12.91 2.0275 -13.57 1.3675 -14.25 0.6875 C-9.57595401 -2.30388943 -5.03003343 -2.03135966 0 0 Z " fill="#007B82" transform="translate(596.25,544.3125)" />
<path d="M0 0 C0.33 0 0.66 0 1 0 C1.13539281 2.89740622 1.23426829 5.78845621 1.3125 8.6875 C1.3753418 9.91243164 1.3753418 9.91243164 1.43945312 11.16210938 C1.52966349 15.61850146 1.51334403 17.37534836 -1.4140625 20.9375 C-2.69410156 21.9584375 -2.69410156 21.9584375 -4 23 C-4.556875 23.763125 -5.11375 24.52625 -5.6875 25.3125 C-6.120625 25.869375 -6.55375 26.42625 -7 27 C-7.66 27 -8.32 27 -9 27 C-7.94991025 23.32468586 -7.17088819 22.11979791 -3.96875 19.875 C-2.0168111 18.30317551 -1.12573433 17.42996931 -0.41650391 15.00463867 C-0.18764978 12.71635001 -0.11729013 10.48696977 -0.125 8.1875 C-0.104375 7.39923828 -0.08375 6.61097656 -0.0625 5.79882812 C-0.01565183 3.86634092 -0.00426251 1.93305028 0 0 Z " fill="#009AA3" transform="translate(507,474)" />
<path d="M0 0 C0.70125 -0.01675781 1.4025 -0.03351563 2.125 -0.05078125 C2.74375 0.06910156 3.3625 0.18898438 4 0.3125 C6.20914 3.62621 6.22481553 4.6571021 6.125 8.5 C6.10695313 9.40105469 6.08890625 10.30210937 6.0703125 11.23046875 C6.03550781 12.26107422 6.03550781 12.26107422 6 13.3125 C5.01 13.8075 5.01 13.8075 4 14.3125 C3.34 13.6525 2.68 12.9925 2 12.3125 C2.66 11.9825 3.32 11.6525 4 11.3125 C4.04241723 8.97955225 4.04092937 6.64547433 4 4.3125 C2.87465895 2.95631501 2.87465895 2.95631501 -0.0625 3.25 C-1.031875 3.270625 -2.00125 3.29125 -3 3.3125 C-3.66 5.6225 -4.32 7.9325 -5 10.3125 C-5.33 10.3125 -5.66 10.3125 -6 10.3125 C-6.1953125 4.2578125 -6.1953125 4.2578125 -6 2.3125 C-3.67471713 -0.01278287 -3.15334102 0.01738975 0 0 Z " fill="#00B8C2" transform="translate(512,442.6875)" />
<path d="M0 0 C1 3 1 3 0 6 C-0.13973952 9.84283684 -0.17851619 13.3171369 1 17 C1.66 17 2.32 17 3 17 C2.67 17.99 2.34 18.98 2 20 C-1.6077627 16.50861675 -3.14823943 14.73312821 -3.25 9.6875 C-3.22405923 5.66668099 -2.51445706 3.24784037 0 0 Z " fill="#00959D" transform="translate(572,489)" />
<path d="M0 0 C0 3 0 3 -1.390625 4.75390625 C-2.00421875 5.35074219 -2.6178125 5.94757813 -3.25 6.5625 C-3.85328125 7.16191406 -4.4565625 7.76132812 -5.078125 8.37890625 C-6.9884335 9.9902437 -8.74567434 10.94887593 -11 12 C-13.01182457 13.31542376 -15.01399663 14.6459068 -17 16 C-17.66 15.67 -18.32 15.34 -19 15 C-18.04738281 14.25234375 -17.09476562 13.5046875 -16.11328125 12.734375 C-14.8463448 11.73959527 -13.57941824 10.74480293 -12.3125 9.75 C-11.68666016 9.25886719 -11.06082031 8.76773437 -10.41601562 8.26171875 C-6.93050167 5.52440413 -3.45561905 2.77506692 0 0 Z " fill="#00838A" transform="translate(367,470)" />
<path d="M0 0 C0 2.64 0 5.28 0 8 C-2.31 8 -4.62 8 -7 8 C-4.73913043 0 -4.73913043 0 0 0 Z " fill="#F3FCFC" transform="translate(550,470)" />
<path d="M0 0 C-0.8353125 0.37125 -0.8353125 0.37125 -1.6875 0.75 C-5.85242367 3.00131009 -9.4627509 5.38825271 -11 10 C-11.44104758 12.66679932 -11.73069084 15.3069084 -12 18 C-12.66 17.67 -13.32 17.34 -14 17 C-13.37434687 7.0974212 -13.37434687 7.0974212 -10 3 C-6.58511082 0.39390036 -4.27788797 -0.36667611 0 0 Z " fill="#00EEFB" transform="translate(469,469)" />
<path d="M0 0 C3 1 3 1 5 2 C4.67 2.99 4.34 3.98 4 5 C3.34 5 2.68 5 2 5 C1.34 4.34 0.68 3.68 0 3 C-2.89883083 2.75660449 -2.89883083 2.75660449 -6.125 2.875 C-7.76855469 2.90207031 -7.76855469 2.90207031 -9.4453125 2.9296875 C-10.28835938 2.95289063 -11.13140625 2.97609375 -12 3 C-8.12887873 -0.2676057 -4.94790544 -0.59766779 0 0 Z " fill="#009DA6" transform="translate(587,484)" />
<path d="M0 0 C0.66 0 1.32 0 2 0 C2.16435547 1.22976563 2.16435547 1.22976563 2.33203125 2.484375 C2.49058594 3.56203125 2.64914062 4.6396875 2.8125 5.75 C2.96332031 6.81734375 3.11414063 7.8846875 3.26953125 8.984375 C4.01320407 12.05451094 4.92765472 13.66080478 7 16 C6.01 16 5.02 16 4 16 C0.70514742 12.32497213 -0.13278092 9.16188323 -0.0625 4.3125 C-0.05347656 3.50425781 -0.04445313 2.69601562 -0.03515625 1.86328125 C-0.02355469 1.24839844 -0.01195312 0.63351562 0 0 Z " fill="#00A5AE" transform="translate(532,468)" />
<path d="M0 0 C0 0.33 0 0.66 0 1 C-1.216875 1.2475 -2.43375 1.495 -3.6875 1.75 C-8.32590984 2.91575964 -11.4859408 4.80461416 -14.25 8.8125 C-15.28440438 11.82951279 -15.63541129 14.84023121 -16 18 C-16.33 18 -16.66 18 -17 18 C-17.45024551 11.58400142 -16.88144406 8.2093065 -13 3 C-8.63565714 -0.0065473 -5.23080226 -0.31384814 0 0 Z " fill="#00F1FE" transform="translate(585,483)" />
<path d="M0 0 C1.32 0.33 2.64 0.66 4 1 C-2.435 5.95 -2.435 5.95 -9 11 C-9.33 10.01 -9.66 9.02 -10 8 C-4.375 3 -4.375 3 -1 3 C-0.67 2.01 -0.34 1.02 0 0 Z " fill="#00EEFB" transform="translate(490,369)" />
<path d="M0 0 C0.99 0.33 1.98 0.66 3 1 C2.68289063 1.53109375 2.36578125 2.0621875 2.0390625 2.609375 C0.7629651 5.54535848 0.58292979 8.06174329 0.375 11.25 C0.30023438 12.32765625 0.22546875 13.4053125 0.1484375 14.515625 C0.09945313 15.33546875 0.05046875 16.1553125 0 17 C1.32 16.01 2.64 15.02 4 14 C4.66 14.33 5.32 14.66 6 15 C4.02 16.65 2.04 18.3 0 20 C-1.5220959 18.4779041 -1.12959521 17.11789918 -1.1328125 15 C-1.13410156 14.195625 -1.13539063 13.39125 -1.13671875 12.5625 C-1.13285156 11.716875 -1.12898438 10.87125 -1.125 10 C-1.12886719 9.154375 -1.13273437 8.30875 -1.13671875 7.4375 C-1.13542969 6.633125 -1.13414062 5.82875 -1.1328125 5 C-1.13168457 4.2575 -1.13055664 3.515 -1.12939453 2.75 C-1 1 -1 1 0 0 Z " fill="#00A5AE" transform="translate(443,410)" />
<path d="M0 0 C1.125 1.6875 1.125 1.6875 2 4 C1.4375 6.6875 1.4375 6.6875 0 9 C-3.56999674 10.35080958 -6.35770162 9.93659101 -10 9 C-10.33 7.68 -10.66 6.36 -11 5 C-10.01 5.495 -10.01 5.495 -9 6 C-6.6670134 6.04022391 -4.33293334 6.04320247 -2 6 C-1.34 4.02 -0.68 2.04 0 0 Z " fill="#00777E" transform="translate(462,549)" />
<path d="M0 0 C1.875 0.1875 1.875 0.1875 4 1 C5.4375 3.125 5.4375 3.125 6 6 C4.680787 10.02707126 3.34232034 13.29431211 0 16 C-0.66 15.67 -1.32 15.34 -2 15 C-0.63016497 11.83884224 -0.0109362 11.0072908 3 9 C3.50010524 6.04230823 3.50010524 6.04230823 3 3 C1.62493901 1.12109566 1.62493901 1.12109566 0 0 Z " fill="#008890" transform="translate(574,509)" />
<path d="M0 0 C0.66 1.32 1.32 2.64 2 4 C0.7934375 4.6496875 0.7934375 4.6496875 -0.4375 5.3125 C-4.28203946 9.34457797 -3.89780133 13.61134269 -4 19 C-4.33 19 -4.66 19 -5 19 C-5.24887295 16.89807303 -5.4734719 14.79326036 -5.6875 12.6875 C-5.81511719 11.51574219 -5.94273437 10.34398437 -6.07421875 9.13671875 C-6 6 -6 6 -4.70703125 4.08203125 C-3 3 -3 3 0 3 C0 2.01 0 1.02 0 0 Z " fill="#008C94" transform="translate(593,504)" />
<path d="M0 0 C0.66 0.33 1.32 0.66 2 1 C2 6.61 2 12.22 2 18 C1.01 17.34 0.02 16.68 -1 16 C-1.24890658 13.38944406 -1.3272977 11.03905078 -1.25 8.4375 C-1.24484375 7.73947266 -1.2396875 7.04144531 -1.234375 6.32226562 C-1.1541718 1.1541718 -1.1541718 1.1541718 0 0 Z " fill="#00E1ED" transform="translate(478,496)" />
<path d="M0 0 C0.33 0 0.66 0 1 0 C1.06276616 4.03496732 0.99135327 7.58458343 -1.37890625 10.96875 C-3.1908709 12.68748156 -4.74608308 13.91953688 -7 15 C-10.9375 14.875 -10.9375 14.875 -14 14 C-14 13.67 -14 13.34 -14 13 C-13.37351562 12.87882813 -12.74703125 12.75765625 -12.1015625 12.6328125 C-11.28429687 12.46523438 -10.46703125 12.29765625 -9.625 12.125 C-8.40683594 11.88136719 -8.40683594 11.88136719 -7.1640625 11.6328125 C-4.81326077 11.13341068 -4.81326077 11.13341068 -3 9 C-2.40165446 7.47943382 -1.86493344 5.93387912 -1.375 4.375 C-1.11460937 3.55773437 -0.85421875 2.74046875 -0.5859375 1.8984375 C-0.39257812 1.27195312 -0.19921875 0.64546875 0 0 Z " fill="#00696F" transform="translate(603,556)" />
<path d="M0 0 C0.66 0 1.32 0 2 0 C3.5635348 3.12706959 3.39958487 6.57982443 3 10 C2.01 11.485 2.01 11.485 1 13 C-0.97387813 8.23947038 -1.0070238 5.03511899 0 0 Z " fill="#008F97" transform="translate(595,492)" />
<path d="M0 0 C0.99 0.33 1.98 0.66 3 1 C-1.29 4.63 -5.58 8.26 -10 12 C-10.33 11.01 -10.66 10.02 -11 9 C-10.01 8.67 -9.02 8.34 -8 8 C-8 7.34 -8 6.68 -8 6 C-3.64705882 2 -3.64705882 2 0 2 C0 1.34 0 0.68 0 0 Z " fill="#00E7F4" transform="translate(346,484)" />
<path d="M0 0 C2.2477975 2.05233685 3.0022242 3.00667261 4 6 C3.96413422 7.85674402 3.85252374 9.71275626 3.6875 11.5625 C3.60886719 12.53316406 3.53023437 13.50382812 3.44921875 14.50390625 C3 17 3 17 1 19 C0.92652344 17.30230469 0.92652344 17.30230469 0.8515625 15.5703125 C0.77653486 14.08851661 0.70098703 12.606747 0.625 11.125 C0.57859375 10.00544922 0.57859375 10.00544922 0.53125 8.86328125 C0.44356169 4.46526812 0.44356169 4.46526812 -2 1 C-1.34 0.67 -0.68 0.34 0 0 Z " fill="#0099A2" transform="translate(540,484)" />
<path d="M0 0 C0.99 0.33 1.98 0.66 3 1 C2.21625 1.845625 1.4325 2.69125 0.625 3.5625 C-2.16931023 6.87925917 -3.07512901 9.79604094 -4 14 C-4.66 13.67 -5.32 13.34 -6 13 C-4.44191344 3.40546697 -4.44191344 3.40546697 0 0 Z " fill="#00777E" transform="translate(581,546)" />
<path d="M0 0 C0.94875 0.04125 1.8975 0.0825 2.875 0.125 C2.25625 0.41375 1.6375 0.7025 1 1 C-1.25825765 2.06220042 -1.25825765 2.06220042 -3.125 4.125 C-3.29187448 6.70854218 -3.29187448 6.70854218 -3.125 9.125 C-0.815 9.785 1.495 10.445 3.875 11.125 C3.875 11.455 3.875 11.785 3.875 12.125 C0.5625 12.4375 0.5625 12.4375 -3.125 12.125 C-5.125 9.9375 -5.125 9.9375 -6.125 7.125 C-5.80429439 2.5282196 -4.93592965 0.19743719 0 0 Z " fill="#00AEB8" transform="translate(545.125,466.875)" />
<path d="M0 0 C0.66 0.66 1.32 1.32 2 2 C1.6913753 4.33672984 1.35543427 6.66993089 1 9 C1.35974895 11.81237541 1.35974895 11.81237541 2 14 C1.01 13.67 0.02 13.34 -1 13 C-2.20272819 10.59454362 -2.10071472 9.05003047 -2.0625 6.375 C-2.05347656 5.55773437 -2.04445313 4.74046875 -2.03515625 3.8984375 C-2.02355469 3.27195312 -2.01195312 2.64546875 -2 2 C-1.34 2 -0.68 2 0 2 C0 1.34 0 0.68 0 0 Z " fill="#008E96" transform="translate(500,499)" />
<path d="M0 0 C0.99 0.33 1.98 0.66 3 1 C1.73113036 2.12721436 0.45982438 3.25168658 -0.8125 4.375 C-1.52019531 5.00148438 -2.22789062 5.62796875 -2.95703125 6.2734375 C-5 8 -5 8 -8 10 C-8.99 9.67 -9.98 9.34 -11 9 C-9.23977508 7.46690087 -7.46646537 5.94881299 -5.6875 4.4375 C-4.70136719 3.59058594 -3.71523438 2.74367188 -2.69921875 1.87109375 C-1.80847656 1.25363281 -0.91773438 0.63617188 0 0 Z " fill="#00ABB4" transform="translate(455,400)" />
<path d="M0 0 C0 3 0 3 -1.57421875 4.8671875 C-2.27160156 5.52976562 -2.96898437 6.19234375 -3.6875 6.875 C-4.41324219 7.57367187 -5.13898437 8.27234375 -5.88671875 8.9921875 C-6.93279297 9.98605469 -6.93279297 9.98605469 -8 11 C-9.00356927 11.99641794 -10.00431338 12.99570514 -11 14 C-11.66 14.66 -12.32 15.32 -13 16 C-12.42308522 12.83145253 -11.58353113 11.21773541 -9.27734375 8.984375 C-8.73916016 8.45585938 -8.20097656 7.92734375 -7.64648438 7.3828125 C-7.08251953 6.84398437 -6.51855469 6.30515625 -5.9375 5.75 C-5.36966797 5.19570313 -4.80183594 4.64140625 -4.21679688 4.0703125 C-2.81787531 2.70665786 -1.40980886 1.35239583 0 0 Z " fill="#008087" transform="translate(522,531)" />
<path d="M0 0 C0.94875 0.04125 1.8975 0.0825 2.875 0.125 C2.875 0.455 2.875 0.785 2.875 1.125 C1.225 1.455 -0.425 1.785 -2.125 2.125 C-2.45897787 4.99913125 -2.45897787 4.99913125 -2.125 8.125 C-0.24422127 10.03756712 -0.24422127 10.03756712 1.875 11.125 C-0.5 11.25 -0.5 11.25 -3.125 11.125 C-5.125 9.125 -5.125 9.125 -5.375 5.625 C-5.05328869 1.12104166 -4.56738407 0.18269536 0 0 Z " fill="#00ECF9" transform="translate(512.125,444.875)" />
<path d="M0 0 C0.99 0.33 1.98 0.66 3 1 C2.175 1.763125 1.35 2.52625 0.5 3.3125 C-2.80283447 7.17356001 -2.40334296 10.92836511 -2.17578125 15.8046875 C-2.11777344 16.52914063 -2.05976562 17.25359375 -2 18 C-2.66 18 -3.32 18 -4 18 C-4 13.38 -4 8.76 -4 4 C-3.01 3.67 -2.02 3.34 -1 3 C-0.67 2.01 -0.34 1.02 0 0 Z " fill="#00EEFB" transform="translate(535,461)" />
<path d="M0 0 C0.556875 0.28875 1.11375 0.5775 1.6875 0.875 C3.97256456 2.05989636 3.97256456 2.05989636 6.4375 2.75 C10.01025265 4.49280617 11.60271479 6.84928229 14 10 C13.67 10.66 13.34 11.32 13 12 C10.83035229 10.19096681 8.66421535 8.37801121 6.5 6.5625 C5.87996094 6.04623047 5.25992188 5.52996094 4.62109375 4.99804688 C3.06197284 3.68735732 1.52871719 2.34602708 0 1 C0 0.67 0 0.34 0 0 Z " fill="#008F97" transform="translate(602,462)" />
<path d="M0 0 C0.99 0.495 0.99 0.495 2 1 C1.01 1.495 1.01 1.495 0 2 C0 1.34 0 0.68 0 0 Z M-2 2 C-1.34 2 -0.68 2 0 2 C-1.40976705 5.03852705 -3.08870228 7.5939595 -5.125 10.25 C-5.66382813 10.95640625 -6.20265625 11.6628125 -6.7578125 12.390625 C-7.16773438 12.92171875 -7.57765625 13.4528125 -8 14 C-8 10.13304322 -6.58090029 7.4911548 -5 4 C-4.01 4 -3.02 4 -2 4 C-2 3.34 -2 2.68 -2 2 Z " fill="#00BCC6" transform="translate(380,329)" />
<path d="M0 0 C1.485 0.99 1.485 0.99 3 2 C2.34 7.28 1.68 12.56 1 18 C0.67 18 0.34 18 0 18 C0 12.06 0 6.12 0 0 Z " fill="#00858C" transform="translate(405,295)" />
<path d="M0 0 C0.66 0.33 1.32 0.66 2 1 C-4.435 6.94 -4.435 6.94 -11 13 C-11.99 12.67 -12.98 12.34 -14 12 C-9.38 8.04 -4.76 4.08 0 0 Z " fill="#00E6F3" transform="translate(577,532)" />
<path d="M0 0 C4.03932853 -0.28580155 7.97005043 -0.45551292 12 0 C14.75 2.5 14.75 2.5 16 5 C14.35 5.66 12.7 6.32 11 7 C11 5.02 11 3.04 11 1 C10.01 1.33 9.02 1.66 8 2 C5.95703125 1.87890625 5.95703125 1.87890625 3.8125 1.5625 C2.554375 1.376875 1.29625 1.19125 0 1 C0 0.67 0 0.34 0 0 Z " fill="#00BAC4" transform="translate(508,438)" />
<path d="M0 0 C3 2 3 2 3.75 3.75 C4.07181166 6.64630498 3.58124917 9.15833741 3 12 C-1.455 12.495 -1.455 12.495 -6 13 C-5.01 12.34 -4.02 11.68 -3 11 C-1.66209359 10.00612666 -0.32781878 9.0073108 1 8 C0.67 5.36 0.34 2.72 0 0 Z " fill="#008F97" transform="translate(516,499)" />
<path d="M0 0 C0.33 0 0.66 0 1 0 C1.268125 1.051875 1.53625 2.10375 1.8125 3.1875 C3.32247324 8.03530882 5.22711782 11.58643994 9 15 C5.19985035 14.45712148 3.46103687 12.88535357 1 10 C-0.1577506 6.52674819 -0.06866652 3.63932552 0 0 Z " fill="#00A6AF" transform="translate(498,448)" />
<path d="M0 0 C0.66 0 1.32 0 2 0 C0.5741914 3.45195767 -1.09746334 5.1014256 -4.125 7.25 C-5.21167969 8.03117188 -5.21167969 8.03117188 -6.3203125 8.828125 C-6.87460937 9.21484375 -7.42890625 9.6015625 -8 10 C-8 8.68 -8 7.36 -8 6 C-5 4 -5 4 -2 4 C-2 3.34 -2 2.68 -2 2 C-1.34 2 -0.68 2 0 2 C0 1.34 0 0.68 0 0 Z " fill="#00E8F5" transform="translate(542,544)" />
<path d="M0 0 C0.33 0 0.66 0 1 0 C1.0825 1.258125 1.165 2.51625 1.25 3.8125 C1.6225603 7.30140544 1.6225603 7.30140544 4.0625 9.8125 C4.701875 10.204375 5.34125 10.59625 6 11 C6 11.99 6 12.98 6 14 C5.01 14 4.02 14 3 14 C3 13.01 3 12.02 3 11 C2.34 11 1.68 11 1 11 C-0.20272819 8.59454362 -0.10071472 7.05003047 -0.0625 4.375 C-0.05347656 3.55773437 -0.04445313 2.74046875 -0.03515625 1.8984375 C-0.02355469 1.27195312 -0.01195312 0.64546875 0 0 Z " fill="#009AA3" transform="translate(516,483)" />
<path d="M0 0 C-1.40929697 3.47132095 -2.90605083 4.88093274 -6.125 6.75 C-6.84945312 7.17796875 -7.57390625 7.6059375 -8.3203125 8.046875 C-8.87460937 8.36140625 -9.42890625 8.6759375 -10 9 C-9.67 7.68 -9.34 6.36 -9 5 C-7.68 4.67 -6.36 4.34 -5 4 C-5 3.34 -5 2.68 -5 2 C-2 0 -2 0 0 0 Z " fill="#006F75" transform="translate(578,569)" />
<path d="M0 0 C0.5775 0.2475 1.155 0.495 1.75 0.75 C1.151875 1.183125 0.55375 1.61625 -0.0625 2.0625 C-2.67201765 4.07555647 -4.76759822 5.78519645 -6.25 8.75 C-6.91 8.75 -7.57 8.75 -8.25 8.75 C-6.88064896 4.64194688 -5.04707216 -0.5607858 0 0 Z " fill="#00787F" transform="translate(451.25,538.25)" />
<path d="M0 0 C0 3.58912412 -0.66436554 4.10857029 -3 6.6875 C-3.556875 7.31011719 -4.11375 7.93273437 -4.6875 8.57421875 C-5.120625 9.04472656 -5.55375 9.51523437 -6 10 C-6.99 9.67 -7.98 9.34 -9 9 C-6.03 6.03 -3.06 3.06 0 0 Z " fill="#008B93" transform="translate(532,521)" />
<path d="M0 0 C2.475 0.495 2.475 0.495 5 1 C5 1.66 5 2.32 5 3 C5.66 3 6.32 3 7 3 C7 3.66 7 4.32 7 5 C7.99 5 8.98 5 10 5 C10.33 6.32 10.66 7.64 11 9 C9.53699018 8.06981474 8.07974421 7.13055973 6.625 6.1875 C5.81289063 5.66542969 5.00078125 5.14335937 4.1640625 4.60546875 C2 3 2 3 0 0 Z " fill="#00EEFB" transform="translate(529,368)" />
<path d="M0 0 C0.33 0 0.66 0 1 0 C1.2475 0.94875 1.495 1.8975 1.75 2.875 C2.6857077 6.08693191 2.6857077 6.08693191 5.125 7.375 C5.74375 7.58125 6.3625 7.7875 7 8 C4.125 8.625 4.125 8.625 1 9 C0.34 8.34 -0.32 7.68 -1 7 C-0.625 3.375 -0.625 3.375 0 0 Z " fill="#009CA5" transform="translate(506,503)" />
<path d="M0 0 C3.7952131 1.49097658 5.61042731 3.75700849 8 7 C5 7 5 7 2.3125 4.625 C0 2 0 2 0 0 Z " fill="#008E96" transform="translate(484,520)" />
<path d="M0 0 C0.33 0 0.66 0 1 0 C1.66 2.64 2.32 5.28 3 8 C4.98 7.67 6.96 7.34 9 7 C8.67 7.66 8.34 8.32 8 9 C5.125 9.125 5.125 9.125 2 9 C0 7 0 7 -0.125 3.375 C-0.08375 2.26125 -0.0425 1.1475 0 0 Z " fill="#00EBF8" transform="translate(507,501)" />
<path d="M0 0 C0.33 0 0.66 0 1 0 C1.375 2.125 1.375 2.125 1 5 C-0.74322351 7.29739641 -2.69638037 9.26333339 -5 11 C-5.66 11 -6.32 11 -7 11 C-5.76632058 7.29896173 -3.73190399 5.73190399 -1 3 C-0.67 2.01 -0.34 1.02 0 0 Z " fill="#00ECF9" transform="translate(560,477)" />
<path d="M0 0 C0.763125 0.309375 1.52625 0.61875 2.3125 0.9375 C4.18789677 1.67893593 6.08684652 2.36228217 8 3 C8 3.66 8 4.32 8 5 C8.66 5 9.32 5 10 5 C9.67 5.99 9.34 6.98 9 8 C7.49712782 6.85793642 5.99776716 5.71125043 4.5 4.5625 C3.6646875 3.92441406 2.829375 3.28632813 1.96875 2.62890625 C1.3190625 2.09136719 0.669375 1.55382812 0 1 C0 0.67 0 0.34 0 0 Z " fill="#00EDFA" transform="translate(554,388)" />
<path d="M0 0 C0.33 0.66 0.66 1.32 1 2 C-0.98 4.97 -0.98 4.97 -3 8 C-3.33 7.34 -3.66 6.68 -4 6 C-4.66 5.67 -5.32 5.34 -6 5 C-4.02 3.35 -2.04 1.7 0 0 Z " fill="#008188" transform="translate(537,551)" />
<path d="M0 0 C3.53372712 1.96318174 6.24479785 4.04070881 9 7 C5.35521088 7 3.90696599 6.14197494 1 4 C0.1875 1.8125 0.1875 1.8125 0 0 Z " fill="#008C94" transform="translate(652,467)" />
<path d="M0 0 C1.65 0 3.3 0 5 0 C4.67 1.65 4.34 3.3 4 5 C3.01 5 2.02 5 1 5 C0.67 3.35 0.34 1.7 0 0 Z " fill="#00B5BF" transform="translate(545,461)" />
<path d="M0 0 C-1.44390925 3.80666984 -3.34952803 5.26602582 -7 7 C-7.66 6.67 -8.32 6.34 -9 6 C-7.8803014 4.99406757 -6.7540588 3.9954151 -5.625 3 C-4.68527344 2.1646875 -4.68527344 2.1646875 -3.7265625 1.3125 C-2 0 -2 0 0 0 Z " fill="#00B1BB" transform="translate(491,390)" />
<path d="M0 0 C0 3 0 3 -1.3125 4.38671875 C-2.875 5.59114583 -4.4375 6.79557292 -6 8 C-6.66 7.34 -7.32 6.68 -8 6 C-5.36 4.02 -2.72 2.04 0 0 Z " fill="#008A92" transform="translate(376,463)" />
<path d="M0 0 C0 0.66 0 1.32 0 2 C-0.763125 1.95875 -1.52625 1.9175 -2.3125 1.875 C-5.22718416 1.77919176 -5.22718416 1.77919176 -8 4 C-7.625 2.0625 -7.625 2.0625 -7 0 C-4.3333581 -1.33332095 -2.83319697 -0.67102033 0 0 Z " fill="#00ECF9" transform="translate(515,355)" />
<path d="M0 0 C0.66 0.33 1.32 0.66 2 1 C0.35 2.98 -1.3 4.96 -3 7 C-3.99 6.34 -4.98 5.68 -6 5 C-4.02 3.35 -2.04 1.7 0 0 Z " fill="#00848B" transform="translate(562,530)" />
<path d="M0 0 C0.33 0 0.66 0 1 0 C1.25 2.3125 1.25 2.3125 1 5 C-1 6.8125 -1 6.8125 -3 8 C-2.67 6.02 -2.34 4.04 -2 2 C-1.34 2 -0.68 2 0 2 C0 1.34 0 0.68 0 0 Z " fill="#00979F" transform="translate(594,494)" />
<path d="M0 0 C0.99 0.33 1.98 0.66 3 1 C-0.465 3.97 -0.465 3.97 -4 7 C-3.04065919 3.16263678 -2.76390737 2.40339772 0 0 Z " fill="#00C2CD" transform="translate(505,439)" />
<path d="M0 0 C4.875 4.625 4.875 4.625 6 8 C4.68 7.67 3.36 7.34 2 7 C1.34 4.69 0.68 2.38 0 0 Z " fill="#00858D" transform="translate(430,329)" />
<path d="M0 0 C2 4 2 4 1.125 6.75 C0.75375 7.4925 0.3825 8.235 0 9 C-0.66 9 -1.32 9 -2 9 C-1.34 6.03 -0.68 3.06 0 0 Z " fill="#008188" transform="translate(462,549)" />
<path d="M0 0 C0.33 0.66 0.66 1.32 1 2 C-0.2739589 4.03833424 -1.61061923 6.03852126 -3 8 C-3.66 8 -4.32 8 -5 8 C-3.8141763 4.62496331 -2.72426311 2.35277269 0 0 Z " fill="#00959D" transform="translate(503,493)" />
<path d="M0 0 C-2.64 1.65 -5.28 3.3 -8 5 C-8 4.01 -8 3.02 -8 2 C-4.90310319 -1.09689681 -4.48560889 -1.12140222 0 0 Z " fill="#009098" transform="translate(479,419)" />
</svg>